<svg width="202" height="27" viewBox="0 0 202 27" fill="none" xmlns="http://www.w3.org/2000/svg">
<mask id="mask0_648_849" style="mask-type:luminance" maskUnits="userSpaceOnUse" x="0" y="0" width="202" height="27">
<path d="M0.192383 27H201.635V0.163947H0.192383V27Z" fill="white"/>
</mask>
<g mask="url(#mask0_648_849)">
<path d="M126.854 25.7698C126.854 25.7698 131.282 27 136.938 27C142.965 27 145.755 26.3291 145.755 26.3291V21.8563C145.755 21.8563 142.742 22.4529 138.537 22.4529C134.854 22.4529 132.584 21.968 132.584 21.968V15.6322H144.008V11.1594H132.584V5.12169C132.584 5.12169 134.816 4.71137 138.166 4.71137C141.924 4.71137 145.309 5.30785 145.309 5.30785V0.797803C145.309 0.797803 142.333 0.163947 137.495 0.163947C131.059 0.163947 126.854 1.32029 126.854 1.32029V25.7698ZM45.2161 15.5943C45.0668 15.9676 44.8817 16.6758 44.7699 17.0859C44.6586 16.6758 44.4722 15.9676 44.3238 15.5943L39.2626 2.58713C38.4069 0.425487 37.068 0.163947 34.6121 0.163947C33.7559 0.163947 32.0066 0.27595 32.0066 0.27595L29.4023 26.6272H35.1702L36.4349 8.96074L41.9047 22.3409C42.3145 23.3845 43.1326 23.7947 44.7699 23.7947C46.4065 23.7947 47.2258 23.3845 47.6348 22.3409L53.1044 8.96074L54.3698 26.6272H60.1367L57.5324 0.27595C57.5324 0.27595 55.7833 0.163947 54.9281 0.163947C52.4723 0.163947 51.133 0.425487 50.2766 2.58713L45.2161 15.5943ZM16.342 20.9992C15.1141 21.4839 12.1368 22.4529 9.94193 22.4529C7.56028 22.4529 5.77446 21.633 5.77446 19.0237C5.77446 16.7504 7.00167 15.446 10.2772 15.334L16.342 15.1105V20.9992ZM12.9186 0.163947C7.78363 0.163947 3.76498 1.43154 2.20201 2.2145L3.43015 6.53787C3.43015 6.53787 7.3749 5.12169 11.2439 5.12169C14.5557 5.12169 16.2671 6.05307 16.2671 9.3329V11.197H11.2439C2.72316 11.197 0.192383 15.1105 0.192383 19.4342C0.192383 25.1735 4.658 27 8.71377 27C13.4393 27 16.1932 25.0249 16.5277 25.0249C16.7885 25.0249 17.7559 26.068 22.0716 26.068V7.80499C22.0716 2.3265 18.686 0.163947 12.9186 0.163947ZM81.9796 20.9992C80.7512 21.4839 77.7746 22.4529 75.5797 22.4529C73.1977 22.4529 71.4115 21.633 71.4115 19.0237C71.4115 16.7504 72.6398 15.446 75.9142 15.334L81.9796 15.1105V20.9992ZM78.5556 0.163947C73.4204 0.163947 69.4022 1.43154 67.8395 2.2145L69.0674 6.53787C69.0674 6.53787 73.0122 5.12169 76.8811 5.12169C80.1929 5.12169 81.9045 6.05307 81.9045 9.3329V11.197H76.8811C68.3607 11.197 65.8298 15.1105 65.8298 19.4342C65.8298 25.1735 70.2953 27 74.3514 27C79.0768 27 81.8303 25.0249 82.1651 25.0249C82.4257 25.0249 83.3931 26.068 87.7093 26.068V7.80499C87.7093 2.3265 84.3233 0.163947 78.5556 0.163947ZM169.831 20.0673C168.454 20.7378 165.478 21.8563 162.761 21.8563C158.816 21.8563 158.147 20.0673 158.147 15.9676V0.387638C158.147 0.387638 157.774 0.387638 157.291 0.387638C155.989 0.387638 153.087 0.611211 152.379 0.760747V16.713C152.379 23.6831 154.091 27 161.16 27C166.556 27 169.719 24.9132 169.941 24.9132C170.017 24.9132 171.877 26.068 175.599 26.068V0.760747C175.19 0.686118 172.398 0.387638 170.983 0.387638C170.463 0.387638 169.831 0.387638 169.831 0.387638V20.0673ZM182.412 26.068C182.412 26.068 185.984 27 190.97 27C195.696 27 201.649 25.3975 201.649 18.9871C201.649 14.8119 198.561 13.023 193.537 11.197C190.821 10.1905 188.514 9.29584 188.514 7.43208C188.514 6.53787 189.184 4.78627 192.644 4.78627C195.881 4.78627 199.194 6.2768 199.194 6.2768L200.645 1.99081C199.677 1.50617 196.514 0.163947 192.124 0.163947C187.361 0.163947 182.71 2.69882 182.71 7.80499C182.71 13.0609 187.472 14.6632 191.193 15.8935C193.724 16.7504 195.845 17.6454 195.845 19.3222C195.845 20.9613 194.952 22.3785 190.672 22.3785C187.175 22.3785 183.454 21.5959 183.454 21.5959L182.412 26.068ZM101.849 5.15859C102.779 4.97243 104.603 4.71137 106.425 4.71137C110.593 4.71137 113.868 7.0596 113.868 13.3964C113.868 19.5462 112.267 22.4529 105.905 22.4529C103.858 22.4529 101.849 22.1547 101.849 22.1547V5.15859ZM106.686 0.163947C103.412 0.163947 98.872 0.723213 96.0813 1.72939V26.217C98.3887 26.7023 102.705 27 105.719 27C115.989 27 119.97 22.9745 119.97 13.3964C119.97 5.12169 114.909 0.163947 106.686 0.163947Z" fill="#1B69BC"/>
</g>
</svg>
