<svg width="203" height="27" viewBox="0 0 203 27" fill="none" xmlns="http://www.w3.org/2000/svg">
<path d="M127.433 26.2698C127.433 26.2698 131.861 27.5 137.517 27.5C143.544 27.5 146.334 26.8291 146.334 26.8291V22.3563C146.334 22.3563 143.321 22.9529 139.116 22.9529C135.433 22.9529 133.163 22.468 133.163 22.468V16.1322H144.587V11.6594H133.163V5.62169C133.163 5.62169 135.395 5.21136 138.745 5.21136C142.503 5.21136 145.888 5.80785 145.888 5.80785V1.2978C145.888 1.2978 142.912 0.663948 138.074 0.663948C131.638 0.663948 127.433 1.82029 127.433 1.82029V26.2698ZM45.7952 16.0943C45.646 16.4676 45.4608 17.1758 45.349 17.5859C45.2377 17.1758 45.0513 16.4676 44.9029 16.0943L39.8417 3.08713C38.986 0.925488 37.6471 0.663948 35.1912 0.663948C34.335 0.663948 32.5857 0.775949 32.5857 0.775949L29.9814 27.1272H35.7493L37.014 9.46074L42.4838 22.8409C42.8936 23.8845 43.7117 24.2947 45.349 24.2947C46.9856 24.2947 47.8049 23.8845 48.2139 22.8409L53.6835 9.46074L54.949 27.1272H60.7158L58.1115 0.775949C58.1115 0.775949 56.3624 0.663948 55.5072 0.663948C53.0514 0.663948 51.7121 0.925488 50.8557 3.08713L45.7952 16.0943ZM16.9211 21.4992C15.6932 21.9839 12.7159 22.9529 10.521 22.9529C8.13938 22.9529 6.35356 22.133 6.35356 19.5237C6.35356 17.2504 7.58077 15.946 10.8563 15.834L16.9211 15.6105V21.4992ZM13.4977 0.663948C8.36273 0.663948 4.34408 1.93154 2.78111 2.7145L4.00925 7.03787C4.00925 7.03787 7.95401 5.62169 11.823 5.62169C15.1348 5.62169 16.8462 6.55307 16.8462 9.8329V11.697H11.823C3.30226 11.697 0.771484 15.6105 0.771484 19.9342C0.771484 25.6735 5.2371 27.5 9.29288 27.5C14.0184 27.5 16.7723 25.5249 17.1068 25.5249C17.3676 25.5249 18.335 26.568 22.6507 26.568V8.30499C22.6507 2.8265 19.2652 0.663948 13.4977 0.663948ZM82.5587 21.4992C81.3303 21.9839 78.3537 22.9529 76.1589 22.9529C73.7768 22.9529 71.9906 22.133 71.9906 19.5237C71.9906 17.2504 73.2189 15.946 76.4933 15.834L82.5587 15.6105V21.4992ZM79.1347 0.663948C73.9995 0.663948 69.9813 1.93154 68.4186 2.7145L69.6465 7.03787C69.6465 7.03787 73.5913 5.62169 77.4602 5.62169C80.772 5.62169 82.4836 6.55307 82.4836 9.8329V11.697H77.4602C68.9398 11.697 66.4089 15.6105 66.4089 19.9342C66.4089 25.6735 70.8744 27.5 74.9305 27.5C79.6559 27.5 82.4094 25.5249 82.7442 25.5249C83.0048 25.5249 83.9722 26.568 88.2884 26.568V8.30499C88.2884 2.8265 84.9024 0.663948 79.1347 0.663948ZM170.41 20.5673C169.033 21.2378 166.057 22.3563 163.341 22.3563C159.395 22.3563 158.726 20.5673 158.726 16.4676V0.887638C158.726 0.887638 158.353 0.887638 157.87 0.887638C156.568 0.887638 153.666 1.11121 152.959 1.26075V17.213C152.959 24.1831 154.671 27.5 161.74 27.5C167.135 27.5 170.298 25.4132 170.521 25.4132C170.596 25.4132 172.456 26.568 176.179 26.568V1.26075C175.769 1.18612 172.977 0.887638 171.563 0.887638C171.042 0.887638 170.41 0.887638 170.41 0.887638V20.5673ZM182.991 26.568C182.991 26.568 186.563 27.5 191.549 27.5C196.275 27.5 202.228 25.8975 202.228 19.4871C202.228 15.3119 199.14 13.523 194.116 11.697C191.4 10.6905 189.093 9.79584 189.093 7.93208C189.093 7.03787 189.763 5.28627 193.223 5.28627C196.461 5.28627 199.773 6.7768 199.773 6.7768L201.224 2.49081C200.256 2.00617 197.093 0.663948 192.703 0.663948C187.94 0.663948 183.289 3.19882 183.289 8.30499C183.289 13.5609 188.051 15.1632 191.772 16.3935C194.303 17.2504 196.424 18.1454 196.424 19.8222C196.424 21.4613 195.531 22.8785 191.252 22.8785C187.754 22.8785 184.033 22.0959 184.033 22.0959L182.991 26.568ZM102.428 5.65859C103.358 5.47243 105.182 5.21136 107.005 5.21136C111.172 5.21136 114.447 7.5596 114.447 13.8964C114.447 20.0462 112.846 22.9529 106.484 22.9529C104.437 22.9529 102.428 22.6547 102.428 22.6547V5.65859ZM107.265 0.663948C103.991 0.663948 99.4511 1.22321 96.6604 2.22939V26.717C98.9678 27.2023 103.285 27.5 106.298 27.5C116.568 27.5 120.549 23.4745 120.549 13.8964C120.549 5.62169 115.488 0.663948 107.265 0.663948Z" fill="#1B69BC"/>
</svg>
