<svg width="47" height="72" viewBox="0 0 47 72" fill="none" xmlns="http://www.w3.org/2000/svg">
<path d="M21.271 45.4355H26.3574V71.7678H21.271V45.4355Z" fill="#246A37"/>
<rect x="0.446289" width="46.1302" height="46.1302" rx="23.0651" fill="#246A37"/>
<rect x="2.2876" y="1.84033" width="42.4482" height="42.4482" rx="21.2241" fill="white"/>
<rect x="3.78174" y="3.33545" width="39.4597" height="39.4597" rx="19.7298" fill="#246A37"/>
<path d="M29.8811 30.8637H17.7497C16.7925 30.8637 16.0166 30.0878 16.0166 29.1307V16.9992C16.0166 16.042 16.7925 15.2661 17.7497 15.2661H29.8811C30.8383 15.2661 31.6142 16.042 31.6142 16.9992V29.1307C31.6142 30.0878 30.8383 30.8637 29.8811 30.8637ZM17.7497 16.9992V29.1307H29.8811V16.9992H17.7497ZM28.1481 27.3976H26.415V21.3318H28.1481V27.3976ZM24.6819 27.3976H22.9489V18.7322H24.6819V27.3976ZM21.2158 27.3976H19.4827V23.0649H21.2158V27.3976Z" fill="white"/>
</svg>
