<svg width="36" height="36" viewBox="0 0 36 36" fill="none" xmlns="http://www.w3.org/2000/svg">
<rect width="36" height="36" rx="18" fill="#246A37"/>
<rect x="1.4375" y="1.43604" width="33.1266" height="33.1266" rx="16.5633" fill="white"/>
<rect x="2.60254" y="2.60303" width="30.7944" height="30.7944" rx="15.3972" fill="#246A37"/>
<path d="M22.9713 24.086H13.5039C12.7569 24.086 12.1514 23.4804 12.1514 22.7335V13.2661C12.1514 12.5191 12.7569 11.9136 13.5039 11.9136H22.9713C23.7182 11.9136 24.3237 12.5191 24.3237 13.2661V22.7335C24.3237 23.4804 23.7182 24.086 22.9713 24.086ZM13.5039 13.2661V22.7335H22.9713V13.2661H13.5039ZM21.6188 21.381H20.2663V16.6473H21.6188V21.381ZM18.9138 21.381H17.5613V14.6185H18.9138V21.381ZM16.2088 21.381H14.8563V17.9998H16.2088V21.381Z" fill="white"/>
</svg>
