<svg width="32" height="33" viewBox="0 0 32 33" fill="none" xmlns="http://www.w3.org/2000/svg">
<path d="M13.247 1.90714C14.9504 0.923696 17.0491 0.923696 18.7524 1.90714L27.5616 6.99312C29.265 7.97656 30.3143 9.79404 30.3143 11.7609V21.9329C30.3143 23.8998 29.265 25.7172 27.5616 26.7007L18.7524 31.7867C17.0491 32.7701 14.9504 32.7701 13.247 31.7867L4.43786 26.7007C2.73449 25.7172 1.68517 23.8998 1.68517 21.9329V11.7609C1.68517 9.79404 2.73449 7.97656 4.43786 6.99312L13.247 1.90714Z" fill="url(#paint0_linear_2806_926)"/>
<mask id="mask0_2806_926" style="mask-type:alpha" maskUnits="userSpaceOnUse" x="1" y="1" width="30" height="32">
<path d="M13.247 1.90714C14.9504 0.923696 17.0491 0.923696 18.7524 1.90714L27.5616 6.99312C29.265 7.97656 30.3143 9.79404 30.3143 11.7609V21.9329C30.3143 23.8998 29.265 25.7172 27.5616 26.7007L18.7524 31.7867C17.0491 32.7701 14.9504 32.7701 13.247 31.7867L4.43786 26.7007C2.73449 25.7172 1.68517 23.8998 1.68517 21.9329V11.7609C1.68517 9.79404 2.73449 7.97656 4.43786 6.99312L13.247 1.90714Z" fill="#83E1E1"/>
</mask>
<g mask="url(#mask0_2806_926)">
<path d="M6.28465 13.3193L-3.16204 19.2082L-11.3461 24.7079C-11.6504 24.9124 -11.833 25.2551 -11.833 25.6218V51.7071C-11.833 52.3152 -11.34 52.8082 -10.7319 52.8082H43.7369C44.345 52.8082 44.838 52.3152 44.838 51.7071V28.4075C44.838 28.0303 44.6449 27.6794 44.3263 27.4775L16.7534 10.0029C16.318 9.72693 15.7495 9.78998 15.3851 10.1546L10.6353 14.9081C10.2052 15.3385 9.50762 15.3385 9.07756 14.9081L7.64601 13.4754C7.28383 13.113 6.71949 13.0483 6.28465 13.3193Z" fill="url(#paint1_linear_2806_926)"/>
<path d="M6.62637 15.8467L1 20.38H5.30769C5.72967 20.38 7.30037 22.6911 8.03297 23.8467L9 18.4245L6.62637 15.8467Z" fill="url(#paint2_linear_2806_926)"/>
<path d="M13.0193 17.8467L16 12.8467L28 19.8467L25.2516 21.0658L18.5 20.8467L12 26.8467L15 19.8467L13.0193 17.8467Z" fill="url(#paint3_linear_2806_926)"/>
</g>
<defs>
<linearGradient id="paint0_linear_2806_926" x1="15.9997" y1="0.317871" x2="15.9997" y2="33.3759" gradientUnits="userSpaceOnUse">
<stop stop-color="#22AFFF"/>
<stop offset="1" stop-color="#1D41FF"/>
</linearGradient>
<linearGradient id="paint1_linear_2806_926" x1="16.5025" y1="9.53076" x2="16.5025" y2="52.8082" gradientUnits="userSpaceOnUse">
<stop stop-color="#1B3573"/>
<stop offset="1" stop-color="#131E39"/>
</linearGradient>
<linearGradient id="paint2_linear_2806_926" x1="8.5" y1="16.8467" x2="-3" y2="33.8467" gradientUnits="userSpaceOnUse">
<stop stop-color="#FCFCFD"/>
<stop offset="1" stop-color="white" stop-opacity="0"/>
</linearGradient>
<linearGradient id="paint3_linear_2806_926" x1="16.5" y1="12.8467" x2="27" y2="50.8467" gradientUnits="userSpaceOnUse">
<stop stop-color="white"/>
<stop offset="1" stop-color="#192E5F"/>
</linearGradient>
</defs>
</svg>
