<svg width="14" height="10" viewBox="0 0 14 10" fill="none" xmlns="http://www.w3.org/2000/svg">
<path fill-rule="evenodd" clip-rule="evenodd" d="M9.09094 1.11189C9.49676 0.737281 10.1294 0.762583 10.504 1.1684L13.7348 4.66836C14.0884 5.05142 14.0884 5.64186 13.7348 6.02492L10.504 9.52496C10.1294 9.93079 9.49677 9.95609 9.09095 9.58149C8.68513 9.20689 8.65982 8.57423 9.03442 8.16841L10.716 6.34665L0.999999 6.34665C0.447714 6.34665 -7.64154e-07 5.89893 -7.86799e-07 5.34665C-8.09444e-07 4.79436 0.447714 4.34665 0.999999 4.34665L10.716 4.34665L9.03443 2.52497C8.65982 2.11915 8.68513 1.48649 9.09094 1.11189Z" fill="white"/>
</svg>
