<svg width="760" height="542" viewBox="0 0 760 542" fill="none" xmlns="http://www.w3.org/2000/svg">
<g clip-path="url(#clip0_0_1)">
<g clip-path="url(#clip1_0_1)">
<path d="M705.063 507.091C704.513 506.992 704.009 506.716 703.628 506.306C703.247 505.897 703.008 505.374 702.949 504.818L701.125 487.615L687.311 492.654L686.106 497.713C686.031 498.021 685.886 498.307 685.682 498.55C685.478 498.792 685.221 498.985 684.93 499.111C684.64 499.237 684.325 499.294 684.01 499.278C683.694 499.261 683.386 499.171 683.111 499.016C682.836 498.86 682.601 498.643 682.424 498.381C682.247 498.119 682.134 497.819 682.093 497.506L681.676 493.403L679.459 494.259C679.286 494.327 679.097 494.343 678.916 494.304C678.687 494.281 678.474 494.179 678.311 494.017C678.148 493.855 678.046 493.641 678.023 493.413C677.999 493.184 678.054 492.954 678.18 492.762C678.306 492.57 678.494 492.426 678.713 492.357L680.937 491.506L678.158 488.623C677.958 488.379 677.817 488.092 677.746 487.784C677.676 487.477 677.677 487.157 677.751 486.85C677.825 486.543 677.969 486.258 678.171 486.016C678.374 485.774 678.63 485.583 678.919 485.456C679.297 485.294 679.713 485.247 680.117 485.32C680.337 485.364 680.549 485.443 680.745 485.553L685.264 488.123L698.141 480.732L686.811 467.657C686.454 467.251 686.234 466.743 686.18 466.205C686.126 465.667 686.242 465.126 686.511 464.657C686.78 464.188 687.189 463.815 687.681 463.59C688.172 463.366 688.722 463.3 689.252 463.403C689.607 463.47 689.945 463.609 690.244 463.811L696.681 468.291L697.395 467.486C697.547 467.317 697.739 467.189 697.954 467.116C698.169 467.043 698.4 467.026 698.623 467.069C698.853 467.111 699.067 467.218 699.241 467.375C699.5 467.605 699.657 467.929 699.678 468.275C699.699 468.621 699.581 468.961 699.352 469.22L698.854 469.779L701.464 471.542L702.36 470.529C702.512 470.36 702.705 470.233 702.919 470.16C703.134 470.087 703.364 470.07 703.587 470.111C703.818 470.154 704.032 470.26 704.205 470.417C704.334 470.531 704.44 470.669 704.515 470.823C704.591 470.977 704.635 471.145 704.646 471.317C704.656 471.488 704.632 471.66 704.576 471.823C704.519 471.985 704.431 472.134 704.316 472.262L703.632 473.037L708.382 476.307L720.927 470.853C720.927 470.853 725.07 469.187 727.565 469.646C727.91 469.685 728.24 469.807 728.527 470.002C728.814 470.196 729.05 470.456 729.216 470.761C731.008 474.315 723.746 477.786 723.746 477.786L711.338 483.171L710.6 488.103L712.52 488.314L712.619 488.331C712.961 488.382 713.268 488.566 713.474 488.844C713.68 489.121 713.766 489.469 713.716 489.811C713.665 490.153 713.48 490.46 713.203 490.666C712.925 490.872 712.577 490.959 712.235 490.908L710.212 490.687L709.749 493.784L710.907 493.902L711.006 493.919C711.334 493.986 711.624 494.177 711.815 494.451C712.007 494.726 712.086 495.064 712.036 495.395C711.987 495.726 711.812 496.025 711.548 496.232C711.284 496.438 710.951 496.535 710.618 496.503L709.361 496.368L708.077 504.953C708.008 505.386 707.832 505.794 707.565 506.141C707.297 506.487 706.947 506.761 706.546 506.936C706.074 507.144 705.549 507.204 705.042 507.107" fill="#21B55C"/>
<path d="M729.239 470.726C727.867 468.009 720.931 470.846 720.931 470.846L708.387 476.3L703.637 473.03L704.321 472.256C704.533 471.994 704.636 471.66 704.608 471.324C704.58 470.989 704.424 470.676 704.172 470.453C703.92 470.229 703.591 470.112 703.254 470.125C702.918 470.137 702.599 470.28 702.365 470.522L701.468 471.535L698.858 469.772L699.356 469.213C699.568 468.952 699.671 468.618 699.644 468.282C699.616 467.946 699.46 467.634 699.208 467.411C698.955 467.187 698.627 467.07 698.29 467.082C697.953 467.095 697.635 467.237 697.4 467.479L696.686 468.284L690.225 463.839C689.704 463.485 689.071 463.332 688.446 463.409C687.82 463.486 687.244 463.788 686.824 464.258C686.404 464.728 686.169 465.335 686.164 465.965C686.158 466.596 686.381 467.207 686.792 467.685L698.109 480.781L685.231 488.172L680.712 485.601C680.297 485.366 679.814 485.284 679.345 485.368C678.875 485.452 678.451 485.697 678.143 486.062C677.836 486.426 677.666 486.886 677.663 487.363C677.66 487.84 677.823 488.302 678.125 488.671L680.904 491.554L678.713 492.357C678.463 492.454 678.262 492.647 678.154 492.893C678.046 493.139 678.041 493.418 678.138 493.668C678.236 493.918 678.429 494.119 678.675 494.227C678.921 494.335 679.2 494.34 679.45 494.242L681.672 493.35L682.088 497.453C682.149 497.928 682.374 498.366 682.725 498.692C683.076 499.018 683.53 499.21 684.008 499.234C684.487 499.259 684.958 499.115 685.341 498.827C685.723 498.539 685.993 498.126 686.102 497.66L687.307 492.601L701.125 487.615L702.969 504.832C703.036 505.462 703.329 506.046 703.796 506.474C704.262 506.903 704.869 507.146 705.502 507.159C706.135 507.172 706.751 506.954 707.235 506.545C707.718 506.136 708.036 505.564 708.128 504.938L709.412 496.352L710.669 496.487C710.84 496.506 711.012 496.491 711.177 496.443C711.342 496.395 711.496 496.316 711.631 496.208C711.765 496.101 711.876 495.968 711.959 495.818C712.042 495.667 712.095 495.502 712.114 495.331C712.132 495.16 712.118 494.987 712.07 494.822C712.022 494.657 711.942 494.503 711.835 494.369C711.727 494.235 711.595 494.123 711.444 494.04C711.294 493.958 711.128 493.905 710.958 493.886L709.8 493.768L710.263 490.672L712.254 490.88C712.431 490.913 712.613 490.909 712.788 490.869C712.964 490.828 713.129 490.752 713.274 490.644C713.418 490.537 713.539 490.401 713.628 490.245C713.718 490.088 713.774 489.915 713.794 489.736C713.814 489.557 713.796 489.376 713.742 489.204C713.689 489.033 713.6 488.874 713.482 488.737C713.365 488.601 713.22 488.491 713.057 488.413C712.895 488.336 712.718 488.293 712.538 488.286L710.619 488.076L711.356 483.143L723.764 477.758C723.764 477.758 731.032 474.28 729.239 470.726Z" fill="#21B55C"/>
<path d="M678.96 494.48L685.604 491.817C686.091 491.621 686.328 491.068 686.132 490.581L686.076 490.442C685.881 489.955 685.328 489.719 684.841 489.914L678.197 492.578C677.71 492.773 677.473 493.326 677.669 493.813L677.725 493.952C677.92 494.439 678.473 494.676 678.96 494.48Z" fill="#89FFA3"/>
<path d="M698.123 480.76L701.001 479.476L690.605 469.647C690.605 469.647 688.941 470.132 689.097 470.317L698.123 480.76Z" fill="#89FFA3"/>
<path d="M701.092 487.604L704.012 486.318L703.981 498.868L702.378 499.575L701.092 487.604Z" fill="#89FFA3"/>
</g>
</g>
<g clip-path="url(#clip2_0_1)">
<path d="M9.00399 0C6.61598 0 4.32578 0.982606 2.63721 2.73166C0.94863 4.48072 0 6.85294 0 9.32648C0 16.8753 9.00399 26.4581 9.00399 26.4581C9.00399 26.4581 18 16.8753 18 9.32648C18 6.85438 17.0525 4.4834 15.3656 2.73458C13.6788 0.985765 11.3906 0.00219158 9.00399 0ZM9.00399 13.6094C8.18395 13.611 7.38188 13.3605 6.69938 12.8896C6.01688 12.4187 5.48465 11.7486 5.1701 10.9642C4.85555 10.1797 4.77284 9.31626 4.93244 8.48308C5.09203 7.6499 5.48676 6.88453 6.06662 6.28391C6.64648 5.68328 7.38539 5.27441 8.18975 5.1091C8.99412 4.94378 9.82776 5.02946 10.5851 5.35528C11.3424 5.68109 11.9893 6.23238 12.4439 6.93932C12.8985 7.64627 13.1404 8.47706 13.1388 9.32648C13.1388 10.4624 12.7032 11.5517 11.9277 12.3549C11.1523 13.1581 10.1006 13.6094 9.00399 13.6094Z" fill="#A2E62E"/>
<path d="M14.5438 34.3272C14.5438 35.9147 12.0613 37.2045 9.00409 37.2045C5.94688 37.2045 3.4165 35.9147 3.4165 34.3272C3.4165 32.7397 5.89899 31.4581 9.00409 31.4581C12.1092 31.4581 14.5438 32.748 14.5438 34.3272Z" fill="#A2E62E"/>
</g>
<path d="M20 38.9994C76.527 76.9767 145.596 89.4814 212.251 89.4814C295.569 89.4814 413.448 53.9659 475.59 45.9847C508.763 41.7243 591.5 14.5 669.5 60.9999C704.956 82.1371 720.5 89.4814 748 140.5C748 140.5 759 175 759 216.5C759 258 734 310.5 734 310.5C734 310.5 708.231 338.998 682 351C655.769 363.002 624.558 372.5 577.5 372.5C461.012 372.5 422.059 368.502 321.5 351C272.174 342.415 167 315 117 328.5C76.4702 339.443 58.261 351.281 45.6893 382C38.9843 398.383 36.8695 417.434 40 439C43.2177 461.166 69 485.18 80 492.5C114.794 514.494 186.003 530.323 252.5 534.5C356 541 483.914 553.488 682 492.5" stroke="#9E9E9E" stroke-width="2" stroke-linecap="round" stroke-linejoin="round" stroke-dasharray="4 12"/>
<defs>
<clipPath id="clip0_0_1">
<rect width="60" height="60" fill="white" transform="translate(677.702 445) rotate(9.30554)"/>
</clipPath>
<clipPath id="clip1_0_1">
<rect width="40.675" height="49.5" fill="white" transform="translate(703.208 512.606) rotate(-145.957)"/>
</clipPath>
<clipPath id="clip2_0_1">
<rect width="18" height="37" fill="white"/>
</clipPath>
</defs>
</svg>
