<svg width="918" height="545" viewBox="0 0 918 545" fill="none" xmlns="http://www.w3.org/2000/svg">
<path d="M15 34C91 75 183.863 88.5 273.48 88.5C385.5 88.5 558.846 54.5 643.066 54.5C727.286 54.5 828.678 106.02 828.678 207.5C828.678 308.98 767.5 387 658.117 387C501.5 387 399.819 341 255.5 341C111.181 341 1.5 374 1.5 444.5C1.5 515 134.067 543.479 273.48 543.479C412.892 543.479 652.061 549.478 894.5 460.995" stroke="#9E9E9E" stroke-width="2" stroke-linecap="round" stroke-linejoin="round" stroke-dasharray="4 12"/>
<g clip-path="url(#clip0_0_1)">
<path d="M15.004 0C12.616 0 10.3258 0.982606 8.63721 2.73166C6.94863 4.48072 6 6.85294 6 9.32648C6 16.8753 15.004 26.4581 15.004 26.4581C15.004 26.4581 24 16.8753 24 9.32648C24 6.85438 23.0525 4.4834 21.3656 2.73458C19.6788 0.985765 17.3906 0.00219158 15.004 0ZM15.004 13.6094C14.1839 13.611 13.3819 13.3605 12.6994 12.8896C12.0169 12.4187 11.4846 11.7486 11.1701 10.9642C10.8556 10.1797 10.7728 9.31626 10.9324 8.48308C11.092 7.6499 11.4868 6.88453 12.0666 6.28391C12.6465 5.68328 13.3854 5.27441 14.1898 5.1091C14.9941 4.94378 15.8278 5.02946 16.5851 5.35528C17.3424 5.68109 17.9893 6.23238 18.4439 6.93932C18.8985 7.64627 19.1404 8.47706 19.1388 9.32648C19.1388 10.4624 18.7032 11.5517 17.9277 12.3549C17.1523 13.1581 16.1006 13.6094 15.004 13.6094Z" fill="#A2E62E"/>
<path d="M20.5438 34.3272C20.5438 35.9147 18.0613 37.2045 15.0041 37.2045C11.9469 37.2045 9.4165 35.9147 9.4165 34.3272C9.4165 32.7397 11.899 31.4581 15.0041 31.4581C18.1092 31.4581 20.5438 32.748 20.5438 34.3272Z" fill="#A2E62E"/>
</g>
<g clip-path="url(#clip1_0_1)">
<g clip-path="url(#clip2_0_1)">
<path d="M884.326 487.431C883.776 487.323 883.276 487.041 882.901 486.626C882.525 486.212 882.294 485.686 882.242 485.129L880.649 467.903L866.769 472.757L865.496 477.799C865.417 478.106 865.268 478.39 865.06 478.63C864.853 478.87 864.593 479.058 864.301 479.181C864.01 479.303 863.694 479.356 863.379 479.335C863.063 479.314 862.757 479.22 862.484 479.061C862.211 478.902 861.979 478.681 861.805 478.417C861.632 478.153 861.523 477.852 861.486 477.538L861.124 473.43L858.896 474.255C858.722 474.321 858.533 474.335 858.352 474.293C858.124 474.267 857.912 474.163 857.751 473.998C857.591 473.834 857.492 473.619 857.471 473.39C857.45 473.161 857.509 472.932 857.637 472.742C857.765 472.551 857.955 472.41 858.175 472.343L860.41 471.523L857.67 468.602C857.474 468.356 857.337 468.067 857.27 467.759C857.204 467.45 857.21 467.13 857.287 466.825C857.365 466.519 857.513 466.235 857.719 465.996C857.925 465.757 858.183 465.569 858.474 465.447C858.854 465.29 859.271 465.248 859.674 465.327C859.894 465.374 860.104 465.455 860.298 465.568L864.782 468.198L877.758 460.981L866.604 447.755C866.253 447.344 866.039 446.833 865.993 446.295C865.946 445.756 866.069 445.216 866.344 444.751C866.62 444.286 867.034 443.919 867.528 443.7C868.023 443.482 868.573 443.424 869.103 443.534C869.457 443.605 869.792 443.749 870.088 443.956L876.465 448.521L877.19 447.726C877.343 447.559 877.538 447.434 877.754 447.363C877.97 447.293 878.2 447.28 878.423 447.325C878.653 447.371 878.865 447.48 879.036 447.64C879.292 447.873 879.445 448.199 879.461 448.545C879.478 448.891 879.356 449.23 879.123 449.486L878.617 450.038L881.204 451.836L882.113 450.835C882.268 450.669 882.462 450.544 882.678 450.474C882.893 450.404 883.123 450.39 883.346 450.434C883.576 450.479 883.788 450.588 883.96 450.748C884.087 450.863 884.191 451.003 884.264 451.158C884.338 451.313 884.38 451.482 884.388 451.654C884.396 451.825 884.37 451.997 884.311 452.158C884.253 452.32 884.162 452.468 884.046 452.595L883.351 453.36L888.057 456.693L900.674 451.409C900.674 451.409 904.839 449.798 907.328 450.29C907.672 450.335 908 450.461 908.285 450.659C908.569 450.857 908.802 451.121 908.963 451.427C910.708 455.005 903.399 458.378 903.399 458.378L890.92 463.597L890.117 468.519L892.033 468.755L892.132 468.773C892.473 468.829 892.778 469.017 892.98 469.298C893.182 469.578 893.264 469.927 893.209 470.268C893.154 470.609 892.965 470.914 892.685 471.116C892.404 471.318 892.055 471.4 891.714 471.345L889.694 471.097L889.19 474.187L890.345 474.321L890.444 474.339C890.771 474.411 891.059 474.605 891.247 474.882C891.435 475.159 891.509 475.498 891.455 475.829C891.401 476.159 891.222 476.456 890.955 476.659C890.689 476.861 890.355 476.954 890.022 476.918L888.767 476.766L887.367 485.333C887.293 485.765 887.112 486.171 886.84 486.514C886.567 486.857 886.213 487.125 885.81 487.296C885.335 487.497 884.81 487.55 884.304 487.446" fill="#21B55C"/>
<path d="M908.987 451.393C907.651 448.658 900.679 451.402 900.679 451.402L888.062 456.687L883.356 453.353L884.051 452.588C884.266 452.329 884.374 451.997 884.35 451.661C884.327 451.325 884.175 451.01 883.926 450.784C883.677 450.557 883.35 450.435 883.013 450.443C882.676 450.451 882.356 450.589 882.118 450.828L881.208 451.83L878.622 450.031L879.128 449.479C879.343 449.221 879.45 448.888 879.427 448.552C879.404 448.216 879.252 447.902 879.003 447.675C878.754 447.448 878.427 447.326 878.09 447.334C877.753 447.343 877.432 447.481 877.195 447.719L876.469 448.514L870.069 443.983C869.553 443.622 868.922 443.46 868.296 443.529C867.669 443.597 867.089 443.891 866.663 444.356C866.237 444.821 865.994 445.424 865.98 446.055C865.965 446.685 866.181 447.299 866.585 447.782L877.725 461.029L864.749 468.246L860.265 465.616C859.854 465.375 859.371 465.286 858.901 465.364C858.431 465.441 858.002 465.681 857.69 466.041C857.378 466.402 857.202 466.86 857.193 467.336C857.183 467.813 857.34 468.278 857.637 468.65L860.377 471.57L858.175 472.343C857.924 472.438 857.72 472.628 857.609 472.873C857.498 473.117 857.489 473.396 857.583 473.647C857.678 473.899 857.868 474.102 858.113 474.213C858.357 474.324 858.636 474.333 858.887 474.239L861.121 473.377L861.482 477.485C861.536 477.96 861.755 478.402 862.102 478.732C862.449 479.063 862.9 479.261 863.378 479.292C863.856 479.323 864.329 479.185 864.716 478.902C865.102 478.62 865.377 478.21 865.492 477.746L866.765 472.703L880.649 467.903L882.262 485.143C882.32 485.774 882.606 486.362 883.066 486.797C883.527 487.231 884.13 487.483 884.763 487.504C885.396 487.526 886.015 487.316 886.504 486.913C886.993 486.511 887.318 485.943 887.418 485.318L888.818 476.751L890.073 476.902C890.243 476.924 890.416 476.911 890.582 476.865C890.748 476.82 890.903 476.742 891.038 476.637C891.174 476.531 891.287 476.4 891.372 476.25C891.457 476.101 891.512 475.936 891.533 475.766C891.554 475.595 891.542 475.422 891.496 475.257C891.45 475.091 891.373 474.936 891.267 474.8C891.162 474.665 891.03 474.551 890.881 474.467C890.732 474.382 890.567 474.327 890.396 474.306L889.241 474.172L889.745 471.082L891.733 471.317C891.91 471.353 892.092 471.351 892.268 471.313C892.444 471.275 892.61 471.201 892.756 471.095C892.902 470.99 893.024 470.855 893.116 470.7C893.208 470.545 893.266 470.373 893.288 470.194C893.31 470.016 893.295 469.834 893.244 469.662C893.193 469.489 893.106 469.329 892.99 469.191C892.874 469.054 892.731 468.941 892.57 468.862C892.408 468.782 892.232 468.736 892.052 468.728L890.136 468.491L890.94 463.569L903.419 458.351C903.419 458.351 910.732 454.971 908.987 451.393Z" fill="#21B55C"/>
<path d="M858.394 474.47L865.073 471.896C865.563 471.707 865.806 471.157 865.618 470.668L865.564 470.528C865.375 470.038 864.825 469.794 864.336 469.983L857.656 472.558C857.167 472.746 856.923 473.296 857.112 473.786L857.166 473.926C857.354 474.415 857.904 474.659 858.394 474.47Z" fill="#89FFA3"/>
<path d="M877.739 461.008L880.635 459.764L870.372 449.796C870.372 449.796 868.7 450.258 868.854 450.446L877.739 461.008Z" fill="#89FFA3"/>
<path d="M880.616 467.891L883.554 466.645L883.354 479.194L881.741 479.879L880.616 467.891Z" fill="#89FFA3"/>
</g>
</g>
<defs>
<clipPath id="clip0_0_1">
<rect width="18" height="37" fill="white" transform="translate(6)"/>
</clipPath>
<clipPath id="clip1_0_1">
<rect width="60" height="60" fill="white" transform="translate(858 427)"/>
</clipPath>
<clipPath id="clip2_0_1">
<rect width="40.675" height="49.5" fill="white" transform="translate(882.396 492.92) rotate(-145.188)"/>
</clipPath>
</defs>
</svg>
