<svg width="79" height="121" viewBox="0 0 79 121" fill="none" xmlns="http://www.w3.org/2000/svg">
<path d="M36.5176 75.7334H44.9958V119.583H36.5176V75.7334Z" fill="#246A37"/>
<rect x="1.80713" width="76.8915" height="76.8915" rx="38.4458" fill="#246A37"/>
<rect x="4.87402" y="3.06934" width="70.7544" height="70.7544" rx="35.3772" fill="white"/>
<rect x="7.36572" y="5.55908" width="65.7729" height="65.7729" rx="32.8865" fill="#246A37"/>
<path d="M40.3077 53.7179C31.8737 53.7179 25.0366 46.8808 25.0366 38.4469C25.0366 30.0129 31.8737 23.1758 40.3077 23.1758C48.7417 23.1758 55.5788 30.0129 55.5788 38.4469C55.5695 46.877 48.7379 53.7087 40.3077 53.7179ZM40.3077 26.23C33.5605 26.23 28.0908 31.6997 28.0908 38.4469C28.0908 45.194 33.5605 50.6637 40.3077 50.6637C47.0549 50.6637 52.5246 45.194 52.5246 38.4469C52.517 31.7028 47.0518 26.2376 40.3077 26.23ZM40.3077 47.6095C37.8949 47.6503 35.6143 46.51 34.1993 44.5553C33.5122 43.6364 32.995 42.6021 32.6722 41.5011H47.9432C47.9432 41.5011 47.9432 41.5011 47.9432 41.5133C47.6154 42.6086 47.0986 43.6381 46.4161 44.5553C45.0009 46.5098 42.7204 47.6501 40.3077 47.6095ZM34.9628 38.4469C33.6977 38.4469 32.6722 37.4213 32.6722 36.1562C32.6722 34.8911 33.6977 33.8655 34.9628 33.8655C36.2279 33.8655 37.2535 34.8911 37.2535 36.1562C37.2535 37.4213 36.2279 38.4469 34.9628 38.4469ZM45.6419 38.4255C44.3827 38.4255 43.3619 37.4047 43.3619 36.1455C43.3619 34.8863 44.3827 33.8655 45.6419 33.8655C46.9011 33.8655 47.9219 34.8863 47.9219 36.1455C47.9202 37.404 46.9004 38.4238 45.6419 38.4255Z" fill="white"/>
</svg>
