<svg width="24" height="16" viewBox="0 0 24 16" fill="none" xmlns="http://www.w3.org/2000/svg">
<g clip-path="url(#clip0_426_207)">
<path d="M24 0H0V16H24V0Z" fill="#F0F0F0"/>
<path d="M13.5 0H10.5V6.5022H0V9.50249H10.5V16H13.5V9.50249H24V6.5022H13.5V0Z" fill="#D80027"/>
<path d="M18.4595 10.7823L24.0001 13.8623V10.7823H18.4595Z" fill="#0052B4"/>
<path d="M14.6108 10.7823L23.9999 16V14.528L17.264 10.7823H14.6108Z" fill="#0052B4"/>
<path d="M21.4968 15.9997L14.6108 12.1744V15.9997H21.4968Z" fill="#0052B4"/>
<path d="M14.6108 10.7823L23.9999 16V14.528L17.264 10.7823H14.6108Z" fill="#F0F0F0"/>
<path d="M14.6108 10.7823L23.9999 16V14.528L17.264 10.7823H14.6108Z" fill="#D80027"/>
<path d="M4.23281 10.7823L0 13.1357V10.7823H4.23281Z" fill="#0052B4"/>
<path d="M9.38906 11.4478V15.9997H1.19531L9.38906 11.4478Z" fill="#0052B4"/>
<path d="M6.73594 10.7823L0 14.528V16L9.38906 10.7823H6.73594Z" fill="#D80027"/>
<path d="M5.54062 5.21756L0 2.13757V5.21756H5.54062Z" fill="#0052B4"/>
<path d="M9.38906 5.21771L0 0V1.47671L6.73594 5.21771H9.38906Z" fill="#0052B4"/>
<path d="M2.50342 0L9.38936 3.83006V0H2.50342Z" fill="#0052B4"/>
<path d="M9.38906 5.21771L0 0V1.47671L6.73594 5.21771H9.38906Z" fill="#F0F0F0"/>
<path d="M9.38906 5.21771L0 0V1.47671L6.73594 5.21771H9.38906Z" fill="#D80027"/>
<path d="M19.7671 5.21758L23.9999 2.86423V5.21758H19.7671Z" fill="#0052B4"/>
<path d="M14.6108 4.55669V0H22.8046L14.6108 4.55669Z" fill="#0052B4"/>
<path d="M17.264 5.21771L23.9999 1.47671V0L14.6108 5.21771H17.264Z" fill="#D80027"/>
</g>
<defs>
<clipPath id="clip0_426_207">
<rect width="24" height="16" rx="1" fill="white"/>
</clipPath>
</defs>
</svg>
