<svg width="250" height="250" viewBox="0 0 250 250" fill="none" xmlns="http://www.w3.org/2000/svg">
<g clip-path="url(#clip0_467_1537)">
<path d="M64.4276 66.5367C89.072 41.8148 82.0144 26.3352 98.8899 14.8815C124.843 -2.72435 173.278 12.415 201.85 36.6266C236.853 66.2816 254.895 120.432 234.32 169.45C212.408 221.616 154.781 248.719 103.358 240.554C57.4554 233.268 12.293 197.234 7.7682 153.971C7.28442 149.293 5.12163 123.947 20.2896 102.089C32.8395 84.0292 44.9055 86.1271 64.4276 66.5367Z" fill="#DEE7FF"/>
<path d="M59.0226 54.5372C72.3507 52.0851 84.6803 58.2615 86.5379 68.301C87.3738 72.7887 85.9574 77.2995 82.9621 81.1395L88.976 90.3462L76.3677 86.9226C73.3027 88.7963 69.7037 90.1843 65.7563 90.9245C52.4282 93.3765 40.0986 87.2002 38.241 77.1607C36.3602 67.1212 45.6713 56.9892 59.0226 54.5372Z" fill="#FEA95D"/>
<path d="M50.4095 55.8467C50.2934 55.8467 50.1773 55.8004 50.1309 55.6847C50.0148 55.5228 50.0612 55.3146 50.2238 55.199C50.5256 54.9908 50.8275 54.8057 51.1293 54.6206C51.2919 54.5281 51.5009 54.5744 51.617 54.7363C51.7098 54.8982 51.6634 55.1064 51.5009 55.2221C51.199 55.4071 50.9204 55.5922 50.6185 55.7773C50.5489 55.8235 50.4792 55.8467 50.4095 55.8467Z" fill="black"/>
<path d="M62.8786 88.1395C51.7796 88.1395 42.4453 82.287 40.8199 73.5661C39.7518 67.7367 42.2596 61.7223 47.7394 57.0727C47.8787 56.957 48.1109 56.957 48.227 57.1189C48.3431 57.2577 48.3431 57.489 48.1806 57.6047C42.9097 62.0924 40.4717 67.8755 41.4933 73.4504C43.3045 83.2817 55.4716 89.3424 68.5907 86.9366C69.5659 86.7516 70.5644 86.5203 71.4931 86.2658C71.6789 86.2195 71.8647 86.3121 71.9343 86.4971C71.9808 86.6822 71.8879 86.8672 71.7021 86.9366C70.7269 87.2142 69.7284 87.4456 68.73 87.6306C66.7796 87.9545 64.8059 88.1395 62.8786 88.1395Z" fill="black"/>
<path d="M91.9035 87.0293C91.8803 87.0293 91.8338 87.0293 91.8106 87.0061L79.3416 83.6288C78.4361 84.184 77.4841 84.6929 76.5088 85.1324C76.3231 85.2249 76.1373 85.1324 76.0444 84.9705C75.9516 84.7854 76.0444 84.6004 76.207 84.5078C77.2054 84.0452 78.1806 83.5131 79.1094 82.958C79.2023 82.9117 79.2952 82.8886 79.3881 82.9117L91.114 86.0808L85.6109 77.6606C85.5413 77.545 85.5413 77.383 85.6342 77.2674C88.6759 73.3811 89.9298 68.9166 89.1403 64.7065C88.258 59.9643 84.984 55.9393 79.8757 53.3947C74.7441 50.827 68.4052 50.0636 62.043 51.2202C60.5337 51.4978 59.0476 51.8679 57.6312 52.3537C57.4455 52.4231 57.2597 52.3075 57.1901 52.1455C57.1204 51.9605 57.2365 51.7754 57.399 51.706C58.8619 51.2202 60.3712 50.827 61.9037 50.5494C68.4284 49.3465 74.9299 50.133 80.1775 52.7701C85.4716 55.4072 88.8849 59.6173 89.8137 64.5677C90.6264 68.9166 89.3725 73.4968 86.3308 77.4756L92.2053 86.4741C92.275 86.5897 92.275 86.7517 92.2053 86.8673C92.1357 86.9599 92.0196 87.0293 91.9035 87.0293Z" fill="black"/>
<path d="M65.944 67.436C65.7582 67.436 65.5957 67.2741 65.5957 67.0891C65.5957 66.904 65.7582 66.7421 65.944 66.7421L82.7318 66.6958C82.9176 66.6958 83.0801 66.8577 83.0801 67.0428C83.0801 67.2278 82.9176 67.3898 82.7318 67.3898L65.944 67.436Z" fill="white"/>
<path d="M46.6945 66.9503C46.5087 66.9503 46.3462 66.7884 46.3462 66.6033C46.3462 66.4183 46.5087 66.2563 46.6945 66.2563L62.7161 66.1638C62.9018 66.1638 63.0644 66.3257 63.0644 66.5108C63.0644 66.6959 62.9018 66.8578 62.7161 66.8578L46.6945 66.9503Z" fill="white"/>
<path d="M81.9884 71.785L60.069 71.5074C59.8832 71.5074 59.7207 71.3455 59.7207 71.1605C59.7207 70.9754 59.8832 70.8135 60.069 70.8135L81.9884 71.0911C82.1741 71.0911 82.3367 71.253 82.3367 71.4381C82.3367 71.6231 82.1741 71.785 81.9884 71.785Z" fill="white"/>
<path d="M55.8199 71.4612L45.9748 71.3456C45.789 71.3456 45.6265 71.1837 45.6265 70.9986C45.6265 70.8135 45.789 70.6516 45.9748 70.6516L55.8199 70.7673C56.0057 70.7673 56.1682 70.9292 56.1682 71.1143C56.1682 71.3225 56.0057 71.4612 55.8199 71.4612Z" fill="white"/>
<path d="M82.6152 75.4861L74.5812 75.4398C74.3954 75.4398 74.2329 75.2779 74.2329 75.0928C74.2329 74.9078 74.3954 74.7458 74.5812 74.7458L82.6152 74.7921C82.801 74.7921 82.9635 74.954 82.9635 75.1391C82.9635 75.3473 82.801 75.4861 82.6152 75.4861Z" fill="white"/>
<path d="M72.6779 75.4863L46.6022 75.0468C46.4164 75.0468 46.2539 74.8848 46.2539 74.6998C46.2539 74.5147 46.4164 74.3528 46.6022 74.3528L72.6779 74.7692C72.8637 74.7692 73.0262 74.9311 73.0262 75.1162C73.0262 75.3243 72.8637 75.4863 72.6779 75.4863Z" fill="white"/>
<path d="M207.143 229.696H101.28C96.7271 229.696 93.4829 226.039 94.0521 221.502L120.119 16.7244C120.689 12.2166 124.872 8.53104 129.425 8.53104L229.966 7.36865C241.52 7.36865 243.085 12.1883 242.488 16.7244L216.449 221.502C215.88 226.039 211.725 229.696 207.143 229.696Z" fill="#67B297"/>
<path d="M200.797 229.696H94.9342C90.3809 229.696 87.1368 226.01 87.7059 221.474L113.773 15.6754C114.342 11.1392 118.526 7.45361 123.079 7.45361H228.942C233.495 7.45361 236.739 11.1392 236.17 15.6754L210.103 221.474C209.505 226.01 205.35 229.696 200.797 229.696Z" fill="white"/>
<path d="M93.7392 221.757L118.64 25.2579C118.782 24.2089 119.721 23.3584 120.774 23.3584H227.206C228.259 23.3584 228.999 24.2089 228.885 25.2579L203.984 221.757C203.842 222.806 202.903 223.657 201.85 223.657H95.4182C94.3368 223.657 93.5969 222.806 93.7392 221.757Z" fill="#FFF0DE"/>
<path d="M177.045 16.9048C178.374 15.6616 178.562 13.7099 177.464 12.5456C176.367 11.3813 174.4 11.4453 173.071 12.6886C171.742 13.9318 171.554 15.8835 172.651 17.0478C173.749 18.2121 175.716 18.1481 177.045 16.9048Z" fill="#FFD3AB"/>
<path d="M200.797 230.121H97.9997C97.7721 230.121 97.5729 229.923 97.5729 229.696C97.5729 229.469 97.7721 229.27 97.9997 229.27H200.797C205.151 229.27 209.135 225.755 209.676 221.417L235.743 15.6187C235.999 13.5207 235.43 11.5645 234.15 10.1186C232.869 8.6727 231.019 7.87888 228.942 7.87888H123.079C118.725 7.87888 114.741 11.3944 114.2 15.7321L94.9999 166C94.9714 166.227 94.7722 166.397 94.5161 166.369C94.2885 166.34 94.1177 166.113 94.1462 165.887L113.346 15.6187C113.944 10.8557 118.298 7 123.079 7H228.942C231.247 7 233.324 7.90723 234.776 9.52322C236.227 11.1676 236.882 13.3789 236.569 15.7037L210.501 221.502C209.904 226.265 205.55 230.121 200.797 230.121Z" fill="black"/>
<path d="M201.821 224.082H127.499C127.271 224.082 127.072 223.884 127.072 223.657C127.072 223.43 127.271 223.232 127.499 223.232H201.85C202.703 223.232 203.472 222.551 203.586 221.701L228.486 25.2012C228.543 24.8043 228.429 24.464 228.202 24.1805C227.974 23.9254 227.632 23.7836 227.262 23.7836H120.83C119.977 23.7836 119.208 24.464 119.095 25.3146L100.499 171.5C100.471 171.727 100.243 171.897 100.016 171.868C99.788 171.84 99.6172 171.613 99.6457 171.387L118.241 25.2012C118.412 23.9537 119.55 22.9331 120.802 22.9331H227.234C227.86 22.9331 228.43 23.1883 228.828 23.6419C229.226 24.0955 229.397 24.6909 229.312 25.3146L204.411 221.814C204.24 223.062 203.102 224.082 201.821 224.082Z" fill="black"/>
<path d="M107.541 141.383C107.541 141.355 107.541 141.355 107.541 141.326C107.655 135.769 111.099 130.071 117.843 124.457C122.539 120.517 127.177 118.022 127.376 117.937C128.942 117.115 130.877 117.682 131.702 119.241C132.527 120.8 131.958 122.728 130.393 123.55C125.868 125.96 114.087 133.898 113.944 141.468V141.496C113.916 143.906 114.627 145.777 116.136 147.195C119.75 150.654 127.063 151.022 129.568 150.852C131.332 150.739 132.84 152.071 132.954 153.829C133.068 155.587 131.73 157.089 129.966 157.203C129.482 157.231 118.071 157.826 111.725 151.788C108.85 149.094 107.456 145.607 107.541 141.383Z" fill="black"/>
<path d="M130.165 164.092L130.478 145.267C130.506 143.509 131.958 142.12 133.722 142.148C135.487 142.177 136.881 143.623 136.853 145.38L136.54 164.205C136.511 165.963 135.06 167.352 133.295 167.324C131.531 167.296 130.137 165.85 130.165 164.092Z" fill="#246A37"/>
<path d="M109.505 84.5678H110.074C110.871 84.5678 111.525 83.9157 111.525 83.1219V65.2042C111.525 64.4104 110.871 63.7583 110.074 63.7583H109.505C105.265 63.7583 101.85 67.1888 101.85 71.3847V76.9131C101.85 81.1374 105.293 84.5678 109.505 84.5678Z" fill="#EB7A15"/>
<path d="M198.094 84.5678H196.728V65.7712H198.094C202.675 65.7712 206.403 69.4852 206.403 74.0497V76.261C206.403 80.8539 202.704 84.5678 198.094 84.5678Z" fill="white"/>
<path d="M198.094 84.9931H196.728C196.5 84.9931 196.301 84.7946 196.301 84.5678V65.7712C196.301 65.5444 196.5 65.3459 196.728 65.3459H198.094C202.903 65.3459 206.83 69.2584 206.83 74.0497V76.261C206.83 81.0807 202.931 84.9931 198.094 84.9931ZM197.155 84.1425H198.094C202.448 84.1425 205.976 80.627 205.976 76.2894V74.078C205.976 69.7403 202.448 66.2248 198.094 66.2248H197.155V84.1425Z" fill="black"/>
<path d="M199.773 74.3899C199.773 54.1758 179.34 33.2812 154.127 33.2812C128.913 33.2812 108.48 54.1758 108.48 74.3899C108.48 94.6041 128.913 106.455 154.127 106.455C179.34 106.455 199.773 94.6041 199.773 74.3899Z" fill="white"/>
<path d="M154.126 106.88C141.434 106.88 129.88 103.846 121.599 98.3464C112.72 92.4494 108.025 84.1709 108.025 74.3899C108.025 64.3821 112.948 54.0057 121.542 45.954C130.535 37.5055 142.117 32.856 154.126 32.856C166.136 32.856 177.689 37.5055 186.711 45.954C195.305 54.0057 200.228 64.3537 200.228 74.3899C200.228 84.1709 195.532 92.4494 186.654 98.3464C178.372 103.846 166.819 106.88 154.126 106.88ZM154.126 33.7348C128.23 33.7348 108.907 55.1964 108.907 74.4183C108.907 83.8874 113.46 91.9391 122.083 97.6659C130.222 103.053 141.605 106.029 154.126 106.029C166.648 106.029 178.031 103.053 186.17 97.6376C194.793 91.9107 199.346 83.8591 199.346 74.3899C199.346 55.1964 180.023 33.7348 154.126 33.7348Z" fill="black"/>
<path d="M142.686 112.522H165.566C175.583 112.522 183.722 120.63 183.722 130.61C183.722 137.215 183.068 143.793 181.787 150.257L178.486 166.842C176.181 178.437 165.993 186.801 154.126 186.801C142.259 186.801 132.072 178.437 129.766 166.842L126.465 150.257C125.185 143.793 124.53 137.215 124.53 130.61C124.559 120.602 132.669 112.522 142.686 112.522Z" fill="white"/>
<path d="M154.126 187.198C142.089 187.198 131.673 178.664 129.34 166.899L126.039 150.313C124.758 143.821 124.104 137.187 124.104 130.581C124.104 120.375 132.442 112.068 142.686 112.068H165.566C175.811 112.068 184.149 120.375 184.149 130.581C184.149 137.187 183.495 143.821 182.214 150.313L178.913 166.899C176.58 178.664 166.164 187.198 154.126 187.198ZM142.686 112.947C132.925 112.947 124.957 120.857 124.957 130.61C124.957 137.159 125.612 143.736 126.864 150.172L130.165 166.757C132.413 178.126 142.487 186.376 154.126 186.376C165.737 186.376 175.811 178.126 178.088 166.757L181.389 150.172C182.67 143.736 183.296 137.159 183.296 130.61C183.296 120.885 175.356 112.947 165.566 112.947H142.686Z" fill="black"/>
<path d="M152.675 152.581H155.606C161.668 152.581 166.591 147.677 166.591 141.638V112.522H141.69V141.638C141.69 147.677 146.614 152.581 152.675 152.581Z" fill="#FFD3AB"/>
<path d="M166.591 112.947H141.691C141.463 112.947 141.264 112.749 141.264 112.522C141.264 112.295 141.463 112.096 141.691 112.096H166.591C166.819 112.096 167.018 112.295 167.018 112.522C167.018 112.749 166.819 112.947 166.591 112.947Z" fill="black"/>
<path d="M123.449 68.3228H167.416C171.97 68.3228 175.698 72.2919 175.698 77.1966V82.9801C175.698 86.7224 173.706 90.6916 170.234 91.3153C158.054 93.5833 132.84 93.5833 120.66 91.3153C117.217 90.6632 115.196 86.6941 115.196 82.9801V77.1966C115.168 72.2919 118.867 68.3228 123.449 68.3228Z" fill="black"/>
<path d="M158.509 82.952C160.033 82.952 161.269 81.6192 161.269 79.9751C161.269 78.3311 160.033 76.9983 158.509 76.9983C156.984 76.9983 155.749 78.3311 155.749 79.9751C155.749 81.6192 156.984 82.952 158.509 82.952Z" fill="white"/>
<path d="M129.055 82.952C130.58 82.952 131.816 81.6192 131.816 79.9751C131.816 78.3311 130.58 76.9983 129.055 76.9983C127.531 76.9983 126.295 78.3311 126.295 79.9751C126.295 81.6192 127.531 82.952 129.055 82.952Z" fill="white"/>
<path d="M172.282 97.4673C172.112 97.4673 171.941 97.3539 171.884 97.1838C171.799 96.957 171.941 96.7302 172.169 96.6451L186.198 92.0523C192.601 89.9543 196.5 83.6038 195.475 76.9697L194.451 70.3923C194.422 70.1655 194.565 69.9387 194.821 69.9103C195.049 69.882 195.276 70.0237 195.305 70.2789L196.329 76.8563C197.411 83.9156 193.256 90.6348 186.483 92.8745L172.396 97.439C172.368 97.4673 172.311 97.4673 172.282 97.4673Z" fill="#EB7A15"/>
<path d="M201.48 67.5573C201.281 67.5573 201.11 67.4438 201.082 67.2454C201.053 67.1603 198.72 58.485 192.516 50.0648C186.824 42.325 176.636 33.2244 160.387 33.7914C160.159 33.7914 159.96 33.6213 159.932 33.3945C159.932 33.1677 160.102 32.9692 160.33 32.9409C167.672 32.6857 174.445 34.3017 180.421 37.7889C185.202 40.5673 189.499 44.5364 193.199 49.5545C199.459 58.0881 201.85 66.9052 201.878 66.9902C201.935 67.217 201.793 67.4438 201.565 67.5005C201.537 67.5572 201.508 67.5573 201.48 67.5573Z" fill="#EB7A15"/>
<path d="M189.499 77.3666C188.759 71.4413 192.544 66.083 198.008 65.4026C198.606 65.3175 200.825 65.2608 201.394 65.3175C206.118 65.6294 208.566 69.6268 209.22 74.9001C209.932 80.5986 207.769 85.9002 202.675 86.9208C202.476 86.9492 200.939 87.0909 200.74 87.0909C194.764 87.0909 190.267 83.2919 189.499 77.3666Z" fill="#FFD3AB"/>
<path d="M202.898 86.8881C208.352 86.3083 212.259 81.0293 211.623 75.0971C210.988 69.165 206.051 64.826 200.597 65.4058C195.142 65.9856 191.236 71.2646 191.871 77.1967C192.506 83.1289 197.443 87.4679 202.898 86.8881Z" fill="#EB7A15"/>
<path d="M173.904 99.2535L166.05 99.9907C164.798 100.104 163.659 99.1685 163.546 97.9211L163.517 97.6376C163.403 96.3901 164.342 95.2561 165.595 95.1427L173.449 94.4056C174.701 94.2922 175.839 95.2277 175.953 96.4752L175.982 96.7587C176.095 98.0061 175.156 99.1401 173.904 99.2535Z" fill="#EB7A15"/>
<path d="M130.62 176.708H173.165L156.659 132.169H114.086L130.62 176.708Z" fill="#A4BBF9"/>
<path d="M173.164 177.133H130.62C130.449 177.133 130.279 177.02 130.222 176.85L113.688 132.311C113.631 132.169 113.659 132.027 113.745 131.914C113.83 131.8 113.944 131.744 114.086 131.744H156.659C156.83 131.744 157 131.857 157.057 132.027L173.591 176.566C173.648 176.708 173.62 176.85 173.534 176.963C173.449 177.077 173.307 177.133 173.164 177.133ZM130.905 176.283H172.567L156.346 132.594H114.684L130.905 176.283Z" fill="black"/>
<path d="M183.324 165.651C189.585 165.651 198.036 164.772 203.443 160.633C206.574 158.252 208.395 155.105 208.879 151.277C211.013 134.097 190.182 124.259 189.3 123.834C187.706 123.097 185.8 123.777 185.06 125.365C184.32 126.952 185.003 128.852 186.596 129.589C186.767 129.674 204.098 137.896 202.533 150.484C202.277 152.582 201.309 154.254 199.545 155.587C193.597 160.151 177.86 160.038 173.364 159.386C171.628 159.131 170.774 160.293 170.518 162.022C170.262 163.752 171.599 165.424 173.364 165.623C175.925 165.906 178.884 165.651 183.324 165.651Z" fill="black"/>
<path d="M159.789 169.989H165.908C169.266 169.989 172.026 167.494 172.368 164.177L172.567 162.051C172.738 160.236 172.14 158.422 170.916 157.061C169.693 155.7 167.928 154.935 166.107 154.935H156.346C154.582 154.935 153.159 156.352 153.159 158.11C153.159 159.868 154.582 161.285 156.346 161.285H166.107C166.135 161.285 166.164 161.285 166.192 161.314C166.221 161.342 166.221 161.37 166.221 161.399L166.022 163.525C166.022 163.582 165.965 163.61 165.908 163.61H159.789C158.025 163.61 156.602 165.027 156.602 166.785C156.602 168.543 158.025 169.989 159.789 169.989Z" fill="black"/>
<path d="M77.7461 25.6265L78.5998 28.3198L81.6732 28.0647C81.9863 28.66 82.3278 29.1987 82.7262 29.709L81.1895 32.374L83.2669 34.2735L85.7996 32.5157C86.3403 32.856 86.9379 33.1678 87.5355 33.423V36.4849L90.2959 37.1086L91.605 34.3302C92.2595 34.3585 92.9141 34.3302 93.5686 34.2451L95.1053 36.9101L97.8088 36.0596L97.5527 32.9977C98.1503 32.6858 98.691 32.3456 99.2032 31.9487L101.878 33.4797L103.785 31.4101L102.021 28.8868C102.362 28.3482 102.675 27.7528 102.931 27.1574H106.005L106.631 24.4074L103.842 23.1033C103.87 22.4512 103.842 21.7991 103.756 21.1471L106.431 19.6161L105.578 16.9228L102.504 17.1779C102.191 16.5826 101.85 16.0439 101.451 15.5336L102.988 12.8686L100.911 10.9691L98.3779 12.7269C97.8372 12.3867 97.2396 12.0748 96.642 11.8196V8.75775L93.8816 8.13403L92.5726 10.9124C91.918 10.8841 91.2635 10.9124 90.609 10.9975L89.0723 8.33249L86.3688 9.18301L86.6249 12.2449C86.0273 12.5568 85.4866 12.897 84.9743 13.2939L82.2993 11.7629L80.3926 13.8325L82.157 16.3558C81.8155 16.8944 81.5025 17.4898 81.2464 18.0852H78.1729L77.5469 20.8352L80.3357 22.1393C80.3073 22.7914 80.3357 23.4435 80.4211 24.0955L77.7461 25.6265ZM89.9544 15.7037C93.7962 14.513 97.8657 16.6393 99.0609 20.4383C100.256 24.2657 98.1218 28.3198 94.3085 29.5106C90.4667 30.7013 86.3972 28.575 85.202 24.776C83.9783 20.9486 86.1127 16.8944 89.9544 15.7037Z" fill="#A0BFA8"/>
<path d="M53.7561 20.013L54.3252 21.7991L56.3742 21.629C56.5734 22.0259 56.801 22.3945 57.0856 22.7347L56.0611 24.4924L57.4271 25.7682L59.1061 24.6058C59.4761 24.8326 59.846 25.0311 60.2729 25.2012V27.2425L62.0942 27.6394L62.9764 25.7966C63.4032 25.8249 63.8301 25.7966 64.2854 25.7399L65.3099 27.4976L67.1027 26.9306L66.932 24.8893C67.3304 24.6909 67.7003 24.4641 68.0418 24.1806L69.8062 25.2012L71.0868 23.8404L69.9201 22.1677C70.1477 21.7991 70.3469 21.4305 70.5177 21.0053H72.5666L72.965 19.1908L71.1153 18.3119C71.1437 17.8867 71.1153 17.4614 71.0584 17.0078L72.8227 15.9872L72.2536 14.2011L70.2046 14.3712C70.0054 13.9743 69.7778 13.6057 69.4932 13.2655L70.5177 11.5078L69.1517 10.232L67.4727 11.3943C67.1027 11.1675 66.7328 10.9691 66.3059 10.799V8.75772L64.4846 8.38916L63.6024 10.232C63.1756 10.2036 62.7487 10.232 62.2934 10.2887L61.2689 8.53091L59.4761 9.09793L59.6468 11.1392C59.2484 11.3376 58.8785 11.5645 58.537 11.848L56.7726 10.8273L55.492 12.1882L56.6587 13.8609C56.4311 14.2294 56.2319 14.598 56.0611 15.0233H54.0122L53.6138 16.8377L55.4635 17.7166C55.4351 18.1418 55.4635 18.5671 55.5204 19.0207L53.7561 20.013ZM61.8381 13.4356C64.3708 12.6418 67.0743 14.0593 67.8711 16.5825C68.6679 19.1058 67.245 21.7991 64.7123 22.5929C62.1795 23.3867 59.4761 21.9692 58.6792 19.446C57.8824 16.9228 59.3053 14.2294 61.8381 13.4356Z" fill="#E84A5A"/>
<path d="M203.472 34.9256C203.443 34.9256 203.415 34.9256 203.415 34.9256C203.187 34.8972 203.017 34.6704 203.074 34.4436L203.415 32.2606C203.443 32.0338 203.671 31.8637 203.899 31.9204C204.126 31.9488 204.297 32.1756 204.24 32.4024L203.899 34.5854C203.87 34.7838 203.671 34.9256 203.472 34.9256Z" fill="black"/>
<path d="M202.277 42.5521C202.249 42.5521 202.22 42.5521 202.22 42.5521C201.993 42.5237 201.822 42.2969 201.879 42.0701L202.22 39.8871C202.249 39.6603 202.476 39.4902 202.704 39.5469C202.932 39.5752 203.102 39.802 203.045 40.0288L202.704 42.2119C202.647 42.4103 202.476 42.5521 202.277 42.5521Z" fill="black"/>
<path d="M200.342 37.1937C200.313 37.1937 200.285 37.1937 200.256 37.1937L198.122 36.8251C197.894 36.7968 197.724 36.5699 197.781 36.3431C197.809 36.1163 198.037 35.9462 198.264 36.0029L200.399 36.3715C200.626 36.3998 200.797 36.6267 200.74 36.8535C200.74 37.0519 200.569 37.1937 200.342 37.1937Z" fill="black"/>
<path d="M207.883 38.4695C207.855 38.4695 207.826 38.4695 207.798 38.4695L205.664 38.101C205.436 38.0726 205.265 37.8458 205.322 37.619C205.351 37.3922 205.578 37.2221 205.806 37.2788L207.94 37.6474C208.168 37.6757 208.339 37.9025 208.282 38.1293C208.253 38.3278 208.082 38.4695 207.883 38.4695Z" fill="black"/>
<path d="M192.373 185.61C192.345 185.61 192.316 185.61 192.316 185.61C192.089 185.582 191.918 185.355 191.975 185.128L192.316 182.945C192.345 182.718 192.573 182.548 192.8 182.605C193.028 182.633 193.199 182.86 193.142 183.087L192.8 185.27C192.772 185.468 192.573 185.61 192.373 185.61Z" fill="black"/>
<path d="M191.178 193.237C191.15 193.237 191.122 193.237 191.122 193.237C190.894 193.208 190.723 192.981 190.78 192.755L191.122 190.572C191.15 190.345 191.378 190.175 191.605 190.231C191.833 190.26 192.004 190.487 191.947 190.713L191.605 192.896C191.548 193.095 191.378 193.237 191.178 193.237Z" fill="black"/>
<path d="M189.272 187.878C189.243 187.878 189.215 187.878 189.186 187.878L187.023 187.51C186.796 187.481 186.625 187.255 186.682 187.028C186.71 186.801 186.938 186.631 187.166 186.688L189.328 187.056C189.556 187.084 189.727 187.311 189.67 187.538C189.642 187.736 189.471 187.878 189.272 187.878Z" fill="black"/>
<path d="M196.784 189.182C196.756 189.182 196.727 189.182 196.699 189.182L194.536 188.814C194.308 188.786 194.138 188.559 194.195 188.332C194.223 188.105 194.451 187.935 194.678 187.992L196.841 188.36C197.069 188.389 197.24 188.615 197.183 188.842C197.154 189.041 196.983 189.182 196.784 189.182Z" fill="black"/>
<path d="M150.854 201.473C151.465 201.397 152.179 201.448 152.943 201.676L161.986 203.656C161.986 203.656 159.999 206.092 157.91 206.244C159.031 207.995 159.693 209.544 159.693 209.544C159.693 209.544 163.693 210.533 164.534 210.889C165.349 211.244 166.546 211.65 167.132 212.513C167.718 213.376 167.641 214.67 167.641 214.67L158.038 214.061L149.402 206.904L133.608 214.721L134.321 205.026L150.854 201.473Z" fill="white"/>
<path d="M133.583 215.101C133.506 215.101 133.43 215.076 133.379 215.025C133.277 214.949 133.201 214.822 133.201 214.67L133.914 204.975C133.914 204.798 134.041 204.671 134.22 204.62L150.778 201.093H150.803C151.517 200.991 152.281 201.067 153.045 201.321L162.063 203.3C162.19 203.326 162.292 203.427 162.343 203.554C162.394 203.681 162.369 203.808 162.267 203.91C162.19 204.011 160.509 206.041 158.522 206.549C159.261 207.767 159.77 208.833 159.949 209.239C160.764 209.442 163.897 210.229 164.661 210.559C164.763 210.609 164.891 210.66 165.018 210.711C165.833 211.066 166.852 211.498 167.412 212.31C168.049 213.274 167.998 214.645 167.998 214.695C167.998 214.797 167.947 214.898 167.871 214.949C167.795 215.025 167.693 215.051 167.591 215.051L157.987 214.442C157.911 214.442 157.834 214.416 157.758 214.366L149.326 207.336L133.736 215.025C133.71 215.076 133.659 215.101 133.583 215.101ZM158.165 213.706L167.234 214.264C167.209 213.858 167.107 213.198 166.801 212.716C166.368 212.081 165.476 211.701 164.738 211.396C164.61 211.345 164.483 211.295 164.381 211.244C163.719 210.965 160.713 210.178 159.617 209.899C159.49 209.874 159.414 209.797 159.363 209.67C159.363 209.645 158.726 208.122 157.63 206.447C157.554 206.346 157.554 206.194 157.605 206.067C157.656 205.94 157.783 205.864 157.911 205.864C159.261 205.762 160.611 204.569 161.299 203.884L152.892 202.032C152.867 202.032 152.867 202.032 152.841 202.032C152.204 201.803 151.568 201.752 150.956 201.829L134.704 205.305L134.067 214.061L149.275 206.549C149.402 206.473 149.581 206.498 149.682 206.6L158.165 213.706Z" fill="black"/>
<path d="M150.396 209.696L144.664 200.813C144.206 200.103 140.436 201.219 139.748 201.27C137.251 201.423 134.653 201.016 132.156 200.737C126.832 200.154 121.559 199.291 116.311 198.174C112.032 197.26 107.752 196.144 103.957 193.987C98.9636 191.119 96.3652 186.678 94.3528 181.475C92.8498 177.541 91.0411 174.268 88.7994 170.664C85.4623 165.334 79.9344 160.969 75.349 158.711C68.2163 155.183 59.9117 153.483 52.0147 155.056C36.7557 158.076 26.3368 166.933 26.3368 166.933C18.0322 173.532 2.69674 196.55 8.17369 207.64C14.8734 221.243 32.9346 213.274 32.9346 213.274C32.9346 213.274 34.6923 216.117 30.9221 224.796C26.3368 235.328 32.9855 236.749 32.9855 236.749C48.3974 244.261 89.2579 242.586 85.7934 234.186C82.0742 225.202 81.9978 213.833 81.9978 213.833C87.1436 218.908 98.3267 219.974 98.3267 219.974C98.3267 219.974 107.752 220.862 113.739 219.847C147.212 214.873 150.396 209.696 150.396 209.696Z" fill="#1E9E70"/>
<path d="M33.1636 206.6C33.0108 206.6 32.8579 206.498 32.807 206.346C27.7121 191.626 30.0812 179.749 30.1067 179.622C30.1577 179.419 30.3614 179.293 30.5652 179.318C30.769 179.369 30.8964 179.572 30.8709 179.775C30.8455 179.902 28.5273 191.601 33.5457 206.092C33.6221 206.295 33.5202 206.498 33.3164 206.574C33.24 206.6 33.1891 206.6 33.1636 206.6Z" fill="black"/>
<path d="M81.6664 214.264C81.5645 214.264 81.4626 214.239 81.4117 214.163C73.4383 206.397 67.8849 188.353 67.6302 187.591C67.5792 187.388 67.6811 187.185 67.8849 187.109C68.0887 187.058 68.2925 187.16 68.3689 187.363C68.4199 187.541 74.1006 205.991 81.9466 213.604C82.0995 213.757 82.0995 213.985 81.9466 214.137C81.8702 214.213 81.7683 214.264 81.6664 214.264Z" fill="black"/>
<path d="M60.7016 119.019C63.784 119.044 66.6371 120.694 68.1655 123.358C68.8788 124.577 69.5411 125.744 69.6685 126.049C69.9742 126.785 70.6365 129.272 73.0565 131.657C73.2858 131.886 73.3368 132.266 73.133 132.52L71.579 134.5C71.4771 134.626 71.4262 134.804 71.4517 134.982C71.63 136.048 72.5725 139.854 72.2923 140.565C71.7064 142.037 68.191 142.418 67.1465 142.519C66.9427 142.545 66.7644 142.646 66.688 142.824C66.3568 143.433 65.4652 145.159 64.7265 149.498C63.6056 156.097 69.9487 157.137 68.6495 157.772C59.6571 162.289 43.1244 161.274 44.067 159.396C44.8567 157.848 53.9255 153.838 54.7916 142.976C55.3265 136.2 45.7992 135.642 52.6517 122.724C54.2566 119.729 57.7211 118.993 60.7016 119.019Z" fill="white"/>
<path d="M52.0152 161.35C47.8884 161.35 44.6532 160.817 43.9145 160.081C43.6597 159.827 43.5833 159.497 43.7361 159.193C43.9654 158.761 44.5768 158.279 45.5193 157.543C48.3979 155.284 53.773 151.097 54.4098 142.925C54.5881 140.59 53.4927 138.991 52.3209 137.316C50.232 134.322 47.863 130.921 52.3209 122.521C53.6711 119.958 56.5496 118.613 60.6255 118.613C60.651 118.613 60.6765 118.613 60.7019 118.613C63.8862 118.638 66.8921 120.364 68.497 123.13C69.8471 125.439 69.9745 125.769 70.0255 125.871C70.0764 125.972 70.1019 126.099 70.1783 126.251C70.535 127.241 71.2737 129.322 73.3371 131.353C73.7192 131.733 73.7702 132.317 73.439 132.723L71.8851 134.702C71.8341 134.753 71.8341 134.829 71.8341 134.88C71.8851 135.109 71.9615 135.489 72.0379 135.946C72.5984 138.636 72.8531 140.108 72.6493 140.666C72.0125 142.291 68.6244 142.747 67.1978 142.849C67.1214 142.849 67.0705 142.9 67.045 142.95C66.077 144.676 65.4656 147.468 65.1344 149.524C64.4212 153.812 66.9686 155.589 68.3187 156.553C68.9046 156.959 69.2612 157.213 69.2358 157.594C69.2358 157.746 69.1593 157.949 68.8537 158.101C64.1155 160.487 57.3393 161.35 52.0152 161.35ZM44.4239 159.523C44.4749 159.573 44.6023 159.7 45.0863 159.853C48.3215 160.969 60.6765 161.223 68.3187 157.492C68.1913 157.391 68.013 157.289 67.8856 157.162C66.4846 156.198 63.5805 154.168 64.3702 149.397C64.8797 146.351 65.5675 144.067 66.3827 142.595C66.5355 142.316 66.8157 142.138 67.1469 142.113C69.1084 141.961 71.5539 141.402 71.9615 140.413C72.1398 139.981 71.5539 137.291 71.3246 136.149C71.2228 135.692 71.1463 135.312 71.0954 135.058C71.0444 134.779 71.1209 134.499 71.2992 134.271L72.8531 132.292C72.9295 132.19 72.9295 132.038 72.8276 131.936C70.6623 129.804 69.8726 127.622 69.4905 126.556C69.4396 126.404 69.3886 126.302 69.3631 126.201C69.3122 126.048 69.032 125.515 67.8856 123.536C66.4081 120.998 63.6569 119.399 60.7529 119.399C60.7274 119.399 60.7019 119.399 60.6765 119.399C58.0271 119.399 54.5881 120.008 53.0342 122.902C48.78 130.896 50.9199 133.941 52.9833 136.91C54.1805 138.611 55.4033 140.387 55.1995 143.001C54.5372 151.528 49.0093 155.843 46.0288 158.178C45.2391 158.736 44.6023 159.243 44.4239 159.523Z" fill="black"/>
<path d="M65.949 129.475L69.5409 124.983C71.375 122.673 70.7382 119.298 68.1908 117.801C67.4775 117.394 66.6623 116.963 65.7198 116.557C56.4981 112.598 45.9009 119.12 45.9009 129.145C45.9009 133.231 48.6521 138.002 54.4857 142.215C54.4857 142.215 58.587 138.992 58.5361 135.489C58.5361 135.489 55.5556 131.962 59.7588 130.185C60.574 129.855 61.4911 129.881 62.2553 130.261C63.5545 130.896 65.0829 130.566 65.949 129.475Z" fill="black"/>
<path d="M60.4723 137.494C59.275 137.494 57.7466 136.987 56.6257 134.855C56.5238 134.677 56.6002 134.449 56.7786 134.347C56.9569 134.246 57.1861 134.322 57.288 134.499C59.0712 137.875 61.8989 136.479 62.0008 136.403C62.1791 136.301 62.4083 136.378 62.5102 136.555C62.6121 136.733 62.5357 136.961 62.3574 137.063C62.3574 137.088 61.5422 137.494 60.4723 137.494Z" fill="black"/>
<path d="M50.7159 119.653C50.7159 119.653 47.608 108.918 36.2211 110.923C29.1138 112.192 22.9236 116.938 19.51 124.703C16.9881 130.439 17.09 135.515 16.5295 141.529C16.0455 146.91 11.2309 150.513 10.1355 155.614C8.81087 161.857 14.8992 166.375 20.7837 165.207C27.3561 163.913 33.4444 157.061 36.1446 151.325C38.9213 145.412 39.3799 138.814 40.7809 132.52C41.3923 129.779 41.8508 126.023 44.0416 124.12C45.1625 123.155 48.8562 123.054 49.4931 121.861C49.4931 121.912 50.7159 119.653 50.7159 119.653Z" fill="black"/>
</g>
<defs>
<clipPath id="clip0_467_1537">
<rect width="236" height="235" fill="white" transform="translate(7 7)"/>
</clipPath>
</defs>
</svg>
