<svg width="250" height="250" viewBox="0 0 250 250" fill="none" xmlns="http://www.w3.org/2000/svg">
<path d="M185.956 59.5367C161.311 34.8148 168.369 19.3352 151.493 7.88151C125.54 -9.72435 77.1049 5.41499 48.5333 29.6266C13.5303 59.2816 -4.51189 113.432 16.0631 162.45C37.9755 214.616 95.6024 241.719 147.026 233.554C192.928 226.268 238.09 190.234 242.615 146.971C243.099 142.293 245.262 116.947 230.094 95.0887C217.544 77.0292 205.478 79.1271 185.956 59.5367Z" fill="#DEE7FF"/>
<g clip-path="url(#clip0_467_1630)">
<path d="M178.222 137.936L140.798 131.271C140.552 131.217 140.471 131.434 140.471 131.651V163.346C140.471 166.38 119.198 170.336 119.008 169.902L118.98 173.261C118.98 173.884 119.525 174.535 120.233 174.67L120.696 174.751L152.101 180.521C153.545 180.792 154.988 180.738 156.323 180.413L173.564 176.35C176.669 175.618 178.63 173.18 178.63 170.146V138.45C178.63 138.234 178.467 137.99 178.222 137.936Z" fill="white"/>
<path d="M136.685 128.671V160.366C136.685 163.482 134.669 165.974 131.482 166.733L119.852 169.523C119.089 169.712 119.362 170.769 120.206 170.932L152.183 176.81C153.626 177.081 155.043 177.054 156.35 176.756L169.233 173.722C172.42 172.963 174.463 170.498 174.463 167.356V135.633C174.463 135.497 174.354 135.389 174.19 135.362L136.93 128.508C136.794 128.454 136.685 128.535 136.685 128.671Z" fill="#A0BFA8"/>
<path d="M224.443 157.766L221.774 159.201L91.6886 136.717C89.8909 136.391 88.6107 134.82 88.5835 133.032L89.8092 24.59L93.1321 23.4793C94.7119 22.9646 96.3734 22.8291 98.0076 23.1271L223.926 45.9371C225.724 46.2622 227.058 47.8334 227.058 49.6756V152.727C227.058 153.892 227.085 155.219 225.941 156.547C225.533 157.034 225.015 157.441 224.443 157.766Z" fill="#67B297"/>
<path d="M90.7158 136.143L90.7141 136.143C89.1285 135.861 87.9941 134.498 87.9941 132.897V28.0576C87.9941 25.9907 89.8852 24.4335 91.9246 24.8108L91.9263 24.8112L220.105 48.0546L220.107 48.0549C221.692 48.3373 222.827 49.7005 222.827 51.3011V156.14C222.827 158.206 220.936 159.767 218.892 159.414C218.892 159.413 218.891 159.413 218.891 159.413L90.7158 136.143Z" fill="white" stroke="black"/>
<path d="M223.245 49.2422C223.109 49.2422 222.946 49.161 222.891 49.0255C222.782 48.8359 222.864 48.5921 223.055 48.4837L225.179 47.373C225.37 47.2646 225.615 47.3459 225.724 47.5355C225.833 47.7252 225.751 47.969 225.56 48.0773L223.436 49.188C223.354 49.2422 223.3 49.2422 223.245 49.2422Z" fill="#FFF0DE"/>
<path d="M168.09 146.198L92.6148 132.49C92.0428 132.382 91.6343 131.894 91.6343 131.325V29.8454C91.6343 29.0868 92.3152 28.545 93.0506 28.6805L168.525 42.3611C169.097 42.4694 169.506 42.957 169.506 43.5259V144.979C169.506 145.765 168.825 146.306 168.09 146.198Z" fill="white"/>
<path d="M168.307 146.604C168.198 146.604 168.117 146.604 168.008 146.577L92.5329 132.87C91.7702 132.734 91.1982 132.057 91.1982 131.298V29.8454C91.1982 29.3578 91.4161 28.9244 91.7702 28.6264C92.1516 28.3284 92.6146 28.1929 93.1049 28.2742L168.58 41.9819C169.342 42.1173 169.914 42.7946 169.914 43.5531V145.006C169.914 145.494 169.696 145.927 169.342 146.225C169.043 146.469 168.661 146.604 168.307 146.604ZM92.8325 29.0598C92.6418 29.0598 92.4784 29.114 92.315 29.2495C92.1243 29.412 92.0426 29.6287 92.0426 29.8454V131.298C92.0426 131.678 92.315 132.003 92.6963 132.084L168.171 145.792C168.416 145.846 168.634 145.765 168.825 145.629C169.015 145.467 169.097 145.25 169.097 145.033V43.5531C169.097 43.1738 168.825 42.8488 168.443 42.7675L92.9687 29.0598C92.9414 29.0598 92.887 29.0598 92.8325 29.0598Z" fill="black"/>
<path d="M162.042 84.4323L157.685 83.6467C157.249 83.5654 156.922 83.1861 156.922 82.7256V58.0464C156.922 57.4775 157.439 57.044 158.011 57.1253L162.369 57.9109C162.805 57.9922 163.132 58.3715 163.132 58.832V83.5112C163.132 84.0801 162.614 84.5406 162.042 84.4323Z" fill="#A0BFA8"/>
<path d="M153.572 82.7528L149.214 81.9671C148.778 81.8859 148.451 81.5066 148.451 81.0461V63.2207C148.451 62.6518 148.969 62.2183 149.541 62.2996L153.899 63.0852C154.334 63.1665 154.661 63.5458 154.661 64.0063V81.8317C154.689 82.4277 154.144 82.8611 153.572 82.7528Z" fill="#A0BFA8"/>
<path d="M145.128 81.1001L140.77 80.3145C140.335 80.2332 140.008 79.8539 140.008 79.3934V71.2663C140.008 70.6974 140.525 70.264 141.097 70.3453L145.455 71.1309C145.891 71.2122 146.218 71.5914 146.218 72.052V80.179C146.218 80.7479 145.7 81.2085 145.128 81.1001Z" fill="#A0BFA8"/>
<path d="M136.657 79.4207L132.299 78.6351C131.863 78.5538 131.537 78.1745 131.537 77.714V72.5127C131.537 71.9438 132.054 71.5103 132.626 71.5916L136.984 72.3772C137.42 72.4585 137.747 72.8378 137.747 73.2983V78.4996C137.747 79.0956 137.229 79.5291 136.657 79.4207Z" fill="#A0BFA8"/>
<path d="M128.214 77.7682L123.856 76.9825C123.42 76.9013 123.093 76.522 123.093 76.0615V65.3337C123.093 64.7648 123.611 64.3314 124.183 64.4127L128.541 65.1983C128.977 65.2795 129.303 65.6588 129.303 66.1193V76.8471C129.303 77.416 128.786 77.8765 128.214 77.7682Z" fill="#A0BFA8"/>
<path d="M119.743 76.0885L115.385 75.3029C114.949 75.2217 114.623 74.8424 114.623 74.3819V71.6728C114.623 71.1039 115.14 70.6705 115.712 70.7518L120.07 71.5374C120.506 71.6186 120.833 71.9979 120.833 72.4585V75.1675C120.833 75.7635 120.315 76.1969 119.743 76.0885Z" fill="#A0BFA8"/>
<path d="M111.272 74.4359L106.914 73.6503C106.478 73.569 106.151 73.1898 106.151 72.7292V69.9118C106.151 69.3429 106.669 68.9095 107.241 68.9908L111.599 69.7764C112.035 69.8577 112.361 70.2369 112.361 70.6975V73.5148C112.389 74.0837 111.844 74.5443 111.272 74.4359Z" fill="#A0BFA8"/>
<path d="M102.829 72.7564L98.4707 71.9708C98.0349 71.8895 97.708 71.5102 97.708 71.0497V67.2842C97.708 66.7153 98.2255 66.2818 98.7975 66.3631L103.155 67.1487C103.591 67.23 103.918 67.6092 103.918 68.0698V71.8353C103.918 72.4313 103.401 72.8648 102.829 72.7564Z" fill="#A0BFA8"/>
<path d="M100.518 97.7611V94.0498L107.055 87.5481C107.681 86.925 108.689 86.925 109.288 87.5481L113.755 91.9909C114.355 92.5869 115.308 92.614 115.934 92.0451L116.343 91.6929C116.969 91.124 117.923 91.1511 118.522 91.7471L127.674 100.931L127.701 102.123C127.755 103.667 126.339 104.832 124.841 104.534L102.452 100.064C101.308 99.8742 100.518 98.8989 100.518 97.7611Z" fill="#A4BBF9"/>
<path d="M125.44 104.913C125.25 104.913 125.086 104.886 124.896 104.859L102.207 100.335C100.927 100.091 99.9733 98.9261 100.001 97.6257L100.191 80.7214C100.191 79.9087 100.573 79.1502 101.199 78.6355C101.825 78.1207 102.643 77.904 103.432 78.0395L110.95 79.3669C111.168 79.394 111.331 79.6107 111.277 79.8274C111.25 80.0441 111.032 80.2067 110.814 80.1525L103.296 78.8251C102.752 78.7167 102.152 78.8793 101.717 79.2314C101.281 79.5836 101.036 80.1254 101.008 80.6943L100.818 97.5986C100.818 98.5197 101.471 99.3324 102.37 99.495L125.059 104.019C125.631 104.127 126.203 103.992 126.666 103.613C127.102 103.233 127.374 102.719 127.374 102.123V84.7308C127.374 83.8097 126.693 82.997 125.794 82.8344L121.082 81.9946C120.864 81.9676 120.701 81.7508 120.755 81.5341C120.783 81.3174 121.001 81.1548 121.218 81.209L125.931 82.0488C127.238 82.2926 128.191 83.4033 128.191 84.7308V102.123C128.191 102.935 127.837 103.721 127.183 104.236C126.693 104.696 126.067 104.913 125.44 104.913Z" fill="black"/>
<path d="M124.442 88.0292C124.447 86.6528 123.328 85.5334 121.944 85.5291C120.561 85.5248 119.435 86.6371 119.431 88.0136C119.426 89.39 120.545 90.5094 121.929 90.5137C123.313 90.518 124.438 89.4057 124.442 88.0292Z" fill="#A4BBF9"/>
<path d="M135.518 104.761V101.05L142.055 94.5481C142.681 93.925 143.689 93.925 144.288 94.5481L148.755 98.9909C149.355 99.5869 150.308 99.614 150.934 99.0451L151.343 98.6929C151.969 98.124 152.923 98.1511 153.522 98.7471L162.674 107.931L162.701 109.123C162.755 110.667 161.339 111.832 159.841 111.534L137.452 107.064C136.308 106.874 135.518 105.899 135.518 104.761Z" fill="#A4BBF9"/>
<path d="M160.44 111.913C160.25 111.913 160.086 111.886 159.896 111.859L137.207 107.335C135.927 107.091 134.973 105.926 135.001 104.626L135.191 87.7214C135.191 86.9087 135.573 86.1502 136.199 85.6355C136.825 85.1207 137.643 84.904 138.432 85.0395L145.95 86.3669C146.168 86.394 146.331 86.6107 146.277 86.8274C146.25 87.0441 146.032 87.2067 145.814 87.1525L138.296 85.8251C137.752 85.7167 137.152 85.8793 136.717 86.2314C136.281 86.5836 136.036 87.1254 136.008 87.6943L135.818 104.599C135.818 105.52 136.471 106.332 137.37 106.495L160.059 111.019C160.631 111.127 161.203 110.992 161.666 110.613C162.102 110.233 162.374 109.719 162.374 109.123V91.7308C162.374 90.8097 161.693 89.997 160.794 89.8344L156.082 88.9946C155.864 88.9676 155.701 88.7508 155.755 88.5341C155.783 88.3174 156.001 88.1548 156.218 88.209L160.931 89.0488C162.238 89.2926 163.191 90.4033 163.191 91.7308V109.123C163.191 109.935 162.837 110.721 162.183 111.236C161.693 111.696 161.067 111.913 160.44 111.913Z" fill="black"/>
<path d="M159.442 95.0292C159.447 93.6528 158.328 92.5334 156.944 92.5291C155.561 92.5248 154.435 93.6371 154.431 95.0136C154.426 96.39 155.545 97.5094 156.929 97.5137C158.313 97.518 159.438 96.4057 159.442 95.0292Z" fill="#A4BBF9"/>
<path d="M137.42 63.0582C137.311 63.0582 137.202 63.004 137.121 62.9227L128.595 54.2538C128.432 54.0913 128.432 53.8475 128.595 53.6849C128.759 53.5224 129.004 53.5224 129.167 53.6849L137.475 62.1371L155.424 51.0301C155.615 50.9217 155.86 50.9759 155.996 51.1655C156.105 51.3552 156.05 51.599 155.86 51.7344L137.638 63.0311C137.556 63.0311 137.502 63.0582 137.42 63.0582Z" fill="black"/>
<path d="M114.513 63.302C114.405 63.302 114.296 63.2749 114.214 63.1936L108.331 57.3963C108.167 57.2338 108.167 56.99 108.331 56.8274C108.494 56.6649 108.739 56.6649 108.903 56.8274L114.541 62.408L124.755 56.0418C124.945 55.9334 125.19 55.9876 125.327 56.1773C125.436 56.3669 125.381 56.6107 125.19 56.7461L114.677 63.2749C114.65 63.302 114.595 63.302 114.513 63.302Z" fill="black"/>
<path d="M99.6689 63.0853C99.5327 63.0853 99.3965 63.0311 99.3148 62.8956C99.2059 62.706 99.2603 62.4622 99.451 62.3267L105.035 58.8592C105.225 58.7508 105.47 58.805 105.607 58.9946C105.716 59.1843 105.661 59.4281 105.47 59.5635L99.8868 63.0311C99.8323 63.0582 99.7506 63.0853 99.6689 63.0853Z" fill="black"/>
<path d="M128.868 56.3126C130.176 56.3126 131.237 55.2574 131.237 53.9557C131.237 52.6541 130.176 51.5989 128.868 51.5989C127.559 51.5989 126.498 52.6541 126.498 53.9557C126.498 55.2574 127.559 56.3126 128.868 56.3126Z" fill="#A0BFA8"/>
<path d="M128.868 56.719C127.342 56.719 126.089 55.4729 126.089 53.9558C126.089 52.4388 127.342 51.1926 128.868 51.1926C130.393 51.1926 131.646 52.4388 131.646 53.9558C131.646 55.4729 130.393 56.719 128.868 56.719ZM128.868 52.0053C127.778 52.0053 126.906 52.8722 126.906 53.9558C126.906 55.0394 127.778 55.9063 128.868 55.9063C129.957 55.9063 130.829 55.0394 130.829 53.9558C130.829 52.8722 129.93 52.0053 128.868 52.0053Z" fill="black"/>
<path d="M108.658 59.5094C109.966 59.5094 111.027 58.4542 111.027 57.1525C111.027 55.8509 109.966 54.7957 108.658 54.7957C107.349 54.7957 106.288 55.8509 106.288 57.1525C106.288 58.4542 107.349 59.5094 108.658 59.5094Z" fill="#A0BFA8"/>
<path d="M108.658 59.9158C107.132 59.9158 105.879 58.6697 105.879 57.1526C105.879 55.6356 107.132 54.3894 108.658 54.3894C110.183 54.3894 111.436 55.6356 111.436 57.1526C111.436 58.6697 110.21 59.9158 108.658 59.9158ZM108.658 55.2021C107.568 55.2021 106.697 56.069 106.697 57.1526C106.697 58.2362 107.568 59.1031 108.658 59.1031C109.747 59.1031 110.619 58.2362 110.619 57.1526C110.619 56.069 109.747 55.2021 108.658 55.2021Z" fill="black"/>
<path d="M114.731 65.1712C116.04 65.1712 117.101 64.116 117.101 62.8144C117.101 61.5127 116.04 60.4575 114.731 60.4575C113.423 60.4575 112.362 61.5127 112.362 62.8144C112.362 64.116 113.423 65.1712 114.731 65.1712Z" fill="#FB96A0"/>
<path d="M114.731 65.5777C113.206 65.5777 111.953 64.3315 111.953 62.8145C111.953 61.2974 113.206 60.0513 114.731 60.0513C116.257 60.0513 117.51 61.2974 117.51 62.8145C117.51 64.3315 116.257 65.5777 114.731 65.5777ZM114.731 60.864C113.642 60.864 112.77 61.7309 112.77 62.8145C112.77 63.8981 113.642 64.765 114.731 64.765C115.821 64.765 116.692 63.8981 116.692 62.8145C116.692 61.7309 115.794 60.864 114.731 60.864Z" fill="black"/>
<path d="M99.8599 64.7105C101.169 64.7105 102.23 63.6553 102.23 62.3537C102.23 61.052 101.169 59.9968 99.8599 59.9968C98.5512 59.9968 97.4902 61.052 97.4902 62.3537C97.4902 63.6553 98.5512 64.7105 99.8599 64.7105Z" fill="#FB96A0"/>
<path d="M99.8597 65.117C98.3345 65.117 97.0815 63.8708 97.0815 62.3538C97.0815 60.8367 98.3345 59.5906 99.8597 59.5906C101.385 59.5906 102.638 60.8367 102.638 62.3538C102.638 63.8708 101.385 65.117 99.8597 65.117ZM99.8597 60.4033C98.7703 60.4033 97.8987 61.2702 97.8987 62.3538C97.8987 63.4374 98.7703 64.3043 99.8597 64.3043C100.949 64.3043 101.821 63.4374 101.821 62.3538C101.821 61.2702 100.922 60.4033 99.8597 60.4033Z" fill="black"/>
<path d="M137.447 64.8189C138.756 64.8189 139.817 63.7637 139.817 62.4621C139.817 61.1604 138.756 60.1052 137.447 60.1052C136.139 60.1052 135.078 61.1604 135.078 62.4621C135.078 63.7637 136.139 64.8189 137.447 64.8189Z" fill="#FB96A0"/>
<path d="M137.447 65.2254C135.922 65.2254 134.669 63.9792 134.669 62.4622C134.669 60.9451 135.922 59.699 137.447 59.699C138.972 59.699 140.225 60.9451 140.225 62.4622C140.225 63.9792 138.972 65.2254 137.447 65.2254ZM137.447 60.5117C136.358 60.5117 135.486 61.3786 135.486 62.4622C135.486 63.5458 136.358 64.4127 137.447 64.4127C138.537 64.4127 139.408 63.5458 139.408 62.4622C139.408 61.3786 138.537 60.5117 137.447 60.5117Z" fill="black"/>
<path d="M160.381 50.8133C161.69 50.8133 162.751 49.7581 162.751 48.4565C162.751 47.1548 161.69 46.0996 160.381 46.0996C159.073 46.0996 158.012 47.1548 158.012 48.4565C158.012 49.7581 159.073 50.8133 160.381 50.8133Z" fill="#A0BFA8"/>
<path d="M160.381 51.2198C158.856 51.2198 157.603 49.9736 157.603 48.4566C157.603 46.9395 158.856 45.6934 160.381 45.6934C161.907 45.6934 163.159 46.9395 163.159 48.4566C163.159 49.9736 161.907 51.2198 160.381 51.2198ZM160.381 46.5061C159.292 46.5061 158.42 47.373 158.42 48.4566C158.42 49.5402 159.292 50.4071 160.381 50.4071C161.471 50.4071 162.342 49.5402 162.342 48.4566C162.342 47.373 161.471 46.5061 160.381 46.5061Z" fill="black"/>
<path d="M103.11 105.878L103.11 105.878L162.078 116.578C162.078 116.578 162.079 116.578 162.079 116.578C163.147 116.786 163.904 117.72 163.931 118.784C163.93 120.184 162.653 121.246 161.271 120.987L161.271 120.987L102.303 110.287C102.303 110.287 102.303 110.286 102.302 110.286C101.231 110.078 100.45 109.17 100.45 108.082C100.45 106.682 101.728 105.618 103.11 105.878Z" fill="#FFD3AB" stroke="black" stroke-width="0.2"/>
<path d="M103.11 114.139L103.11 114.139L162.078 124.84C162.078 124.84 162.079 124.84 162.079 124.84C163.148 125.048 163.904 125.955 163.931 127.045C163.93 128.445 162.653 129.508 161.271 129.249L161.271 129.248L102.303 118.548C102.303 118.548 102.303 118.548 102.302 118.548C101.231 118.34 100.45 117.431 100.45 116.344C100.45 114.943 101.728 113.88 103.11 114.139Z" fill="#FFD3AB" stroke="black" stroke-width="0.2"/>
<path d="M162.079 132.84L162.08 132.84C163.146 133.021 163.904 133.953 163.931 135.045C163.93 136.445 162.653 137.508 161.271 137.249L161.271 137.248L102.303 126.548C102.303 126.548 102.303 126.548 102.302 126.548C101.231 126.34 100.45 125.431 100.45 124.344C100.45 122.943 101.728 121.88 103.11 122.139L103.11 122.139L162.079 132.84Z" fill="#FFD3AB" stroke="black" stroke-width="0.2"/>
<path d="M218.016 82.1297L173.837 74.111C173.51 74.0568 173.265 73.7589 173.265 73.4338V44.0408C173.265 43.6074 173.673 43.2823 174.082 43.3636L218.261 51.3823C218.588 51.4365 218.833 51.7345 218.833 52.0596V81.4254C218.86 81.8588 218.451 82.211 218.016 82.1297Z" fill="#FFF0DE"/>
<path d="M177.078 70.237C176.996 69.9932 177.214 69.7765 177.432 69.6139C177.868 69.2888 178.685 68.8283 179.556 68.6387C180.918 68.3678 182.225 68.449 182.362 68.9096C182.498 69.3701 184.65 76.1427 184.65 76.1427L177.84 74.8965L177.759 74.5443L177.459 72.9189L177.078 70.237Z" fill="#FEA95D"/>
<path d="M187.891 76.8199C187.891 76.8199 189.634 72.5125 190.806 70.7788C191.732 69.3701 192.93 67.9072 194.265 66.9049C199.14 63.2477 206.331 61.5681 213.276 66.7694C216.245 68.9908 216.3 76.5219 216.027 81.5336L216 81.94L187.891 76.8199Z" fill="#FEA95D"/>
<path d="M177.323 60.7012C178.794 59.6718 179.802 62.7601 180.156 64.5751C180.156 64.6293 180.21 64.6293 180.237 64.5751C180.428 64.3584 180.592 64.3855 180.673 63.3831C180.728 62.8413 180.837 62.2453 181.409 62.5433C181.735 62.733 182.008 63.8978 181.953 64.7376C181.763 68.1239 181.354 69.3159 181.027 69.6139C180.646 69.9661 179.012 70.4266 178.63 70.3182C178.195 70.1828 173.891 63.1393 177.323 60.7012Z" fill="white"/>
<path d="M178.794 70.7518C178.685 70.7518 178.576 70.7518 178.521 70.7247C177.922 70.5351 176.07 67.23 175.689 64.6565C175.389 62.706 175.879 61.216 177.105 60.3762C177.622 59.9969 178.086 60.0782 178.385 60.1866C179.338 60.5658 179.938 62.11 180.292 63.2749C180.319 62.8414 180.428 62.3538 180.809 62.1642C180.973 62.0829 181.245 62.0016 181.626 62.2183C182.253 62.5434 182.444 64.0876 182.389 64.7919C182.144 69.2347 181.545 69.7765 181.327 69.9662C180.918 70.3183 179.529 70.7518 178.794 70.7518ZM178.821 69.9662C179.175 69.9662 180.482 69.5869 180.782 69.3431C180.836 69.2889 181.354 68.72 181.572 64.7377C181.626 63.925 181.354 63.0311 181.218 62.8956C181.191 62.9498 181.136 63.1123 181.109 63.4374C181.054 64.2772 180.918 64.5481 180.646 64.7919C180.619 64.819 180.591 64.819 180.591 64.8461C180.482 64.9815 180.292 65.0357 180.128 64.9815C179.965 64.9274 179.829 64.7919 179.801 64.6294C179.502 63.004 178.821 61.216 178.113 60.918C178.004 60.8638 177.84 60.8367 177.622 61.0264C176.914 61.5411 176.506 62.3267 176.479 63.3832C176.315 66.0652 178.358 69.4785 178.821 69.9662Z" fill="black"/>
<path d="M205.868 64.8191L206.576 59.2927L201.701 60.7556L201.21 63.9793C201.102 64.8462 201.728 65.4693 201.728 65.4693C202.518 66.3091 203.825 66.3904 204.86 65.9298L205.105 65.8215C205.541 65.6589 205.814 65.2797 205.868 64.8191Z" fill="white"/>
<path d="M203.58 66.6342C202.763 66.6342 202 66.3362 201.456 65.7673C201.428 65.7402 200.666 65.0088 200.829 63.9523L201.319 60.7014C201.347 60.5389 201.456 60.4305 201.592 60.3764L206.467 58.9135C206.603 58.8864 206.74 58.9135 206.849 58.9947C206.957 59.076 207.012 59.2115 206.985 59.3469L206.277 64.8733C206.195 65.4422 205.841 65.9569 205.296 66.2008L205.051 66.3091C204.588 66.5258 204.07 66.6342 203.58 66.6342ZM202.082 61.1078L201.619 64.0877C201.537 64.7379 202.028 65.1984 202.028 65.1984C202.654 65.8757 203.771 66.0111 204.724 65.5777L204.969 65.4693C205.242 65.3339 205.432 65.0901 205.487 64.7921L206.113 59.8887L202.082 61.1078Z" fill="black"/>
<path d="M205.759 51.4907C207.611 51.4636 206.14 54.0914 210.335 54.1997C210.907 54.2268 211.288 55.6626 211.016 56.3398C210.634 57.2609 210.008 56.6107 208.918 58.5612C208.156 59.9158 207.747 60.3492 207.502 60.9452C206.685 62.7331 207.393 63.7626 204.097 63.6C202.191 63.5188 201.918 63.5459 200.448 62.1913C200.175 61.9475 200.175 61.3515 200.339 61.0265C200.529 60.6201 200.992 59.7532 201.101 59.2114C201.646 56.4211 202.163 56.4211 202.327 56.0148C202.599 55.2833 198.35 51.5449 205.759 51.4907Z" fill="black"/>
<path d="M206.876 58.1278C206.413 59.672 205.378 60.9452 204.043 60.6743C203.771 60.6201 202.953 60.3492 202.654 60.2138C201.101 59.374 201.673 56.8275 202.953 55.5001C203.035 55.4188 203.416 55.1479 203.689 55.175C204.615 55.2292 206.058 56.0961 206.058 56.0961C206.058 56.0961 207.311 56.6379 206.876 58.1278Z" fill="white"/>
<path d="M204.37 61.1078C204.234 61.1078 204.097 61.1078 203.961 61.0536C203.662 60.9995 202.817 60.7286 202.463 60.5389C201.864 60.2138 201.483 59.6449 201.346 58.9135C201.156 57.7215 201.7 56.2045 202.654 55.175C202.763 55.0667 203.253 54.6874 203.716 54.7145C204.669 54.7687 206.031 55.5814 206.249 55.6898C206.794 55.9336 207.693 56.7734 207.284 58.1821C206.712 60.0242 205.623 61.1078 204.37 61.1078ZM203.662 55.5814C203.58 55.5814 203.308 55.7169 203.253 55.771C202.463 56.5837 202.027 57.857 202.164 58.8051C202.245 59.2928 202.463 59.6449 202.844 59.8346C203.09 59.97 203.879 60.2138 204.125 60.268C205.296 60.4847 206.14 59.1844 206.494 57.9924C206.821 56.8817 205.95 56.4754 205.895 56.4754L205.841 56.4483C205.459 56.2316 204.343 55.6085 203.662 55.5814Z" fill="black"/>
<path d="M207.965 59.9429C209.327 60.3222 209.708 59.0489 209.354 58.3175C209.218 58.0195 208.782 58.0195 208.618 58.3175L207.856 59.7262C207.801 59.8075 207.856 59.9158 207.965 59.9429Z" fill="white"/>
<path d="M208.428 60.4034C208.265 60.4034 208.074 60.3763 207.856 60.3221C207.693 60.2679 207.556 60.1595 207.475 59.997C207.393 59.8345 207.42 59.6719 207.502 59.5094L208.265 58.1007C208.401 57.8298 208.7 57.6672 209.027 57.6672C209.327 57.6672 209.599 57.8569 209.735 58.1278C210.008 58.6967 209.926 59.4552 209.545 59.9157C209.354 60.1325 209 60.4034 208.428 60.4034ZM208.373 59.5906C208.591 59.5906 208.782 59.5365 208.891 59.401C209.082 59.1843 209.109 58.7779 208.973 58.4799L208.373 59.5906Z" fill="black"/>
<path d="M202 60.9181C201.918 61.8662 202.79 61.9746 203.226 61.6495C203.416 61.5141 203.362 61.2431 203.144 61.1619L202.136 60.8368C202.082 60.8097 202.027 60.8639 202 60.9181Z" fill="white"/>
<path d="M218.152 82.536C218.097 82.536 218.015 82.536 217.961 82.509L173.782 74.4902C173.265 74.3819 172.856 73.9484 172.856 73.4066V44.0408C172.856 43.7157 172.992 43.3906 173.265 43.201C173.51 42.9843 173.864 42.903 174.191 42.9572L218.37 50.9759C218.887 51.0843 219.296 51.5177 219.296 52.0595V81.4253C219.296 81.7504 219.159 82.0755 218.887 82.2651C218.642 82.4548 218.397 82.536 218.152 82.536ZM218.097 81.7233C218.206 81.7504 218.288 81.6962 218.342 81.6692C218.37 81.6421 218.451 81.5608 218.451 81.4524V52.0595C218.451 51.9241 218.342 51.7886 218.206 51.7615L174.027 43.7428C173.918 43.7157 173.836 43.7699 173.782 43.797C173.755 43.8241 173.673 43.9053 173.673 44.0137V73.3795C173.673 73.515 173.782 73.6504 173.918 73.6775L218.097 81.7233Z" fill="black"/>
<path d="M218.016 118.349L173.837 110.331C173.51 110.277 173.265 109.979 173.265 109.653V80.2606C173.265 79.8271 173.673 79.502 174.082 79.5833L218.261 87.602C218.588 87.6562 218.833 87.9542 218.833 88.2793V117.672C218.86 118.106 218.451 118.431 218.016 118.349Z" fill="#FFF0DE"/>
<path d="M184.05 112.308L184.214 111.956C184.895 110.547 185.984 108.814 187.673 107.378C192.276 103.477 205.023 101.012 210.062 116.643L210.089 117.022L184.05 112.308Z" fill="#FEA95D"/>
<path d="M193.257 94.4017C193.338 91.8823 195.163 89.39 200.012 90.3923C200.012 90.3923 201.101 87.0602 203.934 88.0355C206.739 88.9837 205.84 93.3723 203.035 93.7515C203.035 93.7515 205.377 98.0047 202.408 99.5759C201.646 99.9823 200.774 100.036 199.93 99.8468C199.058 99.6572 196.906 98.4382 196.117 98.0318C195.327 97.5984 193.175 96.9211 193.257 94.4017Z" fill="black"/>
<path d="M199.657 98.2214L198.922 105.482C198.922 105.482 201.155 105.888 202.708 107.026C202.871 107.161 196.171 112.119 189.934 106.917L190.015 106.863C191.35 106.078 192.848 105.563 194.373 105.346L194.7 105.292L195.218 100.389L199.657 98.2214Z" fill="white"/>
<path d="M196.226 109.681C194.237 109.681 191.949 109.112 189.689 107.243C189.58 107.161 189.525 107.026 189.552 106.89C189.552 106.755 189.634 106.647 189.743 106.565L189.825 106.511C191.214 105.698 192.739 105.157 194.346 104.94L194.836 100.362C194.864 100.226 194.945 100.091 195.054 100.037L199.467 97.8693C199.603 97.8151 199.766 97.8151 199.875 97.8964C199.984 97.9777 200.066 98.1131 200.039 98.2757L199.331 105.157C200.039 105.319 201.673 105.78 202.926 106.701C203.035 106.782 203.117 106.945 203.089 107.08C203.035 107.595 201.183 108.516 200.257 108.895C199.303 109.274 197.887 109.681 196.226 109.681ZM190.669 106.972C195.572 110.602 200.692 108.055 202.082 107.08C200.638 106.213 198.895 105.888 198.868 105.888C198.65 105.861 198.513 105.671 198.541 105.455L199.194 98.9258L195.626 100.66L195.109 105.346C195.082 105.536 194.945 105.671 194.755 105.698L194.428 105.753C193.12 105.942 191.84 106.349 190.669 106.972Z" fill="black"/>
<path d="M197.152 96.5419C195.163 97.7068 194.7 93.7787 194.019 98.7633C193.856 100.009 194.265 103.287 196.689 103.206C198.35 103.152 199.494 102.122 200.175 98.2486C200.393 96.8399 198.704 95.6208 197.152 96.5419Z" fill="white"/>
<path d="M196.498 103.612C195.735 103.585 195.109 103.287 194.591 102.691C193.611 101.553 193.474 99.6301 193.583 98.709C193.856 96.7314 194.101 96.027 194.564 95.8103C194.945 95.6478 195.299 95.8645 195.572 96.0541C195.98 96.325 196.334 96.5418 196.906 96.1896C197.778 95.6749 198.813 95.702 199.603 96.2438C200.311 96.7314 200.665 97.517 200.529 98.3297C200.175 100.389 199.684 101.743 198.976 102.556C198.84 102.718 198.568 102.745 198.404 102.61C198.241 102.475 198.214 102.204 198.35 102.041C198.949 101.337 199.412 100.091 199.712 98.1943C199.793 97.7066 199.575 97.219 199.112 96.921C198.595 96.5689 197.914 96.5418 197.288 96.921C196.28 97.517 195.544 97.0294 195.081 96.7585C195 96.7043 194.891 96.6501 194.836 96.623C194.754 96.7585 194.564 97.2461 194.346 98.8444C194.237 99.6842 194.4 101.31 195.163 102.204C195.517 102.61 195.926 102.827 196.443 102.827C196.661 102.827 196.852 103.016 196.852 103.233C196.906 103.45 196.716 103.612 196.498 103.612Z" fill="black"/>
<path d="M218.152 118.783C218.097 118.783 218.015 118.783 217.961 118.756L173.782 110.737C173.265 110.629 172.856 110.195 172.856 109.653V80.2605C172.856 79.9354 172.992 79.6103 173.265 79.4207C173.51 79.204 173.864 79.1227 174.163 79.1769L218.342 87.1956C218.86 87.304 219.268 87.7374 219.268 88.2792V117.672C219.268 117.997 219.132 118.322 218.86 118.512C218.642 118.674 218.397 118.783 218.152 118.783ZM173.973 79.9896C173.891 79.9896 173.809 80.0438 173.782 80.0709C173.755 80.098 173.673 80.1792 173.673 80.2876V109.653C173.673 109.789 173.782 109.924 173.918 109.951L218.097 117.943C218.206 117.97 218.288 117.916 218.342 117.889C218.37 117.862 218.451 117.781 218.451 117.672V88.2792C218.451 88.1438 218.342 88.0083 218.206 87.9812L174.027 79.9625C174 79.9896 174 79.9896 173.973 79.9896Z" fill="black"/>
<path d="M218.016 155.246L173.837 147.228C173.51 147.174 173.265 146.876 173.265 146.55V117.158C173.265 116.724 173.673 116.399 174.082 116.48L218.261 124.499C218.588 124.553 218.833 124.851 218.833 125.176V154.542C218.86 155.003 218.451 155.328 218.016 155.246Z" fill="#FFF0DE"/>
<path d="M182.035 148.853C182.743 147.634 184.35 145.115 187.319 143.137C192.63 139.615 200.175 136.364 207.393 141.782C209.899 143.652 210.226 149.693 210.008 153.54L209.953 153.919L182.035 148.853Z" fill="#FEA95D"/>
<path d="M195.327 137.177C192.875 136.337 191.759 133.601 193.093 131.597C195.3 128.292 197.342 124.336 202.191 125.23C207.23 126.151 208.265 130.892 208.128 135.443C208.047 137.909 205.459 139.534 202.953 138.667L195.327 137.177Z" fill="black"/>
<path d="M202.98 132.707L202.299 139.507C202.218 140.265 202.654 140.997 203.362 141.295C203.58 141.376 203.77 141.457 203.988 141.566C205.214 142.135 205.187 143.868 203.961 144.437C201.727 145.44 198.268 146.307 194.619 144.735C193.284 144.166 193.393 142.27 194.755 141.81L195.463 141.566C196.525 141.214 197.288 140.265 197.397 139.155L198.486 132.599L202.98 132.707Z" fill="white"/>
<path d="M198.786 146.009C197.424 146.009 195.953 145.765 194.455 145.115C193.692 144.79 193.229 144.058 193.257 143.245C193.284 142.406 193.829 141.701 194.591 141.43L195.299 141.187C196.198 140.889 196.852 140.076 196.961 139.128L198.05 132.545C198.078 132.355 198.268 132.193 198.459 132.193L202.953 132.301C203.062 132.301 203.171 132.355 203.253 132.436C203.334 132.518 203.362 132.626 203.362 132.734L202.681 139.534C202.626 140.13 202.953 140.672 203.498 140.889C203.716 140.97 203.934 141.078 204.124 141.16C204.832 141.485 205.268 142.189 205.268 142.947C205.268 143.733 204.805 144.437 204.07 144.763C202.735 145.413 200.883 146.009 198.786 146.009ZM198.813 133.032L197.778 139.236C197.642 140.482 196.77 141.566 195.572 141.972L194.864 142.216C194.292 142.406 194.074 142.893 194.074 143.273C194.046 143.652 194.237 144.139 194.782 144.383C198.295 145.873 201.618 145.033 203.797 144.085C204.315 143.869 204.506 143.381 204.506 143.029C204.506 142.568 204.26 142.162 203.825 141.972C203.634 141.891 203.416 141.783 203.225 141.701C202.327 141.349 201.809 140.455 201.891 139.507L202.517 133.141L198.813 133.032Z" fill="black"/>
<path d="M201.891 129.971L197.67 130.648C197.67 130.648 197.016 135.904 199.386 136.717C201.755 137.529 203.607 133.872 203.607 133.872C203.607 133.872 204.261 133.899 204.533 133.628C204.833 133.33 205.596 132.084 204.07 131.813L203.907 131.217C203.607 130.35 202.763 129.809 201.891 129.971Z" fill="white"/>
<path d="M200.066 137.231C199.794 137.231 199.522 137.177 199.222 137.096C196.58 136.175 197.206 130.811 197.234 130.594C197.261 130.405 197.397 130.269 197.56 130.242L201.782 129.565C202.872 129.402 203.934 130.052 204.234 131.109L204.343 131.461C204.969 131.651 205.214 132.003 205.296 132.274C205.514 132.978 204.996 133.683 204.778 133.899C204.506 134.17 204.07 134.251 203.798 134.279C203.417 135.01 201.973 137.231 200.066 137.231ZM198.024 131.001C197.887 132.545 197.915 135.796 199.494 136.337C201.51 137.042 203.199 133.737 203.226 133.683C203.308 133.547 203.444 133.439 203.607 133.466C203.798 133.466 204.125 133.439 204.234 133.33C204.37 133.195 204.642 132.761 204.56 132.518C204.506 132.328 204.179 132.22 203.989 132.193C203.852 132.166 203.716 132.057 203.662 131.922L203.498 131.326C203.308 130.676 202.627 130.242 201.946 130.378L198.024 131.001Z" fill="black"/>
<path d="M218.152 155.68C218.097 155.68 218.015 155.68 217.961 155.653L173.782 147.634C173.265 147.526 172.856 147.092 172.856 146.55V117.157C172.856 116.832 172.992 116.507 173.265 116.318C173.51 116.101 173.864 116.02 174.191 116.074L218.37 124.093C218.887 124.201 219.296 124.634 219.296 125.176V154.542C219.296 154.867 219.159 155.192 218.887 155.382C218.642 155.571 218.397 155.68 218.152 155.68ZM218.097 154.84C218.206 154.867 218.288 154.813 218.342 154.786C218.37 154.759 218.451 154.677 218.451 154.569V125.203C218.451 125.068 218.342 124.932 218.206 124.905L174.027 116.887C173.918 116.859 173.836 116.914 173.782 116.941C173.755 116.968 173.673 117.049 173.673 117.157V146.523C173.673 146.659 173.782 146.794 173.918 146.821L218.097 154.84Z" fill="black"/>
<path d="M170.35 210.375C174.708 193.498 189.389 182.011 204.887 195.773C210.362 206.338 194.183 215.82 175.77 216.904C172.257 217.12 169.478 213.815 170.35 210.375Z" fill="#A0BFA8"/>
<path d="M175.471 206.962C175.471 206.962 181.926 208.316 187.455 205.959C190.832 204.496 202 206.501 199.031 199.837C198.377 198.401 198.023 197.453 196.552 196.18C195.735 195.502 193.583 194.121 192.412 193.742C186.692 191.927 181.626 191.439 175.988 196.044C174.899 196.938 166.727 199.864 166.727 199.864C165.747 200.081 130.856 209.048 126.552 202.465L104.626 159.5L92.3149 193.687C92.3149 193.687 101.331 207.964 104.517 212.624C111.354 222.62 120.887 230.368 128.05 230.151C141.832 229.745 163.295 213.653 171.603 209.102C171.576 209.156 175.171 206.935 175.471 206.962Z" fill="white"/>
<path d="M127.778 230.611C120.887 230.611 111.463 223.541 104.191 212.894C101.031 208.289 92.0699 194.094 91.961 193.931L91.8521 193.769L91.9065 193.579L104.517 158.497L126.852 202.275C129.821 206.691 149.132 203.765 166.237 199.566C166.401 199.512 166.51 199.485 166.591 199.485C169.86 198.32 174.953 196.342 175.716 195.746C181.354 191.141 186.502 191.466 192.521 193.362C193.747 193.769 195.926 195.123 196.798 195.882C198.241 197.128 198.704 198.13 199.249 199.403L199.385 199.674C200.039 201.137 200.093 202.329 199.549 203.25C198.405 205.147 194.945 205.417 191.895 205.661C190.152 205.797 188.517 205.932 187.591 206.311C182.307 208.587 176.288 207.53 175.471 207.368C175.062 207.53 173.319 208.533 171.794 209.481C169.887 210.51 167.3 212.163 164.303 214.059C154.144 220.507 138.782 230.259 128.05 230.584C127.969 230.611 127.86 230.611 127.778 230.611ZM92.7509 193.687C93.7859 195.313 101.903 208.126 104.844 212.461C111.98 222.891 121.132 229.826 127.751 229.826C127.833 229.826 127.942 229.826 128.023 229.826C138.564 229.528 153.79 219.829 163.868 213.436C166.864 211.513 169.479 209.887 171.385 208.831C175.089 206.528 175.362 206.582 175.525 206.582H175.552C175.607 206.582 181.953 207.883 187.264 205.607C188.327 205.146 190.015 205.011 191.813 204.876C194.673 204.659 197.887 204.388 198.813 202.871C199.222 202.194 199.167 201.246 198.622 200.026L198.486 199.728C197.914 198.455 197.56 197.615 196.253 196.505C195.463 195.827 193.338 194.5 192.249 194.148C186.338 192.279 181.572 191.981 176.206 196.369C175.089 197.263 167.681 199.972 166.836 200.27L166.782 200.297C166.728 200.297 166.619 200.324 166.428 200.379C155.615 203.033 130.012 208.587 126.171 202.735L126.144 202.708L104.654 160.583L92.7509 193.687Z" fill="black"/>
<path d="M74.5836 135.579C74.5836 135.579 97.1906 138.559 104.681 147.661C114.187 159.174 121.241 187.809 121.949 190.653L122.576 192.604C120.615 201.327 108.957 207.503 99.996 207.043H100.432C98.9882 206.962 96.1828 205.77 95.5563 204.469L93.8676 200.893L93.6497 202.437C91.852 213.897 100.377 232.047 100.377 232.047L74.5018 226.033C60.7742 224.651 48.8443 218.448 38.3579 209.508C32.6653 204.659 28.2256 199.485 26.319 193.958C23.105 184.612 22.2878 183.42 21.389 172.069C20.7625 164.349 23.0505 156.628 27.926 150.56C35.0622 141.674 48.8443 132.328 74.5836 135.579Z" fill="#1E9E70"/>
<path d="M95.4473 205.336C95.2839 205.336 95.1477 205.255 95.066 205.092L88.7469 191.872C88.6379 191.683 88.7469 191.439 88.9376 191.33C89.1282 191.222 89.3733 191.33 89.4823 191.52L95.8014 204.74C95.9103 204.93 95.8014 205.174 95.6107 205.282C95.5562 205.336 95.5018 205.336 95.4473 205.336Z" fill="#A0BFA8"/>
<path d="M78.1244 90.5546L79.7859 89.4439C81.1205 88.5499 81.6652 86.8703 81.1205 85.3804C79.459 80.9105 73.3851 73.0814 51.2684 79.0141C28.7158 85.0553 32.7197 121.058 51.9221 128.752C71.1244 136.445 77.6614 96.8937 77.6614 96.8937L78.1244 90.5546Z" fill="black"/>
<path d="M75.3736 91.3672C75.6187 89.9856 77.4708 89.6876 78.1518 90.9067C79.8405 93.8595 80.6304 95.8913 80.9027 97.1645C81.2568 98.8441 79.7043 100.524 80.5486 102.339C81.393 104.154 82.7276 106.186 82.8366 109.436C82.9455 112.606 86.1868 127.153 74.8288 126.693C74.393 126.666 74.0117 127.018 74.0117 127.479C74.0389 129.7 74.1479 135.768 74.6654 139.073C74.9378 140.861 73.821 142.568 72.0506 143.055C67.502 144.329 59.0584 146.117 52.7121 144.085C51.0778 143.543 50.2062 141.755 50.7782 140.13C51.5136 138.071 52.5759 132.246 51.895 128.806C51.895 128.806 55.6809 128.427 59.9027 126.503C66.3852 123.55 69.572 116.344 67.8016 109.464C67.4202 107.974 66.5759 105.888 67.4475 103.666C69.6809 97.923 73.0311 103.693 73.0311 103.693L75.3736 91.3672Z" fill="white"/>
<path d="M59.4126 145.385C57.0701 145.385 54.7277 145.114 52.6032 144.437C51.7044 144.139 50.9962 143.516 50.5604 142.676C50.1519 141.809 50.0974 140.861 50.4242 139.967C51.1596 137.962 52.1947 132.246 51.5137 128.86L51.432 128.427L51.8678 128.373C51.895 128.373 55.6538 127.993 59.7394 126.097C65.9495 123.252 69.1635 116.29 67.3931 109.518C67.3386 109.328 67.2842 109.111 67.2297 108.895C66.8211 107.459 66.2764 105.508 67.0663 103.449C67.7472 101.689 68.646 100.74 69.7355 100.659C71.0157 100.551 72.1596 101.743 72.8133 102.583L74.9378 91.2859C75.074 90.5003 75.7005 89.9043 76.4904 89.7689C77.2803 89.6334 78.0701 90.0127 78.4787 90.717C80.3853 94.0491 81.0663 95.9996 81.2842 97.0833C81.4748 97.923 81.2297 98.7358 81.0118 99.5214C80.7394 100.442 80.4943 101.309 80.9028 102.176C81.039 102.474 81.2024 102.772 81.3659 103.097C82.1557 104.669 83.1363 106.646 83.2452 109.436C83.2725 109.816 83.327 110.412 83.4087 111.089C83.8172 114.665 84.5526 121.356 81.2569 124.878C79.7589 126.476 77.6071 127.235 74.8561 127.099C74.7472 127.099 74.6382 127.126 74.5838 127.208C74.5021 127.289 74.4748 127.37 74.4748 127.479C74.502 129.862 74.6382 135.768 75.1013 139.019C75.4009 140.997 74.148 142.92 72.1869 143.462C69.1091 144.274 64.2336 145.385 59.4126 145.385ZM52.3853 129.131C52.9301 132.734 51.9223 138.206 51.1869 140.238C50.9417 140.915 50.969 141.674 51.2958 142.324C51.6227 142.974 52.1674 143.435 52.8484 143.679C59.0857 145.71 67.4748 143.895 71.9417 142.649C73.4943 142.216 74.502 140.699 74.2569 139.1C73.7666 135.822 73.6305 129.862 73.6032 127.451C73.6032 127.126 73.7122 126.828 73.9573 126.612C74.2024 126.395 74.5021 126.259 74.8289 126.287C77.3347 126.395 79.2958 125.718 80.6032 124.309C83.6538 121.058 82.9456 114.638 82.5643 111.17C82.4826 110.439 82.4281 109.87 82.4009 109.464C82.2919 106.836 81.3931 105.048 80.6032 103.477C80.4398 103.151 80.2764 102.853 80.1402 102.528C79.5954 101.391 79.9223 100.28 80.1947 99.3047C80.4126 98.5732 80.6032 97.896 80.467 97.2729C80.2764 96.4331 79.7044 94.5368 77.7433 91.1505C77.4709 90.6629 76.9806 90.5545 76.5993 90.6087C76.2452 90.6629 75.8094 90.9338 75.7005 91.4756L73.1947 104.831L72.6499 103.883C72.2414 103.206 70.934 101.418 69.7627 101.526C68.8367 101.607 68.183 102.799 67.8017 103.802C67.0935 105.59 67.5838 107.323 67.9923 108.732C68.0468 108.949 68.1285 109.166 68.183 109.382C70.0351 116.534 66.6305 123.903 60.0663 126.91C56.6616 128.427 53.5293 128.968 52.3853 129.131Z" fill="black"/>
<path d="M42.1984 86.3013C42.1984 86.3013 31.1128 81.0458 23.0233 88.5498C14.961 96.0809 7.14393 112.633 19.2373 130.702C26.8365 142.053 29.7782 151.02 30.8949 156.14C31.2762 157.847 33.5097 158.28 34.4902 156.817C39.3657 149.53 48.2451 133.493 43.9416 118.403C38.1673 98.0856 42.1984 86.3013 42.1984 86.3013Z" fill="black"/>
<path d="M83.0818 107.974L82.6732 107.269C86.2413 105.129 83.9806 99.115 83.2997 97.5167L73.0312 102.718L72.6499 101.987L83.681 96.3789L83.8717 96.7582C84.0351 97.1374 87.8211 105.156 83.0818 107.974Z" fill="black"/>
<path d="M83.1634 112.227C83.0544 112.227 82.9455 112.2 82.8638 112.119C82.7004 111.956 82.7004 111.712 82.8638 111.55L84.3074 110.114C84.7432 109.68 84.7976 109.03 84.4435 108.543L83.4358 107.161C83.2996 106.971 83.354 106.728 83.5175 106.592C83.7081 106.457 83.9533 106.511 84.0895 106.673L85.0972 108.055C85.6965 108.868 85.5875 109.978 84.8793 110.683L83.4358 112.119C83.3813 112.2 83.2723 112.227 83.1634 112.227Z" fill="black"/>
<path d="M71.4783 113.5C71.2332 113.5 70.9881 113.473 70.7157 113.419C69.4355 113.094 68.346 112.037 67.4744 110.222C67.3655 110.032 67.4744 109.789 67.6651 109.68C67.8558 109.572 68.1009 109.68 68.2098 109.87C68.9725 111.441 69.8713 112.389 70.9063 112.633C71.9958 112.904 72.8674 112.281 72.8674 112.281C73.0581 112.145 73.3032 112.2 73.4394 112.362C73.5756 112.552 73.5211 112.796 73.3577 112.931C73.3305 112.958 72.5678 113.5 71.4783 113.5Z" fill="black"/>
<path d="M39.4199 85.2991C39.4199 85.2991 49.7156 88.3874 45.5211 98.2211C45.5211 98.2211 50.2876 94.8078 50.1514 89.471C50.0425 84.1342 46.0386 82.4004 43.3966 82.4546C40.7273 82.5088 39.4199 85.2991 39.4199 85.2991Z" fill="white"/>
<path d="M44.5406 99.4131L45.1126 98.0586C46.3111 95.2683 46.42 92.776 45.4122 90.663C43.7235 87.06 39.3383 85.7055 39.2838 85.7055L38.8208 85.57L39.0115 85.1366C39.0659 85.0011 40.4823 82.1296 43.3422 82.0483C45.0037 82.0212 46.6652 82.5901 47.9453 83.6195C49.0893 84.5406 50.4511 86.3015 50.5329 89.471C50.669 94.9703 45.9297 98.4108 45.7118 98.5733L44.5406 99.4131ZM39.992 85.0824C41.2449 85.57 44.6224 87.0871 46.1476 90.3379C47.0465 92.2613 47.1554 94.4556 46.42 96.8396C47.7819 95.4851 49.7975 92.8573 49.7157 89.471C49.6613 87.2225 48.8714 85.4075 47.4278 84.2426C46.3111 83.3486 44.7858 82.8068 43.3694 82.861C41.599 82.9152 40.455 84.3781 39.992 85.0824Z" fill="black"/>
<path d="M21.7975 171.365C30.1322 176.729 47.1828 184.585 75.0738 183.772C77.1166 183.718 78.9687 184.991 79.6497 186.915L81.175 193.877C83.8442 206.122 89.21 217.635 96.9182 227.577L100.922 232.724C101.549 233.51 100.895 234.648 99.887 234.539L81.5835 232.616C50.2061 227.469 26.2645 210.971 19.3189 182.066L17.4668 174.372C16.8403 171.88 19.6186 169.956 21.7975 171.365Z" fill="white"/>
<path d="M100.214 235C100.16 235 100.105 235 100.051 235L95.7199 234.539C95.502 234.512 95.3385 234.323 95.3658 234.106C95.393 233.889 95.5837 233.727 95.8016 233.754L100.132 234.214C100.377 234.241 100.623 234.133 100.759 233.889C100.895 233.672 100.868 233.402 100.704 233.185L96.5642 227.848C88.8833 217.933 83.4086 206.23 80.7393 193.985L79.2413 187.05C78.642 185.289 76.9533 184.151 75.0739 184.206C73.7666 184.233 72.4592 184.26 71.179 184.26C45.0039 184.26 28.9611 176.485 21.5526 171.717C20.5175 171.04 19.4553 171.311 18.8016 171.771C18.1479 172.232 17.5487 173.126 17.8483 174.318L19.7004 182.011C25.8288 207.612 46.2841 225.166 77.3074 231.451C77.5253 231.505 77.6615 231.722 77.6343 231.939C77.5798 232.155 77.3619 232.291 77.144 232.264C62.0273 229.203 49.3619 223.541 39.5292 215.414C29.0701 206.772 22.1245 195.611 18.9105 182.228L17.0584 174.534C16.7315 173.207 17.2491 171.907 18.3385 171.121C19.4553 170.335 20.8716 170.308 22.0156 171.04C29.6965 175.997 46.8288 184.206 75.0739 183.393C77.3074 183.339 79.323 184.693 80.0312 186.806C80.0312 186.833 80.0312 186.833 80.0312 186.86L81.5564 193.823C84.1985 205.932 89.5915 217.527 97.2179 227.36L101.358 232.697C101.712 233.158 101.767 233.781 101.467 234.295C101.222 234.729 100.732 235 100.214 235Z" fill="black"/>
<path d="M26.0193 29.2766L74.9376 37.214C77.7158 37.6745 79.8131 40.3836 79.8131 43.2822V58.1548C79.8131 61.0534 77.6885 63.0581 74.9376 62.6247C74.9103 62.6247 74.1749 62.4892 73.1671 62.3267V72.2417L66.7391 61.2702C57.3967 59.7531 26.0465 54.6872 26.0465 54.6872C23.2683 54.2267 20.8987 51.5177 20.8987 48.5919V33.7194C20.8714 30.8207 23.2411 28.816 26.0193 29.2766Z" fill="white"/>
<path d="M73.1673 72.6481C73.0311 72.6481 72.8949 72.5668 72.8132 72.4585L66.4669 61.6495L25.9649 55.0665C22.9416 54.5789 20.4902 51.6532 20.4902 48.5649V33.7194C20.4902 32.2023 21.0895 30.8478 22.179 29.9268C23.2412 29.0328 24.6575 28.6535 26.1011 28.8973L75.0194 36.8348C77.961 37.3224 80.249 40.1398 80.249 43.3094V58.1819C80.249 59.7802 79.6498 61.1889 78.5603 62.0829C77.5797 62.9227 76.2723 63.2478 74.8832 63.0311L73.5758 62.8143V72.2688C73.5758 72.4585 73.4396 72.621 73.2762 72.6481C73.2217 72.6481 73.1945 72.6481 73.1673 72.6481ZM25.2295 29.6288C24.2762 29.6288 23.4046 29.9539 22.6965 30.5498C21.7976 31.3084 21.2801 32.4462 21.2801 33.7465V48.592C21.2801 51.2468 23.4863 53.8475 26.0739 54.2809L66.7665 60.8909C66.8754 60.918 66.9844 60.9722 67.0661 61.0806L72.7315 70.7518V62.3267C72.7315 62.2184 72.786 62.0829 72.8677 62.0287C72.9494 61.9475 73.0856 61.9204 73.1945 61.9475L74.9649 62.2454C76.1089 62.4351 77.1712 62.1642 77.9883 61.4869C78.8871 60.7284 79.3774 59.5635 79.3774 58.1819V43.3094C79.3774 40.5462 77.3891 38.0538 74.8288 37.6475L25.9649 29.683C25.7198 29.6288 25.4747 29.6288 25.2295 29.6288Z" fill="black"/>
<path d="M46.1749 43.1467L30.8131 40.6544C29.9142 40.5189 29.2061 39.625 29.2061 38.7039V38.4059C29.2061 37.4577 29.9415 36.8347 30.8131 36.9701L46.1749 39.4624C47.0738 39.5979 47.7819 40.4919 47.7819 41.4129V41.7109C47.7819 42.632 47.0738 43.2822 46.1749 43.1467Z" fill="#E84A5A"/>
<path d="M62.7081 45.8287L54.3463 44.4742C53.4474 44.3388 52.7393 43.4448 52.7393 42.5237V42.2257C52.7393 41.2776 53.4747 40.6545 54.3463 40.7899L62.7081 42.1445C63.607 42.2799 64.3151 43.1739 64.3151 44.095V44.393C64.3424 45.314 63.607 45.9642 62.7081 45.8287Z" fill="#E84A5A"/>
<path d="M69.8987 54.9852L30.8131 48.6461C29.9142 48.5106 29.2061 47.6167 29.2061 46.6956V46.3976C29.2061 45.4494 29.9415 44.8264 30.8131 44.9618L69.8987 51.3009C70.7975 51.4364 71.5057 52.3304 71.5057 53.2514V53.5494C71.5057 54.4976 70.7975 55.1478 69.8987 54.9852Z" fill="#E84A5A"/>
<path d="M174.408 29.2225C174.327 29.2225 174.272 29.1954 174.218 29.1683C167.572 25.4298 160.545 22.5041 153.327 20.4723C140.225 16.788 126.498 16.0837 112.525 18.3593C112.307 18.3864 112.089 18.2509 112.062 18.0342C112.035 17.8175 112.171 17.6007 112.389 17.5737C126.471 15.271 140.334 16.0024 153.545 19.7138C160.817 21.7456 167.899 24.6984 174.626 28.4639C174.817 28.5723 174.899 28.8161 174.79 29.0057C174.681 29.1683 174.545 29.2225 174.408 29.2225Z" fill="black"/>
<path d="M199.657 23.0729C199.575 23.0729 199.494 23.0458 199.412 22.9916C199.221 22.8561 199.194 22.5852 199.33 22.4227L200.61 20.7973C200.747 20.6076 201.019 20.5806 201.182 20.716C201.373 20.8515 201.4 21.1224 201.264 21.2849L199.984 22.9103C199.902 23.0187 199.793 23.0729 199.657 23.0729Z" fill="black"/>
<path d="M204.124 17.4381C204.043 17.4381 203.961 17.411 203.879 17.3568C203.689 17.2214 203.661 16.9505 203.798 16.7879L205.078 15.1625C205.214 14.9729 205.486 14.9458 205.65 15.0812C205.84 15.2167 205.868 15.4876 205.731 15.6501L204.451 17.2756C204.342 17.3839 204.233 17.4381 204.124 17.4381Z" fill="black"/>
<path d="M206.194 22.2873C206.112 22.2873 206.031 22.2603 205.949 22.2061L204.315 20.9599C204.124 20.8245 204.097 20.5807 204.233 20.391C204.369 20.2014 204.614 20.1743 204.805 20.3098L206.439 21.5559C206.63 21.6914 206.657 21.9352 206.521 22.1248C206.439 22.2332 206.303 22.2873 206.194 22.2873Z" fill="black"/>
<path d="M200.474 17.8716C200.393 17.8716 200.311 17.8445 200.229 17.7903L198.595 16.5441C198.404 16.4087 198.377 16.1649 198.513 15.9753C198.65 15.7856 198.922 15.7585 199.085 15.894L200.72 17.1401C200.91 17.2756 200.937 17.5194 200.801 17.709C200.72 17.8174 200.611 17.8716 200.474 17.8716Z" fill="black"/>
<path d="M217.334 26.1882C215.564 26.1882 214.147 24.7525 214.147 23.0187C214.147 21.2578 215.591 19.8491 217.334 19.8491C219.077 19.8491 220.548 21.2307 220.548 22.9916C220.548 24.7525 219.105 26.1882 217.334 26.1882ZM217.334 20.6347C216.027 20.6347 214.965 21.6913 214.965 22.9916C214.965 24.2919 216.027 25.3484 217.334 25.3484C218.642 25.3484 219.704 24.2919 219.704 22.9916C219.731 21.6913 218.642 20.6347 217.334 20.6347Z" fill="black"/>
<path d="M226.895 33.7464C225.587 33.7464 224.552 32.6899 224.552 31.4167C224.552 30.1163 225.614 29.0869 226.895 29.0869C228.202 29.0869 229.237 30.1434 229.237 31.4167C229.237 32.717 228.175 33.7464 226.895 33.7464ZM226.895 29.8996C226.05 29.8996 225.369 30.5769 225.369 31.4167C225.369 32.2565 226.05 32.9337 226.895 32.9337C227.739 32.9337 228.42 32.2565 228.42 31.4167C228.42 30.5769 227.739 29.8996 226.895 29.8996Z" fill="black"/>
<path d="M188.354 228.85C188.163 228.85 188 228.715 187.945 228.525C187.891 228.309 188.054 228.092 188.272 228.038C208.101 224.001 226.105 206.149 226.268 205.986C226.432 205.824 226.677 205.824 226.84 205.986C227.003 206.149 227.003 206.393 226.84 206.555C226.649 206.745 208.482 224.733 188.408 228.823C188.408 228.85 188.381 228.85 188.354 228.85Z" fill="black"/>
<path d="M209.408 223.649C209.245 223.649 209.081 223.541 209.027 223.405C208.945 223.189 209.054 222.972 209.245 222.863C209.381 222.809 223.163 217.093 236.264 201.381C236.4 201.218 236.673 201.191 236.836 201.327C237 201.462 237.027 201.733 236.891 201.896C223.653 217.771 209.681 223.541 209.544 223.595C209.517 223.622 209.463 223.649 209.408 223.649Z" fill="black"/>
<path d="M204.133 175.002C205.903 174.947 207.374 176.356 207.401 178.117C207.429 179.905 206.012 181.395 204.269 181.449C202.499 181.503 201.028 180.094 201.001 178.334C200.946 176.546 202.362 175.056 204.133 175.002Z" fill="white"/>
<path d="M228.665 176.187C228.475 176.187 228.311 176.079 228.284 175.889C228.23 175.672 228.366 175.456 228.584 175.401L230.899 174.805C231.117 174.751 231.335 174.887 231.389 175.103C231.444 175.32 231.307 175.537 231.089 175.591L228.774 176.187C228.72 176.187 228.693 176.187 228.665 176.187Z" fill="black"/>
<path d="M223.272 177.596C223.082 177.596 222.918 177.487 222.891 177.298C222.836 177.081 222.973 176.864 223.191 176.81L225.506 176.214C225.724 176.16 225.942 176.295 225.996 176.512C226.05 176.729 225.914 176.946 225.696 177L223.381 177.596C223.354 177.596 223.327 177.596 223.272 177.596Z" fill="black"/>
<path d="M226.731 175.076C226.541 175.076 226.377 174.968 226.35 174.778L225.751 172.476C225.696 172.259 225.833 172.042 226.05 171.988C226.268 171.934 226.486 172.069 226.541 172.286L227.14 174.589C227.194 174.805 227.058 175.022 226.84 175.076C226.786 175.076 226.759 175.076 226.731 175.076Z" fill="black"/>
<path d="M228.148 180.413C227.957 180.413 227.794 180.305 227.767 180.115L227.167 177.812C227.113 177.596 227.249 177.379 227.467 177.325C227.685 177.271 227.903 177.406 227.957 177.623L228.556 179.925C228.611 180.142 228.475 180.359 228.257 180.413C228.202 180.413 228.175 180.413 228.148 180.413Z" fill="black"/>
</g>
<defs>
<clipPath id="clip0_467_1630">
<rect width="224" height="220" fill="white" transform="translate(13 15)"/>
</clipPath>
</defs>
</svg>
