<svg width="112" height="73" viewBox="0 0 110 73" fill="none" xmlns="http://www.w3.org/2000/svg">
<path d="M27.0068 71.1709C19.045 71.1709 12.7556 67.852 8.42386 61.893C4.06581 55.8978 1.64062 47.1562 1.64062 36.2822H-0.359375C-0.359375 47.42 2.12022 56.6227 6.80612 63.0689C11.5183 69.5513 18.412 73.1709 27.0068 73.1709V71.1709ZM1.64062 36.2822C1.64062 25.4832 4.08835 16.7775 8.4582 10.7992C12.803 4.85527 19.094 1.53711 27.0068 1.53711V-0.462891C18.4588 -0.462891 11.5667 3.15742 6.84356 9.61899C2.14554 16.0462 -0.359375 25.213 -0.359375 36.2822H1.64062ZM27.0068 1.53711C34.9449 1.53711 41.2105 4.84423 45.5243 10.7735C49.8642 16.7388 52.2773 25.4325 52.2773 36.2344H54.2773C54.2773 25.1681 51.8096 16.0131 47.1415 9.59687C42.4472 3.14454 35.5775 -0.462891 27.0068 -0.462891V1.53711ZM52.2773 36.2344C52.2773 47.1102 49.8753 55.8646 45.5399 61.8718C41.2315 67.8418 34.9667 71.1709 27.0068 71.1709V73.1709C35.6036 73.1709 42.4741 69.5376 47.1617 63.0422C51.8225 56.5841 54.2773 47.3702 54.2773 36.2344H52.2773ZM27.0068 64.1748C32.3545 64.1748 36.5227 61.3784 39.301 56.4848C42.0521 51.6391 43.4629 44.7208 43.4629 36.2822H41.4629C41.4629 44.5438 40.0743 51.0718 37.5618 55.4974C35.0764 59.875 31.5166 62.1748 27.0068 62.1748V64.1748ZM43.4629 36.2822C43.4629 27.9584 42.0266 21.0769 39.2639 16.239C36.4769 11.3586 32.3118 8.5332 27.0068 8.5332V10.5332C31.4636 10.5332 35.0265 12.8518 37.5271 17.2308C40.052 21.6521 41.4629 28.1451 41.4629 36.2822H43.4629ZM27.0068 8.5332C21.701 8.5332 17.5248 11.3714 14.7265 16.2557C11.9517 21.0991 10.5029 27.9806 10.5029 36.2822H12.5029C12.5029 28.1708 13.9252 21.6777 16.4619 17.2499C18.9752 12.8629 22.551 10.5332 27.0068 10.5332V8.5332ZM10.5029 36.2822C10.5029 44.6986 11.9262 51.6168 14.6894 56.4681C17.479 61.3655 21.6583 64.1748 27.0068 64.1748V62.1748C22.498 62.1748 18.9253 59.8639 16.4273 55.4782C13.9029 51.0463 12.5029 44.5182 12.5029 36.2822H10.5029ZM93.8555 44.2256L94.5646 44.9308L94.5708 44.9244L93.8555 44.2256ZM76.5811 61.5957L75.872 60.8905L75.5811 61.1831V61.5957H76.5811ZM76.5811 61.835H75.5811V62.835H76.5811V61.835ZM109.359 61.835H110.359V60.835H109.359V61.835ZM109.359 70.8789V71.8789H110.359V70.8789H109.359ZM62.1299 70.8789H61.1299V71.8789H62.1299V70.8789ZM62.1299 63.6055L61.4161 62.9051L61.1299 63.1968V63.6055H62.1299ZM87.0605 38.1963L87.7744 38.8967L87.7813 38.8895L87.0605 38.1963ZM71.7002 22.166V23.166H72.7002V22.166H71.7002ZM61.5557 22.166H60.5557V23.166H61.5557V22.166ZM62.5557 22.0703C62.5557 10.27 72.0157 1.53711 85.29 1.53711V-0.462891C71.0976 -0.462891 60.5557 8.9878 60.5557 22.0703H62.5557ZM85.29 1.53711C98.0611 1.53711 107.259 9.6144 107.259 19.8691H109.259C109.259 8.20787 98.8373 -0.462891 85.29 -0.462891V1.53711ZM107.259 19.8691C107.259 27.4579 103.254 33.1731 93.1401 43.5268L94.5708 44.9244C104.65 34.6062 109.259 28.3585 109.259 19.8691H107.259ZM93.1464 43.5204L75.872 60.8905L77.2901 62.3009L94.5645 44.9307L93.1464 43.5204ZM75.5811 61.5957V61.835H77.5811V61.5957H75.5811ZM76.5811 62.835H109.359V60.835H76.5811V62.835ZM108.359 61.835V70.8789H110.359V61.835H108.359ZM109.359 69.8789H62.1299V71.8789H109.359V69.8789ZM63.1299 70.8789V63.6055H61.1299V70.8789H63.1299ZM62.8437 64.3058L87.7743 38.8966L86.3467 37.4959L61.4161 62.9051L62.8437 64.3058ZM87.7813 38.8895C91.9936 34.5097 94.7214 31.3399 96.3884 28.5532C98.0865 25.7147 98.6836 23.2756 98.6836 20.3955H96.6836C96.6836 22.9226 96.1801 25.0056 94.6721 27.5264C93.1331 30.0991 90.5494 33.1261 86.3398 37.5031L87.7813 38.8895ZM98.6836 20.3955C98.6836 13.5911 92.5488 8.38965 84.9551 8.38965V10.3896C91.7169 10.3896 96.6836 14.9499 96.6836 20.3955H98.6836ZM84.9551 8.38965C76.8866 8.38965 70.7002 14.2491 70.7002 22.0225H72.7002C72.7002 15.4403 77.9025 10.3896 84.9551 10.3896V8.38965ZM70.7002 22.0225V22.166H72.7002V22.0225H70.7002ZM71.7002 21.166H61.5557V23.166H71.7002V21.166ZM62.5557 22.166V22.0703H60.5557V22.166H62.5557Z" fill="#1B1B1B"/>
</svg>
