<svg width="33" height="32" viewBox="0 0 33 32" fill="none" xmlns="http://www.w3.org/2000/svg">
<circle cx="16.5" cy="16" r="16" fill="#C9EED3"/>
<path d="M12.0177 22H19.9377C20.1617 22 20.3377 21.824 20.3377 21.6V20.24C20.3377 20.016 20.1617 19.84 19.9377 19.84H15.5857L17.4737 17.952C19.1057 16.688 20.0977 15.584 20.0977 14.032C20.0977 12.048 18.6737 10.608 16.0017 10.608C13.4097 10.608 11.8417 12.32 11.7937 14.272C11.7937 14.448 11.9377 14.592 12.1457 14.592H13.8417C14.0497 14.592 14.2737 14.512 14.3537 14.224C14.4817 13.424 14.9617 12.688 16.0017 12.688C17.0417 12.688 17.4577 13.28 17.4577 14.128C17.4577 15.104 16.4337 16 14.1297 17.776L12.0177 19.872C11.6657 20.144 11.6177 20.464 11.6177 20.64V21.6C11.6177 21.824 11.7937 22 12.0177 22Z" fill="#246A37"/>
</svg>
