<svg width="112" height="73" viewBox="0 0 110 73" fill="none" xmlns="http://www.w3.org/2000/svg">
<path d="M26.9883 71.1709C19.0265 71.1709 12.7371 67.852 8.40531 61.893C4.04726 55.8978 1.62207 47.1562 1.62207 36.2822H-0.37793C-0.37793 47.42 2.10167 56.6227 6.78757 63.0689C11.4997 69.5513 18.3934 73.1709 26.9883 73.1709V71.1709ZM1.62207 36.2822C1.62207 25.4832 4.0698 16.7775 8.43964 10.7992C12.7844 4.85527 19.0754 1.53711 26.9883 1.53711V-0.462891C18.4402 -0.462891 11.5481 3.15742 6.825 9.61899C2.12698 16.0462 -0.37793 25.213 -0.37793 36.2822H1.62207ZM26.9883 1.53711C34.9264 1.53711 41.1919 4.84423 45.5057 10.7735C49.8457 16.7388 52.2588 25.4325 52.2588 36.2344H54.2588C54.2588 25.1681 51.791 16.0131 47.123 9.59687C42.4287 3.14454 35.559 -0.462891 26.9883 -0.462891V1.53711ZM52.2588 36.2344C52.2588 47.1102 49.8567 55.8646 45.5214 61.8718C41.2129 67.8418 34.9481 71.1709 26.9883 71.1709V73.1709C35.5851 73.1709 42.4555 69.5376 47.1432 63.0422C51.8039 56.5841 54.2588 47.3702 54.2588 36.2344H52.2588ZM26.9883 64.1748C32.3359 64.1748 36.5042 61.3784 39.2825 56.4848C42.0336 51.6391 43.4443 44.7208 43.4443 36.2822H41.4443C41.4443 44.5438 40.0558 51.0718 37.5432 55.4974C35.0578 59.875 31.4981 62.1748 26.9883 62.1748V64.1748ZM43.4443 36.2822C43.4443 27.9584 42.0081 21.0769 39.2453 16.239C36.4584 11.3586 32.2932 8.5332 26.9883 8.5332V10.5332C31.4451 10.5332 35.008 12.8518 37.5086 17.2308C40.0334 21.6521 41.4443 28.1451 41.4443 36.2822H43.4443ZM26.9883 8.5332C21.6824 8.5332 17.5062 11.3714 14.708 16.2557C11.9332 21.0991 10.4844 27.9806 10.4844 36.2822H12.4844C12.4844 28.1708 13.9067 21.6777 16.4434 17.2499C18.9567 12.8629 22.5324 10.5332 26.9883 10.5332V8.5332ZM10.4844 36.2822C10.4844 44.6986 11.9077 51.6168 14.6709 56.4681C17.4604 61.3655 21.6397 64.1748 26.9883 64.1748V62.1748C22.4794 62.1748 18.9068 59.8639 16.4087 55.4782C13.8843 51.0463 12.4844 44.5182 12.4844 36.2822H10.4844ZM79.5771 70.8789H78.5771V71.8789H79.5771V70.8789ZM79.5771 12.4521H80.5771V11.4521H79.5771V12.4521ZM79.3379 12.4521V11.4521H79.0187L78.7585 11.6371L79.3379 12.4521ZM61.2979 25.2764H60.2979V27.2142L61.8773 26.0914L61.2979 25.2764ZM61.2979 14.749L60.7186 13.9338L60.2979 14.2328V14.749H61.2979ZM79.4814 1.8291V0.829102H79.1624L78.9022 1.01392L79.4814 1.8291ZM90.0566 1.8291H91.0566V0.829102H90.0566V1.8291ZM90.0566 70.8789V71.8789H91.0566V70.8789H90.0566ZM80.5771 70.8789V12.4521H78.5771V70.8789H80.5771ZM79.5771 11.4521H79.3379V13.4521H79.5771V11.4521ZM78.7585 11.6371L60.7185 24.4613L61.8773 26.0914L79.9173 13.2672L78.7585 11.6371ZM62.2979 25.2764V14.749H60.2979V25.2764H62.2979ZM61.8771 15.5642L80.0607 2.64428L78.9022 1.01392L60.7186 13.9338L61.8771 15.5642ZM79.4814 2.8291H90.0566V0.829102H79.4814V2.8291ZM89.0566 1.8291V70.8789H91.0566V1.8291H89.0566ZM90.0566 69.8789H79.5771V71.8789H90.0566V69.8789Z" fill="#1B1B1B"/>
</svg>
