<svg width="12" height="12" viewBox="0 0 12 12" fill="none" xmlns="http://www.w3.org/2000/svg">
<path fill-rule="evenodd" clip-rule="evenodd" d="M0.299991 11.7105C0.479816 11.8902 0.739562 12 1.0093 12L0.998309 11.988C1.25806 11.988 1.5178 11.8782 1.70762 11.6985L1.70862 11.6995L10.002 3.41196V10.0033C10.002 10.5524 10.4415 11.0016 11.001 11.0016C11.5505 11.0016 12 10.5524 12 10.0033V1.01835C12 0.790864 11.9256 0.583215 11.8003 0.416925C11.7701 0.375561 11.7363 0.335989 11.6989 0.298624C11.4475 0.0480607 11.1052 -0.0448902 10.7889 0.0200195H2.00977C1.45031 0.0200195 1.01074 0.459283 1.01074 1.01835C1.01074 1.56742 1.45031 2.01667 2.00977 2.01667H8.562L0.290001 10.2829V10.2929C-0.0996182 10.6822 -0.0996185 11.3211 0.299991 11.7105Z" fill="#1B1B1B"/>
</svg>
