<svg width="120" height="12" viewBox="0 0 120 12" fill="none" xmlns="http://www.w3.org/2000/svg">
<path d="M57.5361 5.5361C58.3569 4.71528 58.7673 4.30487 59.234 4.13504C59.7288 3.95499 60.2712 3.95499 60.766 4.13504C61.2327 4.30487 61.6431 4.71528 62.4639 5.5361C63.2847 6.35692 63.6951 6.76733 63.865 7.23404C64.045 7.72881 64.045 8.27119 63.865 8.76596C63.6951 9.23267 63.2847 9.64308 62.4639 10.4639C61.6431 11.2847 61.2327 11.6951 60.766 11.865C60.2712 12.045 59.7288 12.045 59.234 11.865C58.7673 11.6951 58.3569 11.2847 57.5361 10.4639C56.7153 9.64308 56.3049 9.23267 56.135 8.76596C55.955 8.27119 55.955 7.72881 56.135 7.23404C56.3049 6.76733 56.7153 6.35692 57.5361 5.5361Z" fill="#246A37"/>
<rect x="30" y="7.5" width="60" height="1" rx="0.5" fill="#246A37"/>
</svg>
