<?xml version="1.0" encoding="utf-8"?>
<!-- Generator: Adobe Illustrator 25.4.1, SVG Export Plug-In . SVG Version: 6.00 Build 0)  -->
<svg version="1.1" id="Elements" xmlns="http://www.w3.org/2000/svg" xmlns:xlink="http://www.w3.org/1999/xlink" x="0px" y="0px"
	 viewBox="0 0 222.5 92.5" style="enable-background:new 0 0 222.5 92.5;" xml:space="preserve">
<style type="text/css">
	.st0{fill:url(#SVGID_1_);}
	.st1{fill:#BDB1A4;}
</style>
<linearGradient id="SVGID_1_" gradientUnits="userSpaceOnUse" x1="117.6522" y1="51.2417" x2="125.3554" y2="54.7962">
	<stop  offset="7.753456e-02" style="stop-color:#92751C"/>
	<stop  offset="0.1816" style="stop-color:#A38220"/>
	<stop  offset="0.4493" style="stop-color:#CAA027"/>
	<stop  offset="0.6846" style="stop-color:#E6B42C"/>
	<stop  offset="0.8761" style="stop-color:#F7C02F"/>
	<stop  offset="1" style="stop-color:#FDC430"/>
</linearGradient>
<path class="st0" d="M111.5,39.7c-0.4,2-0.7,4-0.7,6.1c0,15.4,12.4,27.8,27.6,27.8c9.9,0,18.6-5.3,23.4-13.2l-10.4-6.8
	c-2.7,4.5-7.5,7.5-13.1,7.5c-8.4,0-15.2-6.9-15.2-15.4c0-2.4,0.6-4.7,1.6-6.8c-3.3-0.9-6.1-1.6-6.1-1.6S114.5,39.1,111.5,39.7"/>
<path class="st1" d="M204.5,21.7c4.4,2.5,7.8,5.9,10.3,10.1c2.5,4.3,3.7,8.9,3.7,13.8c0,5-1.2,9.6-3.7,14
	c-2.5,4.3-5.8,7.7-10.1,10.2c-4.3,2.4-9,3.7-14.1,3.7c-7.6,0-14-2.7-19.4-8.1c-5.4-5.4-8-11.9-8-19.6c0-8.3,3-15.1,9.1-20.6
	c5.3-4.8,11.4-7.2,18.3-7.2C195.5,17.9,200.2,19.2,204.5,21.7 M180.4,34.7c-2.7,2.9-4.1,6.5-4.1,11c0,4.6,1.4,8.3,4.1,11.2
	c2.7,2.8,6.1,4.3,10.3,4.3c4.1,0,7.6-1.4,10.3-4.3c2.8-2.9,4.1-6.6,4.1-11.1c0-4.5-1.4-8.2-4.1-11c-2.7-2.8-6.2-4.2-10.4-4.2
	C186.6,30.4,183.2,31.8,180.4,34.7"/>
<path class="st1" d="M151.8,21.7c-4.4-2.5-9.1-3.7-14.1-3.7c-6.9,0-13,2.4-18.3,7.2c-2.8,2.5-4.9,5.3-6.4,8.4l0,0l-0.4,0.8
	c0,0,0,0.1,0,0.1l-8.2,18L90.6,19.3H77.1l20.1,48.9l-9.6,20.5H102l22.8-49.6c0.7-1.6,1.6-3.1,2.8-4.4c2.7-2.9,6.2-4.3,10.3-4.3
	c4.2,0,7.7,1.4,10.4,4.2c0.9,0.9,1.6,1.9,2.2,3l11.5-6C159.4,27.4,156.1,24.1,151.8,21.7z"/>
<path class="st1" d="M28.5,68.2c-5.3-5.9-8.6-13.8-8.6-22.5V24v-4.7V5.9H6.5v13.4l0,0v26.4l0,0c0,12.2,4.6,23.4,12.1,31.7L28.5,68.2
	z"/>
<path class="st1" d="M66.9,21.7c4.4,2.5,7.8,5.9,10.3,10.1c2.5,4.3,3.7,8.9,3.7,13.8c0,5-1.2,9.6-3.7,14C74.6,64,71.3,67.4,67,69.8
	c-4.3,2.4-9,3.7-14.1,3.7c-7.6,0-14-2.7-19.4-8.1c-5.4-5.4-8-11.9-8-19.6c0-8.3,3-15.1,9.1-20.6c5.3-4.8,11.4-7.2,18.3-7.2
	C57.8,17.9,62.5,19.2,66.9,21.7 M42.7,34.7c-2.7,2.9-4.1,6.5-4.1,11c0,4.6,1.3,8.3,4.1,11.2c2.7,2.8,6.1,4.3,10.3,4.3
	s7.6-1.4,10.3-4.3c2.8-2.9,4.1-6.6,4.1-11.1c0-4.5-1.3-8.2-4-11c-2.7-2.8-6.2-4.2-10.4-4.2C48.9,30.4,45.5,31.8,42.7,34.7"/>
</svg>
