<svg width="36" height="36" viewBox="0 0 36 36" fill="none" xmlns="http://www.w3.org/2000/svg">
<path d="M14.9027 1.19283C16.819 0.0864603 19.1799 0.0864598 21.0962 1.19283L31.0066 6.91456C32.9229 8.02094 34.1033 10.0656 34.1033 12.2783V23.7218C34.1033 25.9345 32.9229 27.9792 31.0066 29.0856L21.0962 34.8073C19.1799 35.9137 16.819 35.9137 14.9027 34.8073L4.99235 29.0856C3.07606 27.9792 1.89558 25.9345 1.89558 23.7218V12.2783C1.89558 10.0656 3.07606 8.02094 4.99235 6.91456L14.9027 1.19283Z" fill="url(#paint0_linear_2796_2522)"/>
<mask id="mask0_2796_2522" style="mask-type:alpha" maskUnits="userSpaceOnUse" x="1" y="0" width="34" height="36">
<path d="M14.9027 1.19283C16.819 0.0864603 19.1799 0.0864598 21.0962 1.19283L31.0066 6.91456C32.9229 8.02094 34.1033 10.0656 34.1033 12.2783V23.7218C34.1033 25.9345 32.9229 27.9792 31.0066 29.0856L21.0962 34.8073C19.1799 35.9137 16.819 35.9137 14.9027 34.8073L4.99235 29.0856C3.07606 27.9792 1.89558 25.9345 1.89558 23.7218V12.2783C1.89558 10.0656 3.07606 8.02094 4.99235 6.91456L14.9027 1.19283Z" fill="#83E1E1"/>
</mask>
<g mask="url(#mask0_2796_2522)">
<path d="M7.06987 14.0316L-3.55766 20.6565L-12.7647 26.8437C-13.1071 27.0738 -13.3125 27.4593 -13.3125 27.8718V57.2178C-13.3125 57.9019 -12.7579 58.4565 -12.0738 58.4565H49.2036C49.8877 58.4565 50.4423 57.9019 50.4423 57.2178V31.0057C50.4423 30.5814 50.2251 30.1866 49.8667 29.9594L18.8472 10.3005C18.3574 9.9901 17.7178 10.061 17.3079 10.4712L11.9644 15.8189C11.4805 16.3031 10.6957 16.3031 10.2119 15.8189L8.60139 14.2072C8.19394 13.7994 7.55906 13.7266 7.06987 14.0316Z" fill="url(#paint1_linear_2796_2522)"/>
<path d="M14.6468 19.1248L18 13.4998L31.5 21.3748L28.408 22.7463L20.8125 22.4998L13.5 29.2498L16.875 21.3748L14.6468 19.1248Z" fill="url(#paint2_linear_2796_2522)"/>
</g>
<defs>
<linearGradient id="paint0_linear_2796_2522" x1="17.9995" y1="-0.595093" x2="17.9995" y2="36.5952" gradientUnits="userSpaceOnUse">
<stop stop-color="#22AFFF"/>
<stop offset="1" stop-color="#1D41FF"/>
</linearGradient>
<linearGradient id="paint1_linear_2796_2522" x1="18.5649" y1="9.76941" x2="18.5649" y2="58.4565" gradientUnits="userSpaceOnUse">
<stop stop-color="#1B3573"/>
<stop offset="1" stop-color="#131E39"/>
</linearGradient>
<linearGradient id="paint2_linear_2796_2522" x1="18.5625" y1="13.4998" x2="30.375" y2="56.2498" gradientUnits="userSpaceOnUse">
<stop stop-color="white"/>
<stop offset="1" stop-color="#192E5F"/>
</linearGradient>
</defs>
</svg>
