<svg width="45" height="32" viewBox="0 0 45 32" fill="none" xmlns="http://www.w3.org/2000/svg">
<path d="M1.09396 29.9832C2.968 28.0112 4.44046 26.1737 5.51135 24.4706C6.58223 22.7675 7.11767 21.3781 7.11767 20.3025C7.11767 19.6751 6.89456 19.0924 6.44836 18.5546C6.0914 18.0168 5.51135 17.4342 4.70819 16.8067C3.45882 15.8207 2.47718 14.7899 1.76326 13.7143C1.04934 12.6387 0.692383 11.2045 0.692383 9.41176C0.692383 6.63305 1.54016 4.39215 3.23572 2.68907C4.93128 0.896359 7.07304 0 9.66101 0C12.4275 0 14.6585 0.896359 16.354 2.68907C18.1388 4.39215 19.0312 6.63305 19.0312 9.41176C19.0312 12.9076 17.5588 16.7619 14.6138 20.9748C11.7581 25.098 7.92083 28.7731 3.10186 32L1.09396 29.9832ZM27.0628 29.9832C28.9369 28.0112 30.4093 26.1737 31.4802 24.4706C32.5511 22.7675 33.0865 21.3781 33.0865 20.3025C33.0865 19.6751 32.8634 19.0924 32.4172 18.5546C32.0603 18.0168 31.4802 17.4342 30.677 16.8067C29.4277 15.8207 28.446 14.7899 27.7321 13.7143C27.0182 12.6387 26.6612 11.2045 26.6612 9.41176C26.6612 6.63305 27.509 4.39215 29.2046 2.68907C30.9001 0.896359 33.0419 0 35.6299 0C38.3963 0 40.6273 0.896359 42.3229 2.68907C44.1077 4.39215 45.0001 6.63305 45.0001 9.41176C45.0001 12.9076 43.5276 16.7619 40.5827 20.9748C37.727 25.098 33.8897 28.7731 29.0707 32L27.0628 29.9832Z" fill="#246A37"/>
</svg>
