<svg width="45" height="32" viewBox="0 0 45 32" fill="none" xmlns="http://www.w3.org/2000/svg">
<path d="M43.906 29.9832C42.032 28.0112 40.5595 26.1737 39.4887 24.4706C38.4178 22.7675 37.8823 21.3781 37.8823 20.3025C37.8823 19.6751 38.1054 19.0924 38.5516 18.5546C38.9086 18.0168 39.4887 17.4342 40.2918 16.8067C41.5412 15.8207 42.5228 14.7899 43.2367 13.7143C43.9507 12.6387 44.3076 11.2045 44.3076 9.41176C44.3076 6.63305 43.4598 4.39215 41.7643 2.68907C40.0687 0.896359 37.927 0 35.339 0C32.5725 0 30.3415 0.896359 28.646 2.68907C26.8612 4.39215 25.9688 6.63305 25.9688 9.41176C25.9688 12.9076 27.4412 16.7619 30.3862 20.9748C33.2419 25.098 37.0792 28.7731 41.8981 32L43.906 29.9832ZM17.9372 29.9832C16.0631 28.0112 14.5907 26.1737 13.5198 24.4706C12.4489 22.7675 11.9135 21.3781 11.9135 20.3025C11.9135 19.6751 12.1366 19.0924 12.5828 18.5546C12.9397 18.0168 13.5198 17.4342 14.323 16.8067C15.5723 15.8207 16.554 14.7899 17.2679 13.7143C17.9818 12.6387 18.3388 11.2045 18.3388 9.41176C18.3388 6.63305 17.491 4.39215 15.7954 2.68907C14.0999 0.896359 11.9581 0 9.37013 0C6.60369 0 4.37269 0.896359 2.67713 2.68907C0.892326 4.39215 -7.62939e-05 6.63305 -7.62939e-05 9.41176C-7.62939e-05 12.9076 1.47238 16.7619 4.41731 20.9748C7.27299 25.098 11.1103 28.7731 15.9293 32L17.9372 29.9832Z" fill="#246A37"/>
</svg>
