<svg width="60" height="60" viewBox="0 0 60 60" fill="none" xmlns="http://www.w3.org/2000/svg">
<g clip-path="url(#clip0_2691_19218)">
<g clip-path="url(#clip1_2691_19218)">
<path d="M37.0415 56.8498C36.4819 56.8403 35.9404 56.65 35.498 56.3072C35.0556 55.9645 34.736 55.4877 34.587 54.9482L30.0053 38.2669L17.1886 45.4733L16.8173 50.6606C16.7929 50.9765 16.6959 51.2825 16.5338 51.5548C16.3718 51.8271 16.149 52.0583 15.883 52.2304C15.6173 52.4015 15.3155 52.5087 15.0013 52.5433C14.6872 52.578 14.3693 52.5393 14.0726 52.4302C13.776 52.3211 13.5087 52.1446 13.2919 51.9146C13.0751 51.6847 12.9146 51.4076 12.8231 51.105L11.7489 47.1235L9.69928 48.3262C9.53988 48.4216 9.35584 48.4676 9.17031 48.4586C8.94096 48.4726 8.71378 48.4072 8.52702 48.2733C8.34026 48.1394 8.20531 47.9453 8.14485 47.7236C8.08439 47.5019 8.1021 47.2662 8.19504 47.0561C8.28797 46.8459 8.45044 46.6742 8.65511 46.5697L10.7124 45.3706L7.5038 42.9748C7.2668 42.7664 7.08132 42.506 6.96192 42.2139C6.84252 41.9218 6.79247 41.606 6.81566 41.2913C6.83886 40.9766 6.93467 40.6715 7.09561 40.4001C7.25654 40.1287 7.4782 39.8982 7.74318 39.7269C8.08939 39.5061 8.49295 39.392 8.90353 39.399C9.12779 39.4068 9.34941 39.4501 9.56014 39.5272L14.4352 41.3329L25.9484 31.957L12.6528 20.8858C12.2352 20.5425 11.9354 20.0773 11.7953 19.5552C11.6552 19.033 11.6819 18.4802 11.8716 17.974C12.0613 17.4678 12.4046 17.0336 12.8534 16.7322C13.3022 16.4308 13.8339 16.2772 14.3743 16.293C14.7354 16.3014 15.0908 16.384 15.4186 16.5356L22.4954 19.9154L23.0704 19.0059C23.1922 18.8141 23.3615 18.657 23.5619 18.55C23.7624 18.4429 23.9871 18.3896 24.2143 18.3952C24.4485 18.4001 24.6767 18.4703 24.8732 18.5979C25.1662 18.7831 25.3736 19.0769 25.4501 19.4149C25.5266 19.7529 25.4659 20.1074 25.2813 20.4007L24.8801 21.0325L27.7411 22.3506L28.4614 21.2053C28.5844 21.0146 28.754 20.8584 28.9541 20.7515C29.1543 20.6446 29.3784 20.5906 29.6053 20.5946C29.8395 20.5995 30.0678 20.6696 30.2643 20.7972C30.4102 20.8882 30.5365 21.0071 30.6362 21.1472C30.7358 21.2874 30.8066 21.4458 30.8445 21.6135C30.8825 21.7812 30.8868 21.9547 30.8572 22.124C30.8277 22.2934 30.7648 22.4552 30.6723 22.6001L30.1223 23.4752L35.3389 25.9337L46.8365 18.5233C46.8365 18.5233 50.6554 16.2089 53.1925 16.2585C53.5387 16.2419 53.8839 16.309 54.1988 16.454C54.5137 16.5991 54.7889 16.8179 55.0014 17.0919C57.345 20.3095 50.7392 24.909 50.7392 24.909L39.3655 32.2297L39.4351 37.2165L41.3633 37.1139L41.464 37.1144C41.8095 37.1093 42.1428 37.2417 42.3907 37.4824C42.6386 37.723 42.7807 38.0523 42.7858 38.3978C42.7909 38.7432 42.6585 39.0766 42.4178 39.3245C42.1772 39.5723 41.8479 39.7145 41.5024 39.7196L39.47 39.8292L39.514 42.9598L40.6751 42.8892L40.7758 42.8897C41.1104 42.9032 41.4271 43.0444 41.6607 43.2844C41.8943 43.5243 42.027 43.8447 42.0315 44.1795C42.036 44.5144 41.9119 44.8382 41.6848 45.0843C41.4577 45.3304 41.1449 45.4801 40.8107 45.5024L39.549 45.5725L39.6694 54.2528C39.672 54.6905 39.5643 55.1219 39.3564 55.5072C39.1484 55.8924 38.8468 56.2191 38.4794 56.4571C38.047 56.7385 37.5393 56.8822 37.0235 56.869" fill="#21B55C"/>
<path d="M55.0187 17.054C53.225 14.5944 46.8399 18.5157 46.8399 18.5157L35.3423 25.9262L30.1257 23.4677L30.6757 22.5925C30.8427 22.2998 30.8903 21.9541 30.8087 21.6272C30.727 21.3003 30.5224 21.0175 30.2374 20.8377C29.9524 20.6579 29.6091 20.595 29.2789 20.662C28.9487 20.7291 28.6571 20.921 28.4648 21.1977L27.7445 22.343L24.8835 21.0249L25.2847 20.3931C25.4517 20.1005 25.4993 19.7547 25.4176 19.4278C25.336 19.1009 25.1313 18.8181 24.8464 18.6383C24.5614 18.4585 24.2181 18.3956 23.8879 18.4627C23.5577 18.5297 23.266 18.7216 23.0738 18.9983L22.4988 19.9078L15.4046 16.5659C14.8328 16.3005 14.184 16.2519 13.579 16.4291C12.974 16.6063 12.454 16.9973 12.1158 17.5292C11.7776 18.0612 11.6441 18.698 11.7403 19.321C11.8365 19.944 12.1558 20.5109 12.6388 20.9161L25.9239 32.0099L14.4107 41.3859L9.53564 39.5802C9.08853 39.4152 8.59777 39.4118 8.14841 39.5706C7.69905 39.7294 7.31938 40.0404 7.07524 40.4497C6.8311 40.859 6.73787 41.3409 6.81166 41.8117C6.88546 42.2825 7.12164 42.7128 7.4793 43.0278L10.6879 45.4236L8.65503 46.5698C8.42404 46.7067 8.2569 46.9297 8.19038 47.1899C8.12386 47.4501 8.16341 47.726 8.30033 47.957C8.43725 48.1879 8.66033 48.3551 8.92048 48.4216C9.18063 48.4881 9.45654 48.4486 9.68753 48.3117L11.736 47.0717L12.8102 51.0532C12.9466 51.5122 13.2399 51.9086 13.6389 52.1732C14.0379 52.4378 14.5172 52.5538 14.9931 52.5008C15.4689 52.4479 15.911 52.2294 16.2421 51.8836C16.5732 51.5377 16.7722 51.0865 16.8043 50.6088L17.1757 45.4216L30.0052 38.2669L34.6096 54.9586C34.7769 55.5695 35.1613 56.0983 35.6907 56.4458C36.2201 56.7933 36.8582 56.9356 37.4851 56.846C38.1121 56.7564 38.6848 56.4411 39.0957 55.9592C39.5066 55.4774 39.7276 54.8621 39.717 54.2289L39.5966 45.5486L40.8584 45.4786C41.0299 45.4697 41.1981 45.427 41.3532 45.3531C41.5083 45.2792 41.6474 45.1755 41.7624 45.0479C41.8774 44.9203 41.9662 44.7712 42.0236 44.6093C42.0811 44.4474 42.1061 44.2757 42.0971 44.1041C42.0882 43.9325 42.0456 43.7644 41.9717 43.6093C41.8978 43.4542 41.7941 43.3151 41.6665 43.2001C41.5389 43.0851 41.3898 42.9963 41.2279 42.9389C41.066 42.8814 40.8943 42.8564 40.7227 42.8653L39.5617 42.936L39.5177 39.8053L41.5163 39.6893C41.6963 39.6932 41.8752 39.6598 42.0417 39.5914C42.2082 39.5229 42.3589 39.4209 42.4841 39.2915C42.6094 39.1622 42.7066 39.0084 42.7697 38.8398C42.8328 38.6712 42.8604 38.4913 42.8509 38.3115C42.8413 38.1317 42.7946 37.9558 42.7139 37.7949C42.6333 37.6339 42.5202 37.4913 42.3819 37.3761C42.2435 37.2608 42.0829 37.1754 41.91 37.125C41.7372 37.0747 41.5557 37.0606 41.3772 37.0836L39.449 37.1862L39.3793 32.1995L50.753 24.8787C50.753 24.8787 57.3623 20.2717 55.0187 17.054Z" fill="#21B55C"/>
<path d="M9.24261 48.6258L15.3686 44.9226C15.8176 44.6512 15.9616 44.0672 15.6902 43.6182L15.6126 43.4898C15.3412 43.0408 14.7571 42.8968 14.3081 43.1683L8.1821 46.8714C7.73309 47.1429 7.58915 47.7269 7.86058 48.1759L7.93817 48.3043C8.2096 48.7533 8.7936 48.8972 9.24261 48.6258Z" fill="#89FFA3"/>
<path d="M25.9345 31.9873L28.5676 30.2552L16.7192 22.2363C16.7192 22.2363 15.1547 22.9835 15.3387 23.1417L25.9345 31.9873Z" fill="#89FFA3"/>
<path d="M29.9715 38.2606L32.6454 36.5197L34.6441 48.9097L33.1757 49.8663L29.9715 38.2606Z" fill="#89FFA3"/>
</g>
</g>
<defs>
<clipPath id="clip0_2691_19218">
<rect width="60" height="60" fill="white"/>
</clipPath>
<clipPath id="clip1_2691_19218">
<rect width="40.675" height="49.5" fill="white" transform="translate(36.1025 62.5921) rotate(-155.263)"/>
</clipPath>
</defs>
</svg>
