<svg width="25" height="24" viewBox="0 0 25 24" fill="none" xmlns="http://www.w3.org/2000/svg">
<path fill-rule="evenodd" clip-rule="evenodd" d="M0.601936 23.421C0.961584 23.7804 1.48108 24 2.02055 24L1.99857 23.976C2.51806 23.976 3.03756 23.7564 3.41719 23.397L3.41918 23.399L20.0059 6.82392V20.0066C20.0059 21.1047 20.885 22.0032 22.0039 22.0032C23.1029 22.0032 24.002 21.1047 24.002 20.0066V2.03669C24.002 1.58173 23.8531 1.16644 23.6025 0.833855C23.5421 0.751125 23.4745 0.67198 23.3997 0.597248C22.8969 0.0961215 22.2124 -0.0897804 21.5797 0.0400391H4.02149C2.90258 0.0400391 2.02344 0.918566 2.02344 2.03669C2.02344 3.13485 2.90258 4.03334 4.02149 4.03334H17.1259L0.581956 20.5658V20.5857C-0.197283 21.3644 -0.197284 22.6423 0.601936 23.421Z" fill="#1B1B1B"/>
</svg>
