<svg width="36" height="36" viewBox="0 0 36 36" fill="none" xmlns="http://www.w3.org/2000/svg">
<rect width="36" height="36" rx="18" fill="#246A37"/>
<rect x="1.43652" y="1.4375" width="33.1266" height="33.1266" rx="16.5633" fill="white"/>
<rect x="2.60254" y="2.60303" width="30.7944" height="30.7944" rx="15.3972" fill="#246A37"/>
<path d="M13.5768 24.5017H12.085C12.085 22.0298 14.0888 20.0261 16.5606 20.0261C19.0324 20.0261 21.0362 22.0298 21.0362 24.5017H19.5443C19.5443 22.8538 18.2084 21.5179 16.5606 21.5179C14.9127 21.5179 13.5768 22.8538 13.5768 24.5017ZM24.2914 21.7887L23.2367 20.7339C24.216 19.7547 24.7662 18.4265 24.7662 17.0416C24.7662 15.6566 24.216 14.3284 23.2367 13.3492L24.2914 12.2944C26.9127 14.9161 26.9127 19.1663 24.2914 21.7879V21.7887ZM22.1812 19.6792L21.1264 18.6229C21.999 17.7493 21.999 16.3339 21.1264 15.4602L22.1812 14.4032C23.6377 15.8597 23.6377 18.2212 22.1812 19.6777V19.6792ZM16.5606 19.2794C14.9127 19.2794 13.5768 17.9435 13.5768 16.2956C13.5768 14.6478 14.9127 13.3119 16.5606 13.3119C18.2084 13.3119 19.5443 14.6478 19.5443 16.2956C19.5443 17.087 19.23 17.8459 18.6704 18.4055C18.1108 18.965 17.3519 19.2794 16.5606 19.2794ZM16.5606 14.8038C15.7456 14.8046 15.082 15.4593 15.0704 16.2743C15.0587 17.0892 15.7032 17.7627 16.5178 17.7868C17.3325 17.811 18.0158 17.1769 18.0524 16.3628V16.6611V16.2956C18.0524 15.4717 17.3845 14.8038 16.5606 14.8038Z" fill="white"/>
</svg>
