<svg width="73" height="111" viewBox="0 0 73 111" fill="none" xmlns="http://www.w3.org/2000/svg">
<path d="M33.7046 69.7524H41.5133V110.884H33.7046V69.7524Z" fill="#246A37"/>
<rect x="1.73535" width="70.8188" height="70.8188" rx="35.4094" fill="#246A37"/>
<rect x="4.56055" y="2.82764" width="65.1663" height="65.1663" rx="32.5832" fill="white"/>
<rect x="6.85498" y="5.12061" width="60.5783" height="60.5783" rx="30.2892" fill="#246A37"/>
<path d="M28.4436 48.199H25.5088C25.5088 43.3365 29.4506 39.3946 34.3132 39.3946C39.1757 39.3946 43.1175 43.3365 43.1175 48.199H40.1827C40.1827 44.9573 37.5548 42.3294 34.3132 42.3294C31.0715 42.3294 28.4436 44.9573 28.4436 48.199ZM49.5212 42.8621L47.4463 40.7872C49.3729 38.8608 50.4553 36.248 50.4553 33.5236C50.4553 30.7991 49.3729 28.1863 47.4463 26.26L49.5212 24.1851C54.6778 29.3424 54.6778 37.7033 49.5212 42.8606V42.8621ZM45.37 38.7123L43.2951 36.6344C45.0117 34.9157 45.0117 32.1314 43.2951 30.4127L45.37 28.3334C48.2352 31.1986 48.2352 35.8441 45.37 38.7093V38.7123ZM34.3132 37.9257C31.0715 37.9257 28.4436 35.2978 28.4436 32.0562C28.4436 28.8145 31.0715 26.1866 34.3132 26.1866C37.5548 26.1866 40.1827 28.8145 40.1827 32.0562C40.1827 33.6129 39.5643 35.1058 38.4636 36.2066C37.3628 37.3073 35.8699 37.9257 34.3132 37.9257ZM34.3132 29.1214C32.7099 29.123 31.4046 30.411 31.3816 32.0141C31.3587 33.6172 32.6265 34.9421 34.2291 34.9897C35.8316 35.0372 37.1758 33.7899 37.248 32.1882V32.7752V32.0562C37.248 30.4353 35.934 29.1214 34.3132 29.1214Z" fill="white"/>
</svg>
