<svg width="36" height="36" viewBox="0 0 36 36" fill="none" xmlns="http://www.w3.org/2000/svg">
<rect width="36" height="36" rx="18" fill="#246A37"/>
<rect x="1.4375" y="1.43652" width="33.1266" height="33.1266" rx="16.5633" fill="white"/>
<rect x="2.60254" y="2.60205" width="30.7944" height="30.7944" rx="15.3972" fill="#246A37"/>
<path d="M20.4189 25.2763H16.0525V23.8209H20.4189V25.2763ZM20.4189 23.0931H16.0525L15.8902 21.6377C15.8029 21.1562 15.6586 20.6869 15.4602 20.2397C15.2025 19.8758 14.934 19.5651 14.6742 19.2616C13.7195 18.3667 13.1668 17.1241 13.1416 15.8158C13.1416 13.0024 15.4223 10.7217 18.2357 10.7217C21.0491 10.7217 23.3299 13.0024 23.3299 15.8158C23.3003 17.1161 22.7518 18.3506 21.8067 19.2442L21.7943 19.2587C21.5353 19.5622 21.2675 19.8766 21.0149 20.2368C20.8167 20.6852 20.6719 21.1554 20.5834 21.6377L20.4189 23.0931ZM18.2357 12.1771C16.2272 12.1796 14.5995 13.8072 14.5971 15.8158C14.5971 16.9394 15.0657 17.4845 15.7745 18.3105C16.0438 18.6249 16.3494 18.98 16.6478 19.3955C17.0099 20.0991 17.2573 20.856 17.3806 21.6377H19.0915C19.2181 20.8583 19.4651 20.1033 19.8236 19.3999C20.1147 18.9844 20.4197 18.627 20.6882 18.3127L20.6991 18.2996C21.4065 17.4699 21.8744 16.922 21.8744 15.8158C21.872 13.8072 20.2443 12.1796 18.2357 12.1771Z" fill="white"/>
</svg>
