<svg width="44" height="71" viewBox="0 0 44 71" fill="none" xmlns="http://www.w3.org/2000/svg">
<path d="M19.2354 41.2197H23.8153V70.5313H19.2354V41.2197Z" fill="#246A37"/>
<rect x="0.891602" y="0.0180664" width="41.5367" height="41.5367" rx="20.7683" fill="#246A37"/>
<rect x="2.54932" y="1.67578" width="38.2213" height="38.2213" rx="19.1107" fill="white"/>
<rect x="3.89551" y="3.02051" width="35.5304" height="35.5304" rx="17.7652" fill="#246A37"/>
<path d="M24.4512 29.1818H19.4133V27.5025H24.4512V29.1818ZM24.4512 26.6628H19.4133L19.2261 24.9835C19.1253 24.428 18.9587 23.8866 18.7298 23.3705C18.4326 22.9507 18.1228 22.5922 17.823 22.242C16.7215 21.2095 16.0838 19.7758 16.0547 18.2663C16.0547 15.0202 18.6862 12.3887 21.9323 12.3887C25.1784 12.3887 27.8099 15.0202 27.8099 18.2663C27.7757 19.7666 27.1429 21.1909 26.0525 22.2219L26.0382 22.2387C25.7393 22.5888 25.4303 22.9515 25.1389 23.3672C24.9102 23.8846 24.7431 24.4271 24.641 24.9835L24.4512 26.6628ZM21.9323 14.068C19.6148 14.0708 17.7368 15.9488 17.734 18.2663C17.734 19.5627 18.2747 20.1916 19.0926 21.1446C19.4032 21.5073 19.7559 21.9171 20.1001 22.3965C20.5179 23.2083 20.8034 24.0817 20.9457 24.9835H22.9197C23.0657 24.0843 23.3507 23.2132 23.7644 22.4016C24.1003 21.9221 24.4521 21.5098 24.7619 21.1471L24.7745 21.132C25.5907 20.1748 26.1306 19.5425 26.1306 18.2663C26.1278 15.9488 24.2498 14.0708 21.9323 14.068Z" fill="white"/>
</svg>
