<svg width="54" height="81" viewBox="0 0 54 81" fill="none" xmlns="http://www.w3.org/2000/svg">
<path d="M24.7153 51.4526H30.4139V80.1519H24.7153V51.4526Z" fill="#246A37"/>
<rect x="1.38477" y="0.549316" width="51.6814" height="51.6814" rx="25.8407" fill="#246A37"/>
<rect x="3.44727" y="2.6123" width="47.5564" height="47.5564" rx="23.7782" fill="white"/>
<rect x="5.12158" y="4.28564" width="44.2082" height="44.2082" rx="22.1041" fill="#246A37"/>
<path d="M29.8552 39.1302H25.3233C24.7383 39.1302 24.2321 38.723 24.1069 38.1516L23.6002 35.8059C22.9242 35.5097 22.2832 35.1394 21.6891 34.7016L19.4019 35.4299C18.8442 35.6078 18.2378 35.373 17.9453 34.8659L15.6743 30.9428C15.385 30.4355 15.4846 29.7955 15.9146 29.4002L17.6888 27.7817C17.6081 27.0485 17.6081 26.3087 17.6888 25.5755L15.9146 23.9607C15.484 23.5652 15.3843 22.9245 15.6743 22.4168L17.9403 18.4912C18.2328 17.9841 18.8392 17.7494 19.397 17.9272L21.6841 18.6556C21.988 18.4304 22.3043 18.2226 22.6316 18.0331C22.9457 17.8559 23.2691 17.6955 23.6002 17.5525L24.1082 15.2093C24.2328 14.6378 24.7384 14.2301 25.3233 14.2295H29.8552C30.4402 14.2301 30.9458 14.6378 31.0704 15.2093L31.5833 17.5537C31.9329 17.7075 32.2734 17.8813 32.603 18.0742C32.9105 18.252 33.2077 18.4469 33.4932 18.6581L35.7816 17.9297C36.339 17.7525 36.9446 17.9872 37.237 18.4937L39.503 22.4193C39.7924 22.9267 39.6927 23.5666 39.2627 23.9619L37.4885 25.5805C37.5692 26.3136 37.5692 27.0535 37.4885 27.7867L39.2627 29.4052C39.6927 29.8005 39.7924 30.4405 39.503 30.9478L37.237 34.8734C36.9446 35.3799 36.339 35.6146 35.7816 35.4374L33.4932 34.709C33.2037 34.9223 32.9028 35.1197 32.5918 35.3004C32.2654 35.4896 31.9287 35.6604 31.5833 35.8121L31.0704 38.1516C30.9453 38.7226 30.4398 39.1297 29.8552 39.1302ZM22.136 31.9451L23.157 32.6921C23.3871 32.8616 23.627 33.0175 23.8753 33.159C24.109 33.2943 24.3497 33.4173 24.5962 33.5275L25.7578 34.0367L26.3268 36.6401H28.8542L29.4232 34.0355L30.5848 33.5263C31.0919 33.3026 31.5733 33.0246 32.0204 32.6971L33.0425 31.95L35.5836 32.7593L36.8473 30.5706L34.8765 28.774L35.0159 27.514C35.0772 26.9629 35.0772 26.4067 35.0159 25.8556L34.8765 24.5956L36.8486 22.7953L35.5836 20.6053L33.0425 21.4146L32.0204 20.6676C31.5731 20.3385 31.0919 20.0584 30.5848 19.8321L29.4232 19.3229L28.8542 16.7196H26.3268L25.7553 19.3242L24.5962 19.8321C24.3495 19.9405 24.1088 20.0623 23.8753 20.1969C23.6285 20.338 23.3899 20.4931 23.1607 20.6613L22.1385 21.4084L19.5987 20.5991L18.3325 22.7953L20.3033 24.5894L20.1639 25.8506C20.1026 26.4017 20.1026 26.9579 20.1639 27.509L20.3033 28.769L18.3325 30.5656L19.5962 32.7543L22.136 31.9451ZM27.5843 31.66C24.8338 31.66 22.6042 29.4303 22.6042 26.6798C22.6042 23.9294 24.8338 21.6997 27.5843 21.6997C30.3348 21.6997 32.5644 23.9294 32.5644 26.6798C32.561 29.4289 30.3333 31.6565 27.5843 31.66ZM27.5843 24.1898C26.224 24.1911 25.1165 25.284 25.097 26.6441C25.0775 28.0043 26.1532 29.1284 27.5129 29.1688C28.8727 29.2092 30.0131 28.1508 30.0744 26.7919V27.2899V26.6798C30.0744 25.3046 28.9595 24.1898 27.5843 24.1898Z" fill="white"/>
</svg>
