<svg width="36" height="36" viewBox="0 0 36 36" fill="none" xmlns="http://www.w3.org/2000/svg">
<rect width="36" height="36" rx="18" fill="#246A37"/>
<rect x="1.43652" y="1.43701" width="33.1266" height="33.1266" rx="16.5633" fill="white"/>
<rect x="2.60254" y="2.60254" width="30.7943" height="30.7943" rx="15.3972" fill="#246A37"/>
<path d="M19.8319 26.875H16.6751C16.2676 26.875 15.915 26.5914 15.8278 26.1933L15.4748 24.5594C15.0039 24.3531 14.5574 24.0951 14.1436 23.7901L12.5504 24.2975C12.1619 24.4214 11.7395 24.2578 11.5357 23.9046L9.95383 21.1719C9.75227 20.8185 9.82171 20.3727 10.1212 20.0973L11.3571 18.9699C11.3009 18.4592 11.3009 17.9438 11.3571 17.4331L10.1212 16.3083C9.82127 16.0328 9.7518 15.5865 9.95383 15.2329L11.5322 12.4984C11.736 12.1452 12.1584 11.9816 12.5469 12.1055L14.1401 12.6129C14.3518 12.4561 14.5721 12.3113 14.8001 12.1793C15.0189 12.0558 15.2441 11.9441 15.4748 11.8445L15.8286 10.2123C15.9154 9.81422 16.2676 9.53021 16.6751 9.52979H19.8319C20.2394 9.53021 20.5916 9.81422 20.6784 10.2123L21.0357 11.8454C21.2792 11.9525 21.5163 12.0735 21.7459 12.2079C21.9601 12.3317 22.1671 12.4675 22.366 12.6146L23.9601 12.1073C24.3483 11.9838 24.7702 12.1473 24.9739 12.5001L26.5523 15.2346C26.7539 15.588 26.6844 16.0338 26.3849 16.3092L25.1491 17.4366C25.2053 17.9473 25.2053 18.4627 25.1491 18.9734L26.3849 20.1008C26.6844 20.3762 26.7539 20.8219 26.5523 21.1753L24.9739 23.9098C24.7702 24.2626 24.3483 24.4261 23.9601 24.3027L22.366 23.7953C22.1643 23.9439 21.9547 24.0814 21.7381 24.2073C21.5108 24.339 21.2762 24.458 21.0357 24.5637L20.6784 26.1933C20.5912 26.5911 20.2391 26.8746 19.8319 26.875ZM14.4549 21.87L15.1661 22.3904C15.3264 22.5085 15.4935 22.617 15.6665 22.7156C15.8292 22.8099 15.9969 22.8956 16.1686 22.9723L16.9778 23.327L17.3741 25.1405H19.1346L19.531 23.3261L20.3401 22.9714C20.6934 22.8157 21.0286 22.622 21.3401 22.3938L22.0521 21.8735L23.8222 22.4372L24.7024 20.9126L23.3296 19.6611L23.4267 18.7834C23.4694 18.3996 23.4694 18.0121 23.4267 17.6283L23.3296 16.7506L24.7033 15.4965L23.8222 13.971L22.0521 14.5347L21.3401 14.0144C21.0285 13.7852 20.6933 13.5901 20.3401 13.4325L19.531 13.0777L19.1346 11.2643H17.3741L16.976 13.0786L16.1686 13.4325C15.9967 13.5079 15.8291 13.5928 15.6665 13.6866C15.4945 13.7848 15.3283 13.8928 15.1687 14.01L14.4566 14.5304L12.6874 13.9667L11.8054 15.4965L13.1783 16.7462L13.0812 17.6248C13.0385 18.0087 13.0385 18.3961 13.0812 18.78L13.1783 19.6576L11.8054 20.9091L12.6857 22.4337L14.4549 21.87ZM18.25 21.6714C16.3341 21.6714 14.781 20.1183 14.781 18.2024C14.781 16.2865 16.3341 14.7333 18.25 14.7333C20.1659 14.7333 21.7191 16.2865 21.7191 18.2024C21.7167 20.1173 20.1649 21.669 18.25 21.6714ZM18.25 16.4679C17.3025 16.4688 16.531 17.23 16.5174 18.1775C16.5039 19.125 17.2532 19.908 18.2003 19.9361C19.1475 19.9642 19.9419 19.227 19.9845 18.2804V18.6273V18.2024C19.9845 17.2444 19.208 16.4679 18.25 16.4679Z" fill="white"/>
</svg>
