<svg width="46" height="47" viewBox="0 0 46 47" fill="none" xmlns="http://www.w3.org/2000/svg">
<path d="M44.5506 27.5249C44.1006 29.4293 43.4256 31.4459 42.6382 33.1263C40.5008 37.2714 37.1259 40.5202 32.9636 42.6487C28.6888 44.7773 23.6265 45.6735 18.5642 44.5532C6.63979 42.0886 -1.00987 30.4376 1.46502 18.5626C3.93991 6.68754 15.5269 -1.04244 27.4513 1.53422C31.7262 2.43045 35.4385 4.55899 38.5883 7.47174C43.8756 12.8491 46.013 20.355 44.5506 27.5249Z" fill="#246A37" stroke="white" stroke-width="2" stroke-miterlimit="10"/>
<path d="M29.9243 21.1391H24.862V16.0978C24.862 15.0896 24.0745 14.1934 22.9496 14.1934C21.9371 14.1934 21.0372 14.9776 21.0372 16.0978V21.1391H15.9749C14.9625 21.1391 14.0625 21.9233 14.0625 23.0436C14.0625 24.1639 14.85 24.9481 15.9749 24.9481H21.0372V29.9894C21.0372 30.9977 21.8246 31.8939 22.9496 31.8939C23.9621 31.8939 24.862 31.1097 24.862 29.9894V24.9481H29.9243C30.9367 24.9481 31.8367 24.1639 31.8367 23.0436C31.9492 21.9233 31.0492 21.1391 29.9243 21.1391Z" fill="white"/>
</svg>
