<svg width="162" height="127" viewBox="0 0 162 127" fill="none" xmlns="http://www.w3.org/2000/svg">
<path d="M81.533 125.09C115.589 125.09 143.217 97.3258 143.217 62.996C143.217 28.6663 115.589 1.03833 81.533 1.03833C47.4768 1.03833 19.8489 28.803 19.8489 63.1328C19.8489 97.4626 47.4768 125.09 81.533 125.09Z" fill="#F1F3F9" stroke="#D6DCE8" stroke-width="2" stroke-miterlimit="10"/>
<path d="M111.896 125.27C102.459 125.543 91.2438 125.27 83.1743 125.133C75.2415 125.406 63.8894 125.543 54.4521 125.27C63.7526 119.936 67.0352 110.088 67.4455 103.523H98.6295C99.4501 109.951 102.733 119.936 111.896 125.27Z" fill="#F1F3F9" stroke="#D6DCE8" stroke-width="2" stroke-miterlimit="10"/>
<path d="M142.123 20.776V102.429C142.123 104.48 140.482 105.985 138.704 105.985H28.3287C26.4139 105.985 24.9094 104.344 24.9094 102.429V20.776C24.9094 18.8612 26.5507 17.22 28.3287 17.22H138.567C140.618 17.22 142.123 18.8612 142.123 20.776Z" fill="white" stroke="#D6DCE8" stroke-width="2" stroke-miterlimit="10"/>
<path d="M142.123 20.776V91.0768H24.9094V20.776C24.9094 18.8612 26.5507 17.22 28.3287 17.22H138.567C140.618 17.22 142.123 18.8612 142.123 20.776Z" fill="white" stroke="#D6DCE8" stroke-width="2" stroke-miterlimit="10"/>
<path d="M83.3109 101.114C84.9522 101.114 86.1831 99.8829 86.1831 98.2416C86.1831 96.6003 84.9522 95.3694 83.3109 95.3694C81.6697 95.3694 80.4387 96.6003 80.4387 98.2416C80.4387 99.8829 81.6697 101.114 83.3109 101.114Z" fill="#D6DCE8"/>
<path d="M131.318 33.7695V42.1126C131.318 43.3436 130.361 44.301 129.13 44.301H37.2189C35.9879 44.301 35.0305 43.3436 35.0305 42.1126V33.7695C35.0305 32.5386 35.9879 31.5812 37.2189 31.5812H128.993C130.361 31.4444 131.318 32.5386 131.318 33.7695Z" fill="#D6DCE8"/>
<path d="M47.8871 31.4443V44.4377H37.0821C35.8512 44.4377 34.8938 43.4803 34.8938 42.2493V33.9062C34.8938 32.6753 35.8512 31.7179 37.0821 31.7179L47.8871 31.4443Z" fill="#E3EAF2"/>
<path opacity="0.8" d="M131.318 51.2761V59.6192C131.318 60.8501 130.361 61.8076 129.13 61.8076H37.2189C35.9879 61.8076 35.0305 60.8501 35.0305 59.6192V51.2761C35.0305 50.0452 35.9879 49.0878 37.2189 49.0878H128.993C130.361 48.951 131.318 50.0452 131.318 51.2761Z" fill="#D6DCE8"/>
<path d="M47.8871 31.4443V44.4377H37.0821C35.8512 44.4377 34.8938 43.4803 34.8938 42.2493V33.9062C34.8938 32.6753 35.8512 31.7179 37.0821 31.7179L47.8871 31.4443Z" fill="#57B872"/>
<path d="M41.0485 40.7447C40.775 40.7447 40.5015 40.6079 40.3647 40.4711L38.3131 38.4196C37.9028 38.0092 37.9028 37.4622 38.3131 37.0518C38.7234 36.6415 39.2705 36.6415 39.6808 37.0518L40.9118 38.2828L43.9208 35.2738C44.3311 34.8635 44.8782 34.8635 45.2885 35.2738C45.6988 35.6841 45.6988 36.2312 45.2885 36.6415L41.5956 40.3344C41.4589 40.6079 41.1853 40.7447 41.0485 40.7447Z" fill="white"/>
<path opacity="0.5" d="M131.318 68.7831V77.1262C131.318 78.3572 130.361 79.3146 129.13 79.3146H37.2189C35.9879 79.3146 35.0305 78.3572 35.0305 77.1262V68.7831C35.0305 67.5522 35.9879 66.5948 37.2189 66.5948H128.993C130.361 66.458 131.318 67.4154 131.318 68.7831Z" fill="#D6DCE8"/>
<path opacity="0.3" d="M131.318 86.0836V90.041H34.8938V86.0836C34.8938 84.8527 35.8512 83.8953 37.0821 83.8953H128.993C130.361 83.8953 131.318 84.8527 131.318 86.0836Z" fill="#D6DCE8"/>
<path d="M33.7996 120.757C33.7996 123.082 31.8848 124.996 29.5596 124.996H6.03485C3.70973 124.996 1.79492 123.082 1.79492 120.757V65.5007C1.79492 63.1756 3.70973 61.2607 6.03485 61.2607H29.4229C31.748 61.2607 33.6628 63.1756 33.6628 65.5007L33.7996 120.757Z" fill="white"/>
<path d="M29.5596 61.1238C31.8848 61.1238 33.7996 63.0386 33.7996 65.3637V120.62C33.7996 122.945 31.8848 124.86 29.5596 124.86H6.03485C3.70973 124.86 1.79492 122.945 1.79492 120.62V65.5005C1.79492 63.1754 3.70973 61.2605 6.03485 61.2605L29.5596 61.1238Z" fill="#F1F3F9" stroke="#D6DCE8" stroke-width="2" stroke-miterlimit="10"/>
<path d="M31.7479 65.5005V120.756C31.7479 121.851 30.9273 122.945 29.6963 122.945H29.5596H6.03479H5.89802C4.80384 122.945 3.84644 121.987 3.84644 120.756V65.5005C3.84644 64.2695 4.80384 63.3121 5.89802 63.3121H9.31731C9.8644 63.3121 10.1379 63.7224 10.1379 64.1328C10.1379 64.9534 10.8218 65.774 11.7792 65.774H23.6784C24.499 65.774 25.3196 65.0902 25.3196 64.1328C25.3196 63.5857 25.73 63.3121 26.0035 63.3121H29.286C30.6537 63.1754 31.7479 64.2695 31.7479 65.5005Z" fill="white"/>
<path d="M19.8488 64.1328H16.7031C16.4295 64.1328 16.156 63.8592 16.156 63.5857C16.156 63.3121 16.4295 63.0386 16.7031 63.0386H19.8488C20.1224 63.0386 20.3959 63.3121 20.3959 63.5857C20.2592 63.8592 19.9856 64.1328 19.8488 64.1328Z" fill="white"/>
<path d="M14.9251 64.1328H14.6516C14.378 64.1328 14.1045 63.8592 14.1045 63.5857C14.1045 63.3121 14.378 63.0386 14.6516 63.0386H14.9251C15.1987 63.0386 15.4722 63.3121 15.4722 63.5857C15.4722 63.8592 15.1987 64.1328 14.9251 64.1328Z" fill="white"/>
<path d="M28.4655 83.8281H7.12909C6.44523 83.8281 6.03491 83.281 6.03491 82.7339V71.9289C6.03491 71.245 6.582 70.8347 7.12909 70.8347H28.6023C29.2861 70.8347 29.6965 71.3818 29.6965 71.9289V82.7339C29.5597 83.281 29.1494 83.8281 28.4655 83.8281Z" fill="#57B872"/>
<path d="M16.9765 80.1351C16.703 80.1351 16.4294 79.9983 16.2927 79.8615L14.2411 77.8099C13.8308 77.3996 13.8308 76.8525 14.2411 76.4422C14.6514 76.0319 15.1985 76.0319 15.6088 76.4422L16.8398 77.6732L19.8487 74.6642C20.2591 74.2539 20.8061 74.2539 21.2165 74.6642C21.6268 75.0745 21.6268 75.6216 21.2165 76.0319L17.6604 79.588C17.3868 79.9983 17.1133 80.1351 16.9765 80.1351Z" fill="white"/>
<path opacity="0.8" d="M28.4655 99.967H7.12909C6.44523 99.967 6.03491 99.4199 6.03491 98.8728V88.0678C6.03491 87.384 6.582 86.9736 7.12909 86.9736H28.6023C29.2861 86.9736 29.6965 87.5207 29.6965 88.0678V98.8728C29.5597 99.4199 29.1494 99.967 28.4655 99.967Z" fill="#D6DCE8"/>
<path opacity="0.5" d="M28.4655 116.106H7.12909C6.44523 116.106 6.03491 115.559 6.03491 115.012V104.207C6.03491 103.523 6.582 103.113 7.12909 103.113H28.6023C29.2861 103.113 29.6965 103.66 29.6965 104.207V115.012C29.5597 115.696 29.1494 116.106 28.4655 116.106Z" fill="#D6DCE8"/>
<path opacity="0.3" d="M29.5597 120.62V122.808H29.423H6.03497H5.89819V120.62C5.89819 119.936 6.44528 119.525 6.99237 119.525H28.4656C29.1494 119.525 29.5597 120.072 29.5597 120.62Z" fill="#D6DCE8"/>
<path d="M33.3892 26.7942C34.073 26.7942 34.6201 26.2471 34.6201 25.5632C34.6201 24.8794 34.073 24.3323 33.3892 24.3323C32.7053 24.3323 32.1582 24.8794 32.1582 25.5632C32.1582 26.2471 32.7053 26.7942 33.3892 26.7942Z" fill="#E3EAF2"/>
<path d="M37.3557 26.7942C38.0396 26.7942 38.5867 26.2471 38.5867 25.5632C38.5867 24.8794 38.0396 24.3323 37.3557 24.3323C36.6718 24.3323 36.1248 24.8794 36.1248 25.5632C36.1248 26.2471 36.6718 26.7942 37.3557 26.7942Z" fill="#E3EAF2"/>
<path d="M41.322 26.7942C42.0059 26.7942 42.553 26.2471 42.553 25.5632C42.553 24.8794 42.0059 24.3323 41.322 24.3323C40.6382 24.3323 40.0911 24.8794 40.0911 25.5632C40.0911 26.2471 40.6382 26.7942 41.322 26.7942Z" fill="#E3EAF2"/>
<path d="M2.22046 125.419L160.205 125.419" stroke="#D6DCE8" stroke-width="2" stroke-miterlimit="10" stroke-linecap="round" stroke-linejoin="round"/>
<path d="M12.4591 55.6656C14.7235 55.6656 16.5591 53.8299 16.5591 51.5656C16.5591 49.3012 14.7235 47.4656 12.4591 47.4656C10.1948 47.4656 8.35913 49.3012 8.35913 51.5656C8.35913 53.8299 10.1948 55.6656 12.4591 55.6656Z" fill="#F1F3F9"/>
<path d="M8.35909 42.3656C9.90548 42.3656 11.1591 41.112 11.1591 39.5656C11.1591 38.0192 9.90548 36.7656 8.35909 36.7656C6.81269 36.7656 5.55908 38.0192 5.55908 39.5656C5.55908 41.112 6.81269 42.3656 8.35909 42.3656Z" fill="#F1F3F9"/>
<path d="M125.383 9.55313C126.93 9.55313 128.183 8.29952 128.183 6.75312C128.183 5.20673 126.93 3.95312 125.383 3.95312C123.837 3.95312 122.583 5.20673 122.583 6.75312C122.583 8.29952 123.837 9.55313 125.383 9.55313Z" fill="#F1F3F9"/>
<path d="M155.005 65.9791C157.877 65.9791 160.205 63.651 160.205 60.7791C160.205 57.9072 157.877 55.5791 155.005 55.5791C152.133 55.5791 149.805 57.9072 149.805 60.7791C149.805 63.651 152.133 65.9791 155.005 65.9791Z" fill="#F1F3F9"/>
</svg>
