<svg width="1928" height="804" viewBox="0 0 1928 804" fill="none" xmlns="http://www.w3.org/2000/svg">
<path d="M1865.25 72.1071C1823.54 52.3175 1775.65 61.1129 1743.67 90.5903C1731.23 76.6961 1715.89 64.9688 1697.97 56.4921C1627.73 23.1588 1544.09 51.5208 1508.28 119.749C1501.93 115.383 1495.2 111.432 1488.03 108.022C1416.03 73.8599 1329.93 104.484 1295.72 176.441C1253.53 156.779 1203.18 155.345 1157.84 176.855C1149.81 180.679 1142.25 185.077 1135.14 189.985C1095.02 113.503 1001.31 81.7311 922.548 119.08C902.491 128.608 885.272 141.737 871.338 157.321C835.497 124.274 781.831 114.427 735.085 136.607C725.774 141.036 717.26 146.486 709.639 152.764C709.225 151.871 708.874 150.979 708.46 150.087C670.132 69.4303 573.642 35.1091 492.936 73.4137C484.901 77.2378 477.344 81.6355 470.233 86.5431C430.215 10.0931 336.5 -21.7105 257.739 15.6699C237.682 25.1983 220.463 38.3277 206.529 53.9108C170.72 20.8643 117.022 10.9854 70.3082 33.1652C8.89409 62.292 -17.2212 135.683 11.9233 197.027C27.7711 230.393 56.7244 253.305 89.6954 262.611C48.0193 324.115 39.059 405.408 73.2417 477.333C103.056 540.048 159.081 581.858 221.994 595.944C223.556 600.055 225.246 604.166 227.16 608.213C265.488 688.869 361.977 723.19 442.683 684.886C497.975 658.627 531.519 605.09 534.804 548.047C573.387 561.272 616.944 560.061 656.675 541.196C681.451 529.437 701.827 512.196 717.101 491.61C717.611 521.597 724.371 551.967 738.082 580.807C767.897 643.522 823.922 685.332 886.835 699.385C888.397 703.496 890.087 707.607 892 711.654C930.328 792.311 1026.82 826.632 1107.52 788.327C1162.82 762.069 1196.36 708.531 1199.64 651.489C1238.23 664.714 1281.79 663.503 1321.52 644.637C1366.48 623.286 1397.02 583.898 1408.66 539.252C1423.04 538.774 1437.23 536.129 1450.72 531.508C1453.66 582.432 1483.56 630.201 1532.93 653.624C1604.93 687.786 1691.02 657.161 1725.24 585.205C1726.96 581.603 1728.46 577.939 1729.86 574.274C1786.01 561.718 1836.01 524.401 1862.6 468.442C1893.12 404.229 1885.12 331.699 1847.94 276.823C1877.37 268.506 1903.2 248.079 1917.35 218.315C1943.37 163.567 1920.06 98.111 1865.25 72.1071V72.1071Z" fill="url(#paint0_linear_1_2)"/>
<defs>
<linearGradient id="paint0_linear_1_2" x1="964" y1="0" x2="964" y2="804" gradientUnits="userSpaceOnUse">
<stop stop-color="white"/>
<stop offset="1" stop-color="#FCFCFD" stop-opacity="0"/>
</linearGradient>
</defs>
</svg>
