<svg width="28" height="28" viewBox="0 0 28 28" fill="none" xmlns="http://www.w3.org/2000/svg">
<path d="M20.7783 6.405V7.26834L16.6483 4.87667C15.085 3.97834 12.9033 3.97834 11.3517 4.87667L7.22168 7.28V6.405C7.22168 3.78 8.65668 2.33334 11.2817 2.33334H16.7183C19.3433 2.33334 20.7783 3.78 20.7783 6.405Z" fill="#dfdfdf"/>
<path d="M20.8133 9.29833L20.6499 9.21667L19.0633 8.30667L15.7733 6.405C14.7699 5.82167 13.2299 5.82167 12.2266 6.405L8.93659 8.295L7.34992 9.22833L7.13992 9.33333C5.09825 10.71 4.95825 10.9667 4.95825 13.1717V18.445C4.95825 20.65 5.09825 20.9067 7.18659 22.3183L12.2266 25.2233C12.7283 25.5267 13.3583 25.655 13.9999 25.655C14.6299 25.655 15.2716 25.515 15.7733 25.2233L20.8599 22.2833C22.9133 20.9067 23.0416 20.6617 23.0416 18.445V13.1717C23.0416 10.9667 22.9016 10.71 20.8133 9.29833ZM17.2549 15.75L16.5433 16.625C16.4266 16.7533 16.3449 16.9983 16.3566 17.1733L16.4266 18.2933C16.4733 18.9817 15.9833 19.3317 15.3416 19.0867L14.3033 18.6667C14.1399 18.6083 13.8716 18.6083 13.7083 18.6667L12.6699 19.075C12.0283 19.3317 11.5383 18.97 11.5849 18.2817L11.6549 17.1617C11.6666 16.9867 11.5849 16.7417 11.4683 16.6133L10.7449 15.75C10.3016 15.225 10.4999 14.6417 11.1649 14.4667L12.2499 14.1867C12.4249 14.14 12.6233 13.9767 12.7166 13.8367L13.3233 12.9033C13.6966 12.32 14.2916 12.32 14.6766 12.9033L15.2833 13.8367C15.3766 13.9883 15.5866 14.14 15.7499 14.1867L16.8349 14.4667C17.4999 14.6417 17.6983 15.225 17.2549 15.75Z" fill="#dfdfdf"/>
</svg>
