<svg width="28" height="28" viewBox="0 0 28 28" fill="none" xmlns="http://www.w3.org/2000/svg">
<path d="M10.3599 5.36667C9.42661 1.33 3.34828 1.31834 2.41495 5.36667C1.86661 7.735 3.37161 9.74167 4.67828 10.99C6.13662 12.3832 6.33167 12.5939 8 11C9.30667 9.75167 10.8966 7.735 10.3599 5.36667ZM6.42828 7.23334C5.78661 7.23334 5.26161 6.70834 5.26161 6.06667C5.26161 5.425 5.77495 4.9 6.41661 4.9H6.42828C7.08161 4.9 7.59495 5.425 7.59495 6.06667C7.59495 6.70834 7.08161 7.23334 6.42828 7.23334Z" fill="#92B59B"/>
<path d="M25.0609 19.0319C24.1275 14.9952 18.0492 14.9835 17.1159 19.0319C16.5675 21.4002 18.0725 23.4069 19.3792 24.6552C20.8375 26.0484 21.0326 26.2591 22.7009 24.6652C24.0076 23.4169 25.5975 21.4002 25.0609 19.0319ZM21.1292 20.8985C20.4875 20.8985 19.9625 20.3735 19.9625 19.7319C19.9625 19.0902 20.4759 18.5652 21.1175 18.5652H21.1292C21.7825 18.5652 22.2959 19.0902 22.2959 19.7319C22.2959 20.3735 21.7825 20.8985 21.1292 20.8985Z" fill="#92B59B"/>
<path d="M13.9998 23.0417H10.8732C9.51985 23.0417 8.34152 22.225 7.87485 20.965C7.39652 19.705 7.74652 18.3167 8.76152 17.4183L18.0832 9.26334C18.6432 8.77334 18.6549 8.10834 18.4915 7.65334C18.3165 7.19834 17.8732 6.70834 17.1265 6.70834H13.9998C13.5215 6.70834 13.1248 6.31167 13.1248 5.83334C13.1248 5.355 13.5215 4.95834 13.9998 4.95834H17.1265C18.4799 4.95834 19.6582 5.775 20.1249 7.035C20.6032 8.295 20.2532 9.68334 19.2382 10.5817L9.91652 18.7367C9.35652 19.2267 9.34485 19.8917 9.50818 20.3467C9.68318 20.8017 10.1265 21.2917 10.8732 21.2917H13.9998C14.4782 21.2917 14.8748 21.6883 14.8748 22.1667C14.8748 22.645 14.4782 23.0417 13.9998 23.0417Z" fill="#92B59B"/>
</svg>
