<svg width="28" height="28" viewBox="0 0 28 28" fill="none" xmlns="http://www.w3.org/2000/svg">
<path d="M23.3333 16.625C24.783 16.625 25.9583 15.4497 25.9583 14C25.9583 12.5503 24.783 11.375 23.3333 11.375C21.8835 11.375 20.7083 12.5503 20.7083 14C20.7083 15.4497 21.8835 16.625 23.3333 16.625Z" fill="white"/>
<path d="M23.3333 7.29167C24.783 7.29167 25.9583 6.11642 25.9583 4.66667C25.9583 3.21692 24.783 2.04167 23.3333 2.04167C21.8835 2.04167 20.7083 3.21692 20.7083 4.66667C20.7083 6.11642 21.8835 7.29167 23.3333 7.29167Z" fill="white"/>
<path d="M23.3333 25.9583C24.783 25.9583 25.9583 24.7831 25.9583 23.3333C25.9583 21.8836 24.783 20.7083 23.3333 20.7083C21.8835 20.7083 20.7083 21.8836 20.7083 23.3333C20.7083 24.7831 21.8835 25.9583 23.3333 25.9583Z" fill="white"/>
<path d="M4.66675 16.625C6.1165 16.625 7.29175 15.4497 7.29175 14C7.29175 12.5503 6.1165 11.375 4.66675 11.375C3.217 11.375 2.04175 12.5503 2.04175 14C2.04175 15.4497 3.217 16.625 4.66675 16.625Z" fill="white"/>
<path d="M22.1666 14.875C22.6449 14.875 23.0416 14.4783 23.0416 14C23.0416 13.5217 22.6449 13.125 22.1666 13.125H13.7083V8.16667C13.7083 6.32334 14.4899 5.54167 16.3333 5.54167H22.1666C22.6449 5.54167 23.0416 5.145 23.0416 4.66667C23.0416 4.18834 22.6449 3.79167 22.1666 3.79167H16.3333C13.5099 3.79167 11.9583 5.34334 11.9583 8.16667V13.125H5.83325C5.35492 13.125 4.95825 13.5217 4.95825 14C4.95825 14.4783 5.35492 14.875 5.83325 14.875H11.9583V19.8333C11.9583 22.6567 13.5099 24.2083 16.3333 24.2083H22.1666C22.6449 24.2083 23.0416 23.8117 23.0416 23.3333C23.0416 22.855 22.6449 22.4583 22.1666 22.4583H16.3333C14.4899 22.4583 13.7083 21.6767 13.7083 19.8333V14.875H22.1666Z" fill="white"/>
</svg>
