<svg width="28" height="28" viewBox="0 0 28 28" fill="none" xmlns="http://www.w3.org/2000/svg">
<path d="M18.6667 2.33333H9.33333C5.25 2.33333 3.5 4.66666 3.5 8.16666V19.8333C3.5 23.3333 5.25 25.6667 9.33333 25.6667H18.6667C22.75 25.6667 24.5 23.3333 24.5 19.8333V8.16666C24.5 4.66666 22.75 2.33333 18.6667 2.33333ZM12.285 19.215C12.6233 19.5533 12.6233 20.1133 12.285 20.4517C12.11 20.6267 11.8883 20.7083 11.6667 20.7083C11.445 20.7083 11.2233 20.6267 11.0483 20.4517L8.715 18.1183C8.37667 17.78 8.37667 17.22 8.715 16.8817L11.0483 14.5483C11.3867 14.21 11.9467 14.21 12.285 14.5483C12.6233 14.8867 12.6233 15.4467 12.285 15.785L10.57 17.5L12.285 19.215ZM19.285 18.1183L16.9517 20.4517C16.7767 20.6267 16.555 20.7083 16.3333 20.7083C16.1117 20.7083 15.89 20.6267 15.715 20.4517C15.3767 20.1133 15.3767 19.5533 15.715 19.215L17.43 17.5L15.715 15.785C15.3767 15.4467 15.3767 14.8867 15.715 14.5483C16.0533 14.21 16.6133 14.21 16.9517 14.5483L19.285 16.8817C19.6233 17.22 19.6233 17.78 19.285 18.1183ZM21.5833 10.7917H19.25C17.4767 10.7917 16.0417 9.35666 16.0417 7.58333V5.25C16.0417 4.77166 16.4383 4.375 16.9167 4.375C17.395 4.375 17.7917 4.77166 17.7917 5.25V7.58333C17.7917 8.38833 18.445 9.04166 19.25 9.04166H21.5833C22.0617 9.04166 22.4583 9.43833 22.4583 9.91666C22.4583 10.395 22.0617 10.7917 21.5833 10.7917Z" fill="#92B59B"/>
</svg>
