<svg width="28" height="28" viewBox="0 0 28 28" fill="none" xmlns="http://www.w3.org/2000/svg">
<path d="M19.8333 2.835H8.16658C4.66659 2.835 2.33325 5.16833 2.33325 8.66833V15.6683C2.33325 19.1683 4.66659 21.5017 8.16658 21.5017V23.9867C8.16658 24.92 9.20492 25.48 9.97492 24.955L15.1666 21.5017H19.8333C23.3333 21.5017 25.6666 19.1683 25.6666 15.6683V8.66833C25.6666 5.16833 23.3333 2.835 19.8333 2.835ZM13.9999 17.0333C13.5099 17.0333 13.1249 16.6367 13.1249 16.1583C13.1249 15.68 13.5099 15.2833 13.9999 15.2833C14.4899 15.2833 14.8749 15.68 14.8749 16.1583C14.8749 16.6367 14.4899 17.0333 13.9999 17.0333ZM15.4699 12.1917C15.0149 12.495 14.8749 12.6933 14.8749 13.02V13.265C14.8749 13.7433 14.4783 14.14 13.9999 14.14C13.5216 14.14 13.1249 13.7433 13.1249 13.265V13.02C13.1249 11.6667 14.1166 11.0017 14.4899 10.745C14.9216 10.4533 15.0616 10.255 15.0616 9.95166C15.0616 9.36833 14.5833 8.89 13.9999 8.89C13.4166 8.89 12.9383 9.36833 12.9383 9.95166C12.9383 10.43 12.5416 10.8267 12.0633 10.8267C11.5849 10.8267 11.1883 10.43 11.1883 9.95166C11.1883 8.4 12.4483 7.14 13.9999 7.14C15.5516 7.14 16.8116 8.4 16.8116 9.95166C16.8116 11.2817 15.8316 11.9467 15.4699 12.1917Z" fill="white"/>
</svg>
