<svg width="28" height="28" viewBox="0 0 28 28" fill="none" xmlns="http://www.w3.org/2000/svg">
<path d="M24.3018 9.345L16.6601 3.23167C15.1668 2.04167 12.8335 2.03 11.3518 3.22L3.71012 9.345C2.61345 10.22 1.94845 11.97 2.18179 13.3467L3.65179 22.1433C3.99012 24.115 5.82179 25.6667 7.81679 25.6667H20.1835C22.1551 25.6667 24.0218 24.08 24.3601 22.1317L25.8301 13.335C26.0401 11.97 25.3751 10.22 24.3018 9.345ZM14.8751 21C14.8751 21.4783 14.4785 21.875 14.0001 21.875C13.5218 21.875 13.1251 21.4783 13.1251 21V17.5C13.1251 17.0217 13.5218 16.625 14.0001 16.625C14.4785 16.625 14.8751 17.0217 14.8751 17.5V21Z" fill="#dfdfdf"/>
</svg>
