<svg width="1002" height="995" viewBox="0 0 1002 995" fill="none" xmlns="http://www.w3.org/2000/svg">
<path fill-rule="evenodd" clip-rule="evenodd" d="M367.527 360.14C367.47 347.05 344.716 332.329 334.996 324.739C315.778 309.728 295.789 295.866 275.986 281.783C256.183 267.699 236.326 253.654 217.443 238.193C205.182 228.156 190.775 216.852 182.459 202.52C164.745 171.979 220.597 176.514 235.065 175.846C271.869 174.14 314.085 174.919 348.583 159.014C369.178 149.52 377.39 133.596 372.967 110.389C371.541 102.841 367.321 94.156 370.896 86.8031C374.713 78.9502 383.495 74.4186 390.784 71.3798C417.37 60.3086 447.938 59.0258 476.067 57.6362C506.399 56.1091 537.016 56.5558 567.134 56.4374C579.905 56.3878 593.243 51.4745 605.404 47.4812C621.347 42.2472 637.101 36.368 652.912 30.6835C687.696 18.2073 723.539 5.06694 760.34 1.89828C783.387 -0.0869108 808.575 2.59691 826.479 19.8642C835.468 28.5341 840.173 41.4226 845.37 52.8717C851.66 66.7031 857.702 80.6681 864.399 94.2819C885.974 138.128 916.776 180.974 966.773 183.127C974.336 183.451 981.764 182.394 989.292 182.195C994.086 182.073 998.352 183.314 1000.13 188.685C1004.61 202.158 990.532 223.426 984.758 234.115C972.115 257.514 957.858 279.863 944.503 302.791C935.667 317.955 920.373 338.677 920.212 357.102C920.07 373.517 940.457 385.383 951.557 393.469C961.957 401.039 980.802 411.633 981.942 427.034C982.495 434.501 977.897 440.689 973.096 445.492C964.68 453.891 954.985 459.816 947.415 469.398C935 485.119 924.628 506.75 926.314 527.934C927.483 542.613 935.303 552.226 945.251 561.415C949.432 565.279 952.826 568.012 953.046 574.285C953.403 584.245 949.76 594.786 946.759 604.02C936.023 637.07 920.775 669.028 903.813 698.867C895.337 713.778 886.181 728.644 874.942 741.365C867.582 749.718 857.656 759.659 846.428 759.648C833.429 759.648 819.675 754.624 807.039 750.867C783.44 743.846 760.126 735.73 736.905 727.404C683.203 708.14 630.006 687.316 577.314 664.931C540.199 649.138 502.297 633.321 467.402 612.324C460.597 608.201 454.174 603.393 448.219 597.966C441.857 592.266 433.962 589.716 425.957 587.815C376.271 576.014 321.837 585.073 271.944 590.754C259.28 592.193 246.616 593.64 233.917 594.648C222.999 595.515 209.929 598 199.318 594.266C178.41 586.917 196.688 559.831 204.415 548.794C231.621 509.934 266.722 477.056 299.257 443.491C314.726 427.507 330.313 411.564 344.941 394.675C352.557 385.894 367.577 371.616 367.527 360.14Z" stroke="#05CF4A" stroke-opacity="0.2"/>
<path fill-rule="evenodd" clip-rule="evenodd" d="M376.903 357.934C368.564 344.082 353.933 333.843 341.789 324.208C324.312 310.337 306.285 297.237 288.53 283.759C271.742 271.013 254.918 258.123 239.37 243.649C229.89 234.823 217.995 224.268 213.504 211.213C203.764 182.918 256.166 187.211 269.102 186.47C301.264 184.639 337.726 184.219 367.48 169.321C386.059 160.018 393.692 144.59 389.729 123.171C388.359 115.76 385.891 109.433 389.016 102.061C392.629 93.5283 400.939 88.2088 408.558 84.4539C432.423 72.6892 460.632 70.1898 486.501 68.1101C513.227 65.9617 541.072 64.4467 566.938 66.0189C577.282 66.6447 589.187 63.092 599.424 60.3674C615.175 56.1698 630.765 51.3274 646.437 46.8245C678.288 37.6662 710.966 28.8436 744.101 27.84C768.023 27.115 792.965 31.0454 812.867 46.2368C833.037 61.6419 841.986 85.5223 853.171 108.224C872.489 147.471 898.579 195.19 943.27 203.482C950.047 204.741 956.56 204.058 963.33 204.367C966.811 204.524 970.773 205.02 972.539 208.694C977.122 218.234 964.564 235.677 960.337 242.985C948.66 263.179 935.531 282.385 923.293 302.19C913.574 317.915 901.254 335.389 897.495 354.03C892.933 376.651 922.74 392.747 933.223 408.675C951.395 436.295 916.966 452.032 899.992 465.201C880.5 480.32 864.41 507.902 881.884 531.294C888.568 540.238 896.792 545.569 899.778 557.242C904.447 575.498 900.916 596.36 897.128 614.405C891.421 641.533 882.39 668.367 870.113 692.885C861.318 710.438 846.726 737.963 825.358 735.899C810.974 734.521 796.35 729.488 782.343 725.038C761.371 718.379 740.663 710.789 720.065 702.906C672.517 684.757 625.493 664.746 579.393 642.735C547.938 627.712 460.197 566.317 453.595 564.126C433.91 557.601 411.529 558.749 391.234 559.761C364.238 561.104 337.377 564.584 310.537 567.809C297.761 569.335 284.921 571.201 272.077 571.953C262.936 572.487 250.93 572.945 242.923 567.255C227.293 556.155 244.706 530.755 251.907 520.01C273.967 487.066 301.873 458.538 328.039 429.369C340.879 415.047 353.916 400.749 365.572 385.279C370.273 379.032 382.057 366.489 376.903 357.934Z" stroke="#05CF4A" stroke-opacity="0.2"/>
<path fill-rule="evenodd" clip-rule="evenodd" d="M388.44 350.829C365.666 323.11 334.233 302.494 307.105 279.344C293.49 267.721 279.788 255.781 268.045 241.937C261.936 234.738 254.308 225.634 253.131 215.599C249.986 188.754 297.216 192.384 311.353 191.365C338.684 189.387 369.56 187.887 394.356 174.188C409.505 165.813 416.966 152.068 414.134 134.002C412.879 125.986 410.925 119.177 414.134 111.306C417.387 103.332 424.162 97.7058 431.024 93.4879C450.741 81.3574 475.245 77.4792 497.444 74.5897C523.487 71.2242 549.725 69.9101 575.947 70.6581C598.913 71.3032 621.769 64.047 644.193 59.2643C673.9 52.9318 704.145 47.4009 734.543 48.2368C758.551 48.901 782.747 54.1189 803.271 67.9862C824.126 82.1093 836.665 103.248 847.97 126.059C865.059 160.542 886.356 206.751 923.848 219.847C929.3 221.756 934.382 221.966 940.006 222.298C942.738 222.458 946.265 222.508 947.62 225.558C950.88 232.902 938.829 247.139 935.466 252.102C924.732 267.942 913.096 283.069 902.094 298.7C891.823 313.293 880.636 328.5 874.256 345.6C864.103 372.835 896.563 388.759 895.653 414.712C895.086 430.823 880.675 442.378 869.263 450.37C855.213 460.199 834.982 466.662 827.949 484.598C822.71 497.958 830.93 505.733 837.26 515.871C847.988 533.048 848.719 556.332 847.602 576.215C846.097 603.083 840.217 630.348 830.206 655.044C825.67 666.24 820.114 677.885 811.933 686.581C804.269 694.73 797.016 696.818 786.774 695.15C755.42 690.035 723.762 675.778 693.696 663.045C655.919 647.044 618.663 629.378 582.519 609.503C557.873 595.949 532.671 581.608 511.039 562.882C505.4 558 499.627 552.694 495.504 546.255C492.387 541.415 491.064 537.418 485.811 534.655C470.241 526.467 448.584 528.608 431.901 529.46C405.226 530.815 378.679 534.422 352.168 537.67C336.698 539.579 307.555 545.583 295.201 531.181C284.538 518.745 297.405 497.541 303.978 486.587C320.603 458.882 341.99 434.568 361.832 409.532C370.926 398.058 380.377 386.496 387.887 373.739C389.806 370.487 392.88 366.178 393.407 362.227C393.999 357.7 391.236 354.246 388.44 350.829Z" stroke="#05CF4A" stroke-opacity="0.2"/>
<path fill-rule="evenodd" clip-rule="evenodd" d="M390.398 357.282C369.354 332.773 344.001 312.638 321.41 289.703C311.28 279.42 301.051 268.632 293.332 256.087C289.181 249.341 284.772 240.849 285.917 232.464C289.202 208.398 328.047 210.572 343.741 209.162C367.06 207.092 393.85 205.006 414.469 192.03C427.977 183.53 433.041 170.978 430.52 154.789C427.813 137.423 433.865 124.817 447.64 115.13C464.91 102.993 486.71 98.0466 506.762 94.5322C530.921 90.3183 555.386 88.4503 579.859 88.9512C603.66 89.4401 626.719 85.1694 650.363 82.3923C681.711 78.7136 714.064 76.8991 745.059 84.4398C772.045 91.0063 796.42 105.476 814.693 127.854C833.778 151.209 843.227 180.635 858.724 206.473C868.39 222.59 881.869 243.909 899.93 250.174C905.955 252.263 916.933 249.444 912.122 259.724C909.372 265.603 904.225 270.76 900.159 275.565C893.589 283.331 886.801 290.883 880.121 298.542C865.882 314.869 850.635 331.543 839.963 350.876C826.516 375.217 846.504 393.95 844.068 418.631C842.759 431.913 834.135 442.514 825.011 450.841C819.108 456.235 812.649 460.907 806.054 465.266C799.167 469.819 791.017 473.288 785.01 479.174C776.45 487.552 780.167 497.468 781.772 508.298C784.597 527.33 785.217 546.663 783.619 565.857C781.665 589.385 777.082 613.584 767.426 634.965C763.671 643.289 758.913 652.113 751.847 657.694C744.781 663.275 737.473 662.893 729.376 661.212C705.362 656.246 681.397 644.69 658.616 633.739C630.104 620.029 602.151 604.707 575.458 587.276C557.032 575.243 538.545 562.244 523.13 545.929C518.647 541.18 514.381 536.096 510.932 530.419C508.563 526.527 507.294 521.504 503.862 518.577C493.127 509.444 471.573 512.171 458.982 512.702C433.855 513.76 409.123 518.791 384.027 520.014C370.331 520.682 348.881 522.363 338.823 509.876C329.364 498.137 337.931 479.648 343.584 468.337C354.695 446.097 369.621 426.283 383 405.609C388.5 397.102 394.528 388.201 398.091 378.487C401.258 369.831 395.79 363.566 390.398 357.282Z" stroke="#05CF4A" stroke-opacity="0.2"/>
<path fill-rule="evenodd" clip-rule="evenodd" d="M395.573 357.683C378.823 336.116 358.63 316.971 341.759 295.053C331.884 282.217 314.877 260.638 322.514 242.542C330.893 222.657 360.099 222.115 376.981 220.513C397.074 218.606 420.67 216.001 437.866 203.585C443.304 199.659 447.937 194.464 449.901 187.621C452.004 180.297 449.705 173.889 449.406 166.557C448.778 151.177 457.353 138.829 468.7 130.35C484.738 118.361 504.791 112.692 523.733 108.741C545.194 104.283 567.01 102.086 588.87 102.18C609.761 102.256 630.432 101.76 651.345 101.188C678.694 100.425 706.428 101.657 732.957 109.435C759.091 117.102 782.851 131.471 801.515 152.607C819.723 173.233 832.007 198.443 842.767 224.122C848.872 238.697 859.185 260.478 873.747 267.84C880.223 271.117 886.577 270.892 879.692 279.413C871.021 290.143 859.335 298.753 849.292 307.931C834.805 321.175 819.954 334.678 807.794 350.424C800.029 360.479 796.568 370.237 797.103 383.256C797.516 393.173 799.391 402.988 798.443 412.944C796.223 436.312 779.034 452.337 763.838 467.259C754.062 476.856 745.135 484.176 740.103 497.828C734.151 513.964 731.653 531.518 727.675 548.271C723.306 566.669 718.26 585.806 708.723 602.01C700.234 616.437 689.909 622.906 674.456 619.019C650.354 612.962 626.597 598.039 605.2 584.235C583.421 570.19 562.016 554.398 543.969 535.092C534.225 524.667 527.575 512.426 518.922 501.227C508.038 487.167 483.415 492.492 468.782 493.682C444.491 495.658 368.057 510.443 375.11 462.556C378.053 442.568 389.647 424.121 398.125 406.482C401.639 399.162 406.725 390.377 407.519 381.989C408.385 372.854 400.609 364.176 395.573 357.683Z" stroke="#05CF4A" stroke-opacity="0.2"/>
<path fill-rule="evenodd" clip-rule="evenodd" d="M404.417 359.515C391.617 339.97 376.298 321.506 365.315 300.397C358.19 286.726 351.193 268.461 360.384 253.996C370.759 237.673 393.633 233.868 410.441 231.788C427.759 229.647 448.432 227.845 462.586 215.468C467.089 211.526 470.801 206.21 471.492 199.844C472.158 193.737 470.277 187.631 470.901 181.414C472.297 167.453 480.202 155.95 490.395 147.607C520.544 122.926 565.418 117.438 601.795 116.793C620.003 116.472 638.741 118.155 657.067 119.361C680.847 120.926 704.662 124.285 727.341 132.379C775.56 149.584 807.879 187.742 830.451 235.223C837.555 250.168 842.991 266.339 854.124 278.349C859.863 284.551 858.609 289.005 852.742 294.661C843.568 303.5 832.378 310.255 822.197 317.632C807.715 328.124 792.923 338.772 780.116 351.34C771.288 360.003 765.022 368.35 763.12 381.341C761.762 390.604 762.079 400.042 761.263 409.362C759.71 427.067 754.391 444.638 744.976 459.324C737.494 470.964 728.588 481.543 719.383 491.63C707.416 504.763 697.295 518.105 688.207 533.692C676.159 554.324 659.229 592.382 630.851 582.31C599.55 571.197 570.213 542.958 550.131 515.598C543.387 506.412 537.851 495.145 528.756 488.371C515.14 478.246 501.325 478.601 485.129 478.643C460.883 478.7 408.122 484.337 407.552 445.439C407.328 430.028 413.555 415.457 416.537 400.634C419.9 384.032 413.16 372.834 404.417 359.515Z" stroke="#05CF4A" stroke-opacity="0.2"/>
<path fill-rule="evenodd" clip-rule="evenodd" d="M413.951 361.257C401.29 335.785 372.899 293.928 394.492 265.603C405.899 250.633 426.074 245.008 442.998 241.655C456.618 238.944 473.043 237.926 483.334 226.431C490.897 217.979 487.54 205.68 490.438 195.1C494.034 181.984 502.29 171.252 512.434 163.186C540.782 140.642 580.198 133.724 614.3 132.252C649.717 130.726 688.74 137.862 722.068 151.588C763.623 168.708 794.755 201.126 816.527 242.178C820.544 249.756 824.194 257.532 828.051 265.202C830.643 270.347 834.485 275.324 836.528 280.736C839.928 289.759 835.922 297.135 829.498 303.016C820.259 311.483 808.91 317.509 798.377 323.863C783.973 332.558 769.248 341.097 755.849 351.299C746.845 358.164 737.421 365.559 734.198 377.47C731.999 385.593 731.543 394.197 731.621 402.611C731.792 420.65 730.908 435.238 723.045 451.759C710.106 478.883 690.209 503.273 669.189 523.566C652.693 539.493 626.59 564.233 602.555 553.585C580.99 544.05 568.375 521.228 554.167 502.777C547.259 493.807 539.499 485.615 530.381 479.234C518.886 471.191 508.064 467.816 494.444 466.5C471.521 464.284 436.956 463.708 429.87 434.265C427.254 423.4 428.747 412.145 427.375 401.138C425.582 386.585 420.339 374.106 413.951 361.257Z" stroke="#05CF4A" stroke-opacity="0.2"/>
<path fill-rule="evenodd" clip-rule="evenodd" d="M427.116 362.2C418.1 334.329 406.256 299.202 428.032 274.431C438.579 262.43 453.416 255.722 467.775 250.709C478.059 247.116 494.388 246.059 500.693 235.013C505.323 226.884 505.965 215.67 510.154 206.961C515.91 194.988 524.63 185.126 534.861 177.406C561.513 157.288 596.226 149.515 627.883 147.289C696.668 142.459 766.658 180.926 803.466 244.214C814.441 263.079 828.607 283.159 810.871 302.432C791.507 323.458 762.337 333.309 739.226 348.249C730.395 353.953 719.142 360.811 714.216 371.139C711.252 377.347 711.049 385.136 710.914 391.97C710.557 409.377 709.207 425.031 702.671 441.273C692.576 466.373 676.478 489.529 658.236 508.498C642.328 525.037 619.64 544.475 596.536 532.551C578.821 523.388 567.586 503.939 553.822 489.602C538.505 473.635 519.561 462.875 498.758 457.618C478.522 452.517 456.326 449.077 445.661 427.405C442.002 419.972 438.18 410.346 436.809 402.118C434.595 388.552 431.353 375.202 427.116 362.2Z" stroke="#05CF4A" stroke-opacity="0.2"/>
<path fill-rule="evenodd" clip-rule="evenodd" d="M441.796 362.397C437.625 334.252 437.161 304.905 456.54 282.723C465.585 272.374 477.017 265.022 488.578 258.361C497.084 253.46 505.868 249.326 512.221 241.29C518.107 233.85 522.581 225.212 528.263 217.577C535.759 207.46 544.728 198.702 554.826 191.639C580.137 173.969 610.927 165.705 640.384 162.838C654.644 161.444 670.112 160.719 684.276 164.517C697.954 168.182 711.48 173.977 724.057 180.733C750.794 195.082 773.966 216.096 790.764 242.664C802.282 260.888 808.51 278.608 793.594 297.095C776.778 317.933 750.412 329.431 728.68 342.955C713.775 352.231 697.07 361.324 694.286 381.037C692.068 396.722 690.268 411.609 684.532 426.435C675.995 448.304 663.443 468.115 647.621 484.691C633.151 499.792 614.845 512.606 594.147 504.54C577.748 498.139 565.025 483.797 550.697 473.544C534.73 462.092 517.187 455.779 498.713 450.702C482.112 446.121 466.479 439.082 455.749 424.137C453.553 421.083 451.246 417.759 449.553 414.342C447.393 409.983 447.56 405.662 447.136 400.776C446.031 387.881 443.682 375.135 441.796 362.397Z" stroke="#05CF4A" stroke-opacity="0.2"/>
<path fill-rule="evenodd" clip-rule="evenodd" d="M457.981 360.096C458.338 333.363 464.342 308.098 480.786 287.264C487.817 278.352 496.212 271.011 503.948 262.844C510.176 256.26 516.063 250.143 523.225 244.717C540.215 231.871 554.022 215.246 572.077 203.807C596.179 188.513 623.788 180.06 651.182 176.68C664.559 175.028 678.377 174.451 691.91 176.316C703.534 177.918 714.665 183.543 724.992 189.297C745.231 200.568 764.883 216.588 778.024 236.856C806.997 281.541 749.874 314.028 720.556 333.053C707.072 341.805 686.469 351.941 680.946 369.276C676.998 381.66 674.593 394.255 669.508 406.256C655.85 438.488 628.124 476.397 591.177 471.35C575.366 469.194 560.957 460.434 546.197 454.554C531 448.497 515.315 445.121 499.519 441.417C484.756 437.956 472.99 433.032 463.455 419.83C458.897 413.525 459.3 405.977 458.894 398.243C458.231 385.537 457.821 372.76 457.981 360.096Z" stroke="#05CF4A" stroke-opacity="0.2"/>
<path fill-rule="evenodd" clip-rule="evenodd" d="M472.72 356.672C478.656 316.321 500.701 272.268 533.117 248.834C571.247 221.268 612.555 198.055 658.112 191.382C679.234 188.288 702.371 186.766 722.301 196.884C737.469 204.58 755.088 216.083 763.435 232.26C783.857 271.83 738.432 303.329 712.552 321.636C698.618 331.491 680.882 341.094 670.38 355.486C664.287 363.83 661.177 374.868 656.258 384.032C641.35 411.804 616.811 434.205 586.243 438.211C572.11 440.061 557.873 437.772 543.847 435.952C529.489 434.09 514.952 433.079 500.683 430.481C489.293 428.405 475.87 424.891 471.675 411.839C466.384 395.391 470.298 373.151 472.72 356.672Z" stroke="#05CF4A" stroke-opacity="0.2"/>
<path fill-rule="evenodd" clip-rule="evenodd" d="M487.172 350.19C495.829 312.253 514.161 275.247 544.979 252.6C561.321 240.59 580.293 232.3 598.507 224.109C619.153 214.827 640.724 207.621 662.756 204.047C690.188 199.594 734.616 195.581 748.948 229.051C763.172 262.272 727.226 291.675 705.97 308.431C692.341 319.164 677.756 329.016 664.734 340.751C657.674 347.112 652.235 354.463 646.26 361.924C629.746 382.598 606.203 398.964 582.207 407.701C558.95 416.171 530.179 419.92 505.629 417.121C495.037 415.919 487.465 411.86 484.262 400.32C479.822 384.278 483.594 365.861 487.172 350.19Z" stroke="#05CF4A" stroke-opacity="0.2"/>
<path fill-rule="evenodd" clip-rule="evenodd" d="M501.533 339.972C510.133 306.57 528.683 276.061 555.741 256.014C586.07 233.54 625.125 221.053 661.021 214.702C680.101 211.329 721.449 202.184 731.175 228.357C740.9 254.531 712.785 280.324 696.603 294.523C676.964 311.73 655.79 328.344 634.64 343.783C616.265 357.206 596.658 370.929 576.755 381.295C565.529 387.176 553.836 391.977 541.813 395.643C532.91 398.335 521.589 402.351 512.256 400.347C488.713 395.285 497.42 355.943 501.533 339.972Z" stroke="#05CF4A" stroke-opacity="0.2"/>
<path fill-rule="evenodd" clip-rule="evenodd" d="M519.26 329.97C538.13 266.802 597.914 235.735 655.477 224.907C668.853 222.393 706.35 213.33 713.827 232.627C721.072 251.335 698.03 273.523 687.242 284.035C653.814 316.609 612.515 340.76 573.38 364.687C561.165 372.155 539.134 388.362 523.981 380.886C507.529 372.754 515.351 343.068 519.26 329.97Z" stroke="#05CF4A" stroke-opacity="0.2"/>
<path fill-rule="evenodd" clip-rule="evenodd" d="M538.589 317.812C554.999 271.294 602.728 244.613 646.611 235.818C657.359 233.666 684.656 226.965 692.797 239.947C700.33 251.955 682.352 269.355 675.626 276.269C660.652 291.666 642.906 304.35 625.375 316.541C609.165 327.821 592.78 339.382 575.724 348.922C566.74 353.944 549.891 364.658 539.682 356.905C528.691 348.563 534.945 328.141 538.589 317.812Z" stroke="#05CF4A" stroke-opacity="0.2"/>
<path fill-rule="evenodd" clip-rule="evenodd" d="M559.888 304.221C572.395 273.842 605.893 254.116 635.442 247.561C643.393 245.801 660.578 241.235 667.286 249.347C673.461 256.819 663.509 267.772 659.092 272.831C639.516 295.253 610.85 315.281 584.584 327.582C577.98 330.674 566.109 336.745 559.316 330.503C552.348 324.093 557.015 311.196 559.888 304.221Z" stroke="#05CF4A" stroke-opacity="0.2"/>
<path fill-rule="evenodd" clip-rule="evenodd" d="M582.483 291.46C589.531 276.375 607.951 264.994 623.209 261.372C633.947 258.824 646.855 261.025 637.497 274.156C628.2 287.186 610.949 299.087 596.328 304.363C585.174 308.387 576.431 304.417 582.483 291.46Z" stroke="#05CF4A" stroke-opacity="0.2"/>
<path fill-rule="evenodd" clip-rule="evenodd" d="M10.9599 395.939C10.5078 366.137 -4.28074 335.164 3.02278 304.798C9.02006 279.858 39.2129 277.776 57.3258 266.476C71.7193 257.5 79.8877 241.598 87.6717 226.34C94.6656 212.642 100.948 198.533 108.315 185.06C113.085 176.35 121.274 159.247 131.617 158.938C141.519 158.64 150.599 171.968 156.35 179.847C163.85 190.116 170.498 201.065 177.78 211.498C190.053 229.097 204.777 242.124 221.637 254.453C240.824 268.481 260.327 282.03 280.147 295.1C294.74 304.752 309.432 314.331 323.459 324.936C332.258 331.591 351.677 344.076 351.766 356.344C351.808 362.197 346.63 368.68 343.138 373.359C337.23 381.28 330.496 388.521 323.74 395.607C311.159 408.805 298.043 421.405 285.07 434.157C268.231 450.707 252.147 466.986 237.344 485.775C222.039 505.224 207.418 525.313 192.498 545.127C182.393 558.551 172.299 573.625 157.724 581.862C139.469 592.158 124.485 581.302 106.023 581.176C90.1418 581.065 91.3128 541.65 89.2947 530.69C87.2695 519.597 82.8062 509.27 81.0765 498.15C78.9196 484.269 78.8911 470.068 78.3608 456.038C77.7165 438.878 77.4603 422.541 60.3369 415.997C50.5917 412.279 40.0494 411.497 29.9625 409.27C23.4278 407.825 11.1022 405.354 10.9599 395.939Z" stroke="#05CF4A" stroke-opacity="0.2"/>
<path fill-rule="evenodd" clip-rule="evenodd" d="M18.7673 390.637C17.1027 365.656 7.2679 333.681 16.568 307.894C24.5135 285.857 49.3624 283.001 66.0947 271.425C79.9076 261.877 86.0565 246.252 92.9612 230.903C98.5006 218.59 103.872 206.158 110.16 194.239C114.794 185.454 121.87 170.624 131.505 168.807C140.167 167.172 149.457 180.264 154.319 186.925C161.412 196.649 167.479 207.209 173.746 217.547C184.757 235.707 196.032 252.038 212.148 265.379C228.334 278.777 246.043 288.794 263.941 299.221C277.943 307.379 291.874 315.773 305.177 325.191C315.086 332.203 329.334 341.178 333.868 353.682C337.458 363.574 319.253 379.989 313.885 385.783C302.835 397.695 291.125 408.878 279.394 419.991C265.093 433.534 250.335 445.378 237.706 460.826C215.117 488.447 196.235 522.842 167.169 543.371C149.639 555.752 130.129 558.919 110.631 557.066C102.91 556.333 101.056 544.658 100.083 537.848C98.4649 526.536 98.2618 515.028 97.0177 503.67C95.8521 493.037 93.2642 482.936 91.1789 472.509C89.0686 461.945 88.4769 451.122 86.9227 440.485C85.9603 433.882 85.0085 426.198 80.7987 420.889C76.4428 415.393 69.2565 413.09 62.9757 411.341C51.1803 408.087 19.9437 408.266 18.7673 390.637Z" stroke="#05CF4A" stroke-opacity="0.2"/>
<path fill-rule="evenodd" clip-rule="evenodd" d="M28.816 380.179C26.0164 357.248 22.0969 328.688 33.5022 307.561C42.8248 290.286 62.7074 286.56 76.9088 275.304C88.7206 265.944 93.1822 251.057 99.0453 237.223C103.856 225.876 108.692 214.479 114.523 203.681C118.946 195.492 124.645 184.388 133.425 181.532C140.933 179.09 149.413 190.026 153.575 195.469C160.662 204.745 166.439 215.139 172.178 225.395C181.564 242.178 190.202 260.104 203.562 273.755C216.544 287.002 231.965 294.821 247.675 303.613C259.708 310.349 271.666 317.344 283.003 325.377C291.709 331.541 302.497 338.845 307.034 349.101C310.957 357.946 300.885 368.416 295.853 374.656C287.543 384.955 278.321 394.403 269.226 403.889C259.412 414.122 248.541 423.562 239.044 434.048C219.072 456.113 203.116 480.543 178.501 497.447C162.559 508.398 141.107 518.345 122.263 516.557C108.71 515.267 109.602 483.144 108.3 472.88C106.16 456.097 102.027 438.464 95.4611 423.005C89.8227 409.759 76.4237 405.674 64.0983 402.702C56.3771 400.837 48.2849 399.83 40.8169 396.947C32.172 393.605 29.9893 389.791 28.816 380.179Z" stroke="#05CF4A" stroke-opacity="0.2"/>
<path fill-rule="evenodd" clip-rule="evenodd" d="M38.1892 369.431C36.5223 350.044 36.8971 327.118 47.6946 310.348C57.1571 295.658 74.0047 291.791 85.9872 280.219C95.3391 271.191 99.012 256.471 104.041 244.532C110.188 229.935 118.801 202.973 134.306 197.48C148.73 192.373 163.815 224.996 169.037 234.724C177.304 250.121 184.218 267.006 194.244 281.225C202.878 293.466 214.447 300.234 226.726 307.506C242.381 316.794 266.15 327.807 274.52 345.909C280.76 359.397 260.471 379.45 253.543 388.795C246.297 398.557 240.839 410.129 233.361 419.547C221.561 434.409 202.439 446.375 186.652 455.506C171.303 464.388 151.372 474.22 133.96 473.634C122.517 473.252 120.339 454.324 117.898 445.078C114.4 431.934 109.749 420.155 99.7581 411.216C89.5888 402.115 77.6027 397.827 65.0026 394.074C58.5349 392.161 51.1569 390.669 45.3709 386.806C38.978 382.602 38.8317 376.883 38.1892 369.431Z" stroke="#05CF4A" stroke-opacity="0.2"/>
<path fill-rule="evenodd" clip-rule="evenodd" d="M49.6097 358.256C49.7022 341.507 53.2778 323.647 63.8802 310.727C72.7108 299.966 86.533 296.369 94.9864 285.368C101.682 276.658 105.091 264.432 109.574 254.318C115.056 241.923 122.809 220.271 136.442 215.97C149.749 211.783 161.518 235.631 166.62 245.068C174.092 258.904 180.14 273.571 187.679 287.37C193.585 298.196 200.807 305.173 210.424 312.151C221.713 320.347 237.464 329.425 243.494 342.984C247.842 352.801 237.318 368.488 233.497 377.137C230.935 382.946 228.591 388.846 227.303 395.142C226.299 400.045 226.2 404.582 223.293 408.792C215.974 419.382 199.929 420.764 189.042 424.255C174.583 428.887 159.241 434.152 144.11 435.157C134.809 435.785 130.063 426.607 124.755 420.151C118.482 412.519 109.602 407.03 101.846 401.271C91.61 393.658 80.4704 388.922 68.9466 384.073C63.7486 381.884 57.6433 379.737 53.6158 375.386C49.4105 370.875 49.5777 364.301 49.6097 358.256Z" stroke="#05CF4A" stroke-opacity="0.2"/>
<path fill-rule="evenodd" clip-rule="evenodd" d="M61.6046 348.313C63.4423 334.246 69.1691 320.802 78.8421 310.858C86.2571 303.223 96.1046 298.925 102.056 289.751C107.601 281.201 111.465 271.478 116.045 262.335C120.892 252.67 128.094 236.515 139.273 233.885C151.322 231.052 160.603 247.349 165.742 256.38C172.235 267.794 177.167 280.075 182.972 291.882C187.346 300.682 192.924 308.73 199.523 315.759C206.443 323.168 215.827 330.265 219.328 340.453C222.423 349.477 216.632 360.395 215.61 369.545C214.516 379.321 216.432 389.59 210.371 397.984C197.87 415.296 166.497 412.085 148.561 412.456C130.865 412.837 116.636 402.244 102.316 392.167C92.8565 385.513 83.0055 379.879 73.3076 373.679C63.4209 367.354 59.9877 360.693 61.6046 348.313Z" stroke="#05CF4A" stroke-opacity="0.2"/>
<path fill-rule="evenodd" clip-rule="evenodd" d="M72.749 340.262C78.1835 319.883 95.1571 309.052 107.291 293.651C117.22 281.043 124.664 254.934 141.384 251.48C160.368 247.56 171.732 282.155 178.332 295.504C185.655 310.309 198.698 322.351 204.122 338.023C206.973 346.249 204.525 353.924 203.007 362.146C201.343 371.174 200.092 380.404 194.347 387.671C183.04 401.971 160.956 401.872 145.051 402.266C128.587 402.674 114.023 392.875 100.905 383.094C86.9928 372.737 67.1826 361.16 72.749 340.262Z" stroke="#05CF4A" stroke-opacity="0.2"/>
<path fill-rule="evenodd" clip-rule="evenodd" d="M81.8513 334.736C87.975 320.217 100.843 308.413 111.285 297.27C120.001 287.98 129.376 269.279 142.665 267.946C158.283 266.374 167.748 286.343 173.894 298.588C179.942 310.619 188.657 323.323 192.006 336.528C195.499 350.284 186.198 368.81 177.329 378.544C167.436 389.399 151.251 393.409 137.363 392.976C122.822 392.536 109.48 383.565 98.4671 374.26C86.6935 364.314 74.7297 351.591 81.8513 334.736Z" stroke="#05CF4A" stroke-opacity="0.2"/>
<path fill-rule="evenodd" clip-rule="evenodd" d="M90.2973 332.002C96.1467 319.926 106.286 309.71 115.635 300.598C122.85 293.563 133.496 281.601 143.905 281.308C155.356 280.985 165.061 291.026 169.613 301.317C174.101 311.468 178.829 324.195 179.501 335.331C180.96 359.583 151.26 386.748 128.958 384.538C107.813 382.441 78.6344 356.063 90.2973 332.002Z" stroke="#05CF4A" stroke-opacity="0.2"/>
<path fill-rule="evenodd" clip-rule="evenodd" d="M98.1082 330.671C106.178 314.936 125.779 292.505 143.926 291.972C164.755 291.364 169.984 316.325 167.269 334.415C164.511 352.878 140.496 379.601 121.347 375.99C102.658 372.467 88.5447 349.331 98.1082 330.671Z" stroke="#05CF4A" stroke-opacity="0.2"/>
<path fill-rule="evenodd" clip-rule="evenodd" d="M106.355 328.127C113.188 314.953 127.767 298.497 142.973 297.999C161.092 297.41 160.75 318.485 156.641 331.602C152.369 345.221 133.553 368.481 117.688 364.809C102.261 361.223 99.8081 340.753 106.355 328.127Z" stroke="#05CF4A" stroke-opacity="0.2"/>
<path fill-rule="evenodd" clip-rule="evenodd" d="M113.539 326.61C118.048 317.21 129.335 305.329 140.065 304.949C153.18 304.492 150.631 321.208 147.242 329.275C143.215 338.875 129.714 355.556 118.384 352.853C107.229 350.192 109.818 334.356 113.539 326.61Z" stroke="#05CF4A" stroke-opacity="0.2"/>
<path fill-rule="evenodd" clip-rule="evenodd" d="M730.493 863.71C701.464 882.57 668.648 898.138 637.702 913.962C592.479 937.083 546.589 959.582 499.071 976.806C473.594 986.038 440.582 999.347 413.245 992.114C403.251 989.471 394.136 981.475 385.175 976.279C372.818 969.115 360.279 962.306 347.762 955.481C322.653 941.802 297.465 928.259 272.786 913.702C260.903 906.691 249.373 897.86 237.002 891.878C229.772 888.38 221.121 890.016 213.396 890.238C195.502 890.753 177.618 891.729 159.735 892.561C137.861 893.576 115.937 894.655 94.0378 894.255C84.1607 894.071 59.9706 895.948 54.5332 886.839C51.6079 881.933 58.5025 873.087 61.6987 868.993C67.5672 861.471 74.3122 854.692 80.9682 847.982C96.361 832.463 112.709 817.685 126.391 800.351C133.421 791.439 142.632 780.552 138.043 768.387C133.411 756.1 125.386 745.46 120.491 733.215C114.854 719.123 112.516 704.459 109.855 689.517C107.884 678.473 103.295 668.688 98.9798 658.507C94.2124 647.253 89.2738 635.904 85.9637 624.037C83.7759 616.197 80.2448 602.094 87.8985 597.131C98.7732 590.074 119.165 595.788 131.561 597.867C148.693 600.736 165.7 604.391 182.785 607.538C195.188 609.827 207.634 612.337 220.244 612.604C240.572 613.035 260.967 611.543 281.242 610.155C318.783 607.584 356.055 604.097 393.723 604.097C426.724 604.097 502.987 644.98 520.838 652.178C556.47 666.548 593.049 680.171 626.767 699.29C635.888 704.467 649.927 711.364 654.727 722.019C657.688 728.584 656.327 732.379 663.31 736.61C672.838 742.382 685.046 744.648 695.592 747.23C712.578 751.388 729.695 754.909 746.759 758.674C781.272 766.27 815.549 774.86 849.919 783.127C860.309 785.626 872.88 786.179 882.786 790.581C889.171 793.408 888.508 796.967 883.566 801.262C874.897 808.8 862.747 812.985 852.506 817.284C837.502 823.582 822.251 829.202 806.994 834.741C791.737 840.28 776.401 845.647 761.136 851.198C751.053 854.852 739.554 857.824 730.493 863.71Z" stroke="#05CF4A" stroke-opacity="0.2"/>
<path fill-rule="evenodd" clip-rule="evenodd" d="M706.605 859.561C675.899 878.46 641.813 893.515 608.954 908.204C566.9 927.015 523.894 944.645 479.584 956.403C453.568 963.303 422.872 970.92 396.289 963.009C386.805 960.185 379.72 953.84 371.591 948.24C362.325 941.848 352.702 935.992 343.079 930.227C323.271 918.362 303.254 906.901 283.028 895.846C272.314 889.966 260.522 882.093 248.418 880.053C238.796 878.429 227.865 880.779 218.2 881.462C200.794 882.693 183.391 883.961 165.978 885.038C145.885 886.28 125.734 887.426 105.598 887.227C94.3757 887.116 75.1091 888.946 67.1723 881.18C60.2476 874.403 85.4587 849.892 89.8922 845.235C103.738 830.696 118.3 816.851 131.187 801.303C138.803 792.135 148.077 780.983 151.288 768.831C154.021 758.475 148.747 746.674 145.632 737.101C141.736 725.109 138.593 712.678 134.067 700.939C130.036 690.479 123.621 681.162 117.987 671.653C111.789 661.193 105.513 650.562 100.912 639.151C98.0928 632.129 93.4276 620.371 99.0301 613.678C105.502 605.961 125.453 611.003 133.653 612.104C150.29 614.365 166.798 617.727 183.32 620.737C210.762 625.734 236.925 630.104 264.869 629.058C301.261 627.69 337.616 624.474 374 622.693C387.436 622.029 401.086 620.692 414.532 621.414C422.241 621.83 428.111 624.351 432.594 630.04C438.717 637.802 452.819 642.1 462.627 646.554C477.92 653.496 493.405 659.952 508.848 666.492C542.747 680.856 577.3 694.7 609.45 713.278C619.621 719.153 631.268 725.705 638.791 735.412C642.989 740.825 641.931 746.04 644.493 751.793C647.886 759.361 659.041 762.776 665.709 765.252C678.579 770.035 691.975 773.24 705.269 776.243C735.348 783.035 765.499 787.501 796.067 790.79C803.23 791.554 831.438 794.201 816.623 806.961C800.254 821.061 776.618 827.972 757.348 835.918C739.988 843.062 722.614 849.709 706.605 859.561Z" stroke="#05CF4A" stroke-opacity="0.2"/>
<path fill-rule="evenodd" clip-rule="evenodd" d="M664.169 856.066C635.306 872.692 603.332 885.096 572.246 896.962C534.524 911.361 495.857 924.196 456.295 931.386C431.442 935.898 404.041 939.365 379.356 931.866C362.499 926.748 349.458 912.91 334.652 903.389C319.846 893.869 304.441 884.932 288.575 877.483C278.728 872.86 268.135 868.203 257.179 868.813C230.538 870.293 203.93 873.821 177.261 875.534C159.619 876.678 141.941 877.62 124.245 877.338C113.573 877.17 98.9135 877.857 89.4661 871.846C79.0233 865.198 134.627 808.434 139.882 802.046C153.058 786.026 169.013 764.765 166.465 741.983C164.028 720.204 153.468 703.944 141.523 686.879C134.744 677.172 113.006 651.239 121.062 638.614C125.664 631.398 140.835 633.896 148.041 634.388C162.245 635.357 176.369 637.439 190.498 639.247C211.098 641.868 232.265 645.915 252.954 647.101C267.361 647.925 281.853 646.822 296.285 646.799C316.978 646.769 337.671 646.937 358.363 647.135C375.738 647.303 393.26 647.135 410.574 648.92C421.338 650.019 429.508 652.486 437.228 659.459C443.947 665.523 454.083 669.074 462.645 672.931C476.788 679.297 491.116 685.197 505.397 691.193C535.299 703.75 565.542 716.043 594.163 731.734C607.228 738.894 629.195 748.917 632.259 766.276C633.365 772.535 634.179 775.239 639.887 778.798C647.989 783.848 657.694 786.125 666.784 788.105C687.977 792.72 709.783 792.029 730.94 796.591C739.556 798.472 750.805 802.53 740.968 811.821C729.491 822.688 712.783 828.661 699.033 835.374C692.169 838.723 685.098 841.858 678.579 845.947C673.574 849.098 669.289 853.137 664.169 856.066Z" stroke="#05CF4A" stroke-opacity="0.2"/>
<path fill-rule="evenodd" clip-rule="evenodd" d="M609.502 850.875C582.836 864.379 553.876 874.198 525.436 883.049C493.847 892.867 461.496 900.999 428.718 904.459C406.084 906.856 381.968 907.564 360.001 900.227C346.109 895.585 336.69 885.824 324.736 877.639C306.694 865.266 287.174 855.463 265.498 857.849C241.197 860.518 216.817 862.52 192.357 863.856C177.603 864.662 162.792 865.266 148.02 864.704C138.68 864.353 126.647 863.76 118.522 859.229C107.65 853.162 148.486 806.991 153.577 800.262C166.201 783.573 175.455 766.063 180.862 745.386C185.272 728.514 176.264 715.251 166.97 702.63C161.192 694.792 142.523 675.079 148.369 664.901C151.575 659.289 162.14 659.579 167.814 659.292C178.629 658.75 189.49 659.315 200.304 659.564C216.273 659.946 233.272 657.32 249.105 659.434C284.196 664.114 319.197 668.166 354.505 671.374C373.968 673.14 393.549 674.746 412.838 678.153C419.762 679.376 426.915 680.672 433.477 683.441C437.698 685.218 439.999 688.246 443.561 690.732C460.545 702.561 482.716 708.648 501.844 716.229C527.274 726.308 552.839 736.229 577.592 748.135C590.612 754.398 608.796 761.593 617.755 774.374C620.462 778.236 619.308 781.325 621.011 785.038C622.97 789.32 628.922 790.597 632.766 791.79C641.49 794.5 678.005 798.599 661.177 814.5C653.148 822.074 642.918 826.934 633.867 832.887C630.589 835.043 627.394 837.211 624.662 840.12C620.092 844.999 615.589 847.782 609.502 850.875Z" stroke="#05CF4A" stroke-opacity="0.2"/>
<path fill-rule="evenodd" clip-rule="evenodd" d="M551.254 845.029C498.612 866.876 436.917 881.761 379.524 878.877C360.439 877.915 339.904 874.703 323.359 863.71C313.604 857.217 305.808 849.887 294.09 847.542C285.63 845.85 276.521 847.771 268.011 848.466C255.686 849.475 243.354 850.376 231.011 851.106C215.708 851.996 200.356 852.683 185.026 852.316C174.071 852.053 158.944 852.351 149.428 846.049C138.066 838.532 166.986 803.27 171.055 796.987C180.917 781.758 187.831 767.004 190.33 748.651C191.065 743.303 193.542 737.822 193.221 732.433C192.885 726.929 189.719 722.029 186.796 717.701C182.973 712.029 169.709 698.577 173.507 691.66C175.606 687.84 183.484 687.359 187.567 686.549C195.227 685.021 202.998 684.2 210.704 682.986C223.779 680.915 236.761 674.174 249.882 674.365C285.166 674.869 320.961 686.587 355.538 693.023C376.094 696.862 396.79 700.345 417.096 705.544C423.521 707.19 430.139 708.893 436.246 711.685C440.508 713.633 443.246 717.105 447.194 719.286C462.332 727.663 479.74 732.746 495.995 738.384C517.098 745.717 538.272 752.829 559.228 760.636C572.363 765.529 589.254 769.834 600.573 778.909C608.84 785.536 603.189 787.518 598.827 793.691C596.6 796.838 597.114 799.939 596.147 803.503C594.765 808.591 590.86 812.253 587.198 815.546C582.147 820.095 575.419 823.842 571.289 829.418C569.833 831.382 569.901 833.818 568.723 835.53C565.296 840.514 556.205 842.974 551.254 845.029Z" stroke="#05CF4A" stroke-opacity="0.2"/>
<path fill-rule="evenodd" clip-rule="evenodd" d="M495.284 837.245C452.559 850.981 405.021 858.802 359.859 855.172C344.145 853.908 328.336 850.969 313.699 844.516C307.039 841.589 302.04 838.326 294.743 838.151C277.811 837.746 260.826 839.163 243.898 839.503C231.783 839.748 219.608 839.836 207.522 838.792C199.441 838.097 188.513 837.264 181.893 831.957C172.273 824.228 189.639 797.952 193.174 790.692C199.032 778.653 204.843 765.268 202.52 751.338C201.807 747.078 200.546 743.314 200.382 738.97C200.225 735.237 200.663 731.791 199.427 728.222C197.898 723.797 191.1 716.931 193.437 712.858C195.03 710.077 199.755 709.947 202.897 709.057C207.995 707.613 212.971 705.719 217.777 703.394C222.837 700.934 227.144 697.132 232.386 695.099C240.894 691.806 250.418 691.496 259.362 691.512C295.046 691.573 331.183 699.111 365.962 706.993C384.073 711.097 402.284 715.472 419.886 721.696C425.23 723.587 431.288 725.486 435.987 728.978C438.92 731.152 440.908 733.877 444.24 735.512C472.698 749.473 505.599 754.658 535.811 764.741C543.675 767.366 587.255 780.628 564.469 793.103C550.626 800.684 536 804.13 523.369 814.5C519.52 817.652 516.955 820.262 515.451 825.072C514.461 828.274 516.845 826.65 513.517 829.997C509.48 834.02 500.262 835.644 495.284 837.245Z" stroke="#05CF4A" stroke-opacity="0.2"/>
<path fill-rule="evenodd" clip-rule="evenodd" d="M450.86 829.123C400.839 840.335 347.866 840.868 297.055 830.929C284.246 828.426 270.916 829.024 257.95 828.388C245.351 827.778 222.953 829.047 213.802 818.673C207.167 811.153 214.367 795.172 216.857 786.76C220.03 776.044 222.803 764.973 217.593 754.565C214.542 748.47 210.362 742.668 207.089 736.63C205.524 733.746 202.301 729.327 203.644 726.595C205.867 722.088 216.264 720.191 221.309 718.065C237.434 711.273 254.509 709.54 271.748 709.589C303.59 709.677 335.597 714.34 366.832 720.664C381.202 723.574 395.772 726.679 409.632 731.738C417.475 734.599 423.259 740.119 430.748 743.392C454.862 753.937 480.769 759.571 505.298 769.213C512.397 772.006 538.915 781.301 525.556 792.261C512.622 802.871 493.757 801.61 480.308 811.591C478.786 812.734 476.903 814.102 476.021 815.949C475.499 817.054 476.417 819.157 476.021 819.786C471.89 826.616 457.209 827.702 450.86 829.123Z" stroke="#05CF4A" stroke-opacity="0.2"/>
<path fill-rule="evenodd" clip-rule="evenodd" d="M418.452 821.713C392.79 825.482 366.563 826.417 340.469 826.654C326.205 826.784 310.534 827.757 296.578 823.889C288.005 821.506 279.725 819.422 270.887 817.921C261.378 816.305 246.068 815.129 240.278 806.369C235.952 799.823 238.917 786.367 239.074 778.407C239.242 769.678 237.57 763.205 231.815 756.958C228.197 753.024 211.597 738.744 213.515 734.627C215.34 730.705 226.907 730.103 231.908 729.084C247.715 725.852 263.732 724.725 279.81 724.902C304.712 725.17 329.706 727.889 354.218 732.562C364.352 734.504 374.826 736.515 384.506 740.395C391.025 743.011 396.462 747.65 402.938 750.354C421.485 758.111 441.096 763.377 459.707 771.275C465.679 773.815 485.14 780.575 480.475 790.994C476.585 799.693 463.354 802.339 456.853 808.169C445.793 818.113 432.555 819.645 418.452 821.713Z" stroke="#05CF4A" stroke-opacity="0.2"/>
<path fill-rule="evenodd" clip-rule="evenodd" d="M402.286 816.714C381.929 819.209 361.099 820.3 340.443 820.354C327.112 820.388 313.049 820.583 299.967 817.374C293.396 815.764 287.686 811.998 281.468 809.312C275.064 806.55 266.227 803.467 263.459 797.134C260.858 791.182 261.829 782.498 259.545 775.322C257.514 768.954 253.262 765.02 248.684 760.717C245.766 757.966 230.785 746.058 232.518 743.429C234.375 740.614 243.372 740.843 248.054 740.453C260.954 739.362 273.898 739.015 286.833 739.412C304.486 739.992 322.274 741.609 339.621 745.272C351.927 747.867 361.209 754.047 372.682 758.58C387.546 764.467 402.944 769.122 417.665 775.562C425.001 778.771 435.859 782.899 439.616 791.182C441.06 794.356 442.462 802.429 440.854 805.604C438.922 809.419 431.732 811.037 428.338 812.017C419.835 814.463 410.938 815.653 402.286 816.714Z" stroke="#05CF4A" stroke-opacity="0.2"/>
<path fill-rule="evenodd" clip-rule="evenodd" d="M383.215 810.622C357.767 813.689 329.016 816.292 303.49 810.12C293.175 807.628 282.902 800.249 278.696 790.187C276.517 784.985 276.048 778.795 272.793 773.754C270.383 770.028 267.316 766.663 264.292 763.527C262.588 761.756 251.673 752.054 253.778 750.321C256 748.493 261.452 749.091 265.175 749.045C274.096 748.934 283.051 749.302 291.943 750.026C302.166 750.862 312.63 751.943 322.545 754.871C330.542 757.248 337.829 762.25 345.617 765.221C366.091 773.091 387.666 779.255 406.887 790.904C410.976 793.38 419.062 797.087 414.15 802.684C408.037 809.656 391.077 809.679 383.215 810.622Z" stroke="#05CF4A" stroke-opacity="0.2"/>
<path fill-rule="evenodd" clip-rule="evenodd" d="M361.032 805.095C342.912 807.242 322.81 808.251 304.618 803.827C295.405 801.589 287.187 796.926 283.174 787.9C280.303 781.466 279.528 774.287 275.605 768.105C274.216 765.923 269.113 759.802 271.629 758.466C277.012 755.592 289.028 758.9 296.496 760.407C307.737 762.691 317.122 769.087 327.81 772.878C344.204 778.691 364.977 781.798 379.917 791.707C394.316 801.288 366.319 804.467 361.032 805.095Z" stroke="#05CF4A" stroke-opacity="0.2"/>
<path fill-rule="evenodd" clip-rule="evenodd" d="M340.313 799.845C324.938 801.776 297.595 802.73 288.823 787.193C287.196 784.307 282.702 768.378 287.045 766.956C290.624 765.789 296.241 767.716 300.284 769.518C307.806 772.853 314.863 776.487 322.637 779.239C329.255 781.581 336.031 783.741 342.563 786.463C345.336 787.603 350.546 788.987 352.285 791.587C356.966 798.582 344.993 799.259 340.313 799.845Z" stroke="#05CF4A" stroke-opacity="0.2"/>
</svg>
